<mxfile host="65bd71144e" modified="2021-02-28T07:24:01.012Z" agent="5.0 (Macintosh; Intel Mac OS X 11_2_2) AppleWebKit/537.36 (KHTML, like Gecko) Code/1.53.2 Chrome/87.0.4280.141 Electron/11.2.1 Safari/537.36" version="14.2.4" etag="18pOtZ1nHPS4fs5KHM7v" type="embed">
    <diagram id="utVOOf1aX5ri7B-dTC88" name="ページ1">
        <mxGraphModel dx="1245" dy="519" grid="1" gridSize="10" guides="1" tooltips="1" connect="1" arrows="1" fold="1" page="1" pageScale="1" pageWidth="827" pageHeight="1169" math="0" shadow="0">
            <root>
                <mxCell id="0"/>
                <mxCell id="1" parent="0"/>
                <mxCell id="14" value="TCP80" style="edgeStyle=orthogonalEdgeStyle;shape=link;rounded=0;orthogonalLoop=1;jettySize=auto;html=1;" edge="1" parent="1" source="2">
                    <mxGeometry relative="1" as="geometry">
                        <mxPoint x="30" y="196" as="targetPoint"/>
                    </mxGeometry>
                </mxCell>
                <mxCell id="2" value="www-data" style="shape=image;imageAspect=0;aspect=fixed;verticalLabelPosition=bottom;verticalAlign=top;image=data:image/png,iVBORw0KGgoAAAANSUhEUgAABkAAAAcsCAYAAAD4TUoyAAAABHNCSVQICAgIfAhkiAAAAAlwSFlzAAGnkgABp5IB05GIigAAABl0RVh0U29mdHdhcmUAd3d3Lmlua3NjYXBlLm9yZ5vuPBoAACAASURBVHic7N1ZtGV1Ye/779pVhYoaEZuAxvS96U3fN4yRnCSccx+Ul1uec0GK6o5FQeiuIBQIggGhCoGqXaCOC2GMO9SXew4nJxmDJKbvNDnp+9ZEjRolKmJRVXveB8xJI0gVtWv/19778xljv+713Q97rTnnb8w1ZwEAACyXPS10Zi9t6mub9dLqy5s6o1kvrp5VPbvaWH2y+lj1keo9Tf1ls/6khX6jpd7d1j4x7o8AAADWgtnoAAAAYJVb7HOb+k/N+sHqO6rTTvA3Hql+rfofTf23tvWHJ9wIAACsOwYQAADg+L2lF3S4/7PaXL3sJL/au6q3dKj729VHT/JrAQAAa4QBBAAAOHZ3960tdXH1f1SbVvjV/6m6s03t7bw+uMKvDQAArDIGEAAA4Mkd6Ida6KqmvmN0SvVwdXN1s2eFAAAAT8QAAgAAPLG7+66Wen31naNTHsd7mrq8rf2/zZpGxwAAAPPFAAIAAHy6N/eijnRTjz3jY97PG36zqQvb1q+ODgEAAObHvJ/IAAAAK+mtPb3DXdTUldUzR+cch6Xq/+lIr2ln7x8dAwAAjGcAAQAAHnOgs5u1t/rC0Skn4OHqlk7pps7tk6NjAACAcQwgAACw3i325dWt1X8YnbKM/rap17ate0eHAAAAYxhAAABgvbqr57ahPdWOauPgmpPl51pod1v63dEhAADAyjKAAADAerOnhc5oc7NuqV4wOmcFLFX3t6kf67w+ODoGAABYGQYQAABYTxb7vmpv9TWjUwb4SFNv6PRu65weHR0DAACcXAYQAABYD+7sJW3shuqVo1PmwJ80dXHb+snRIQAAwMljAAEAgLVssVOry6rLq6cPrpk3DzZ1Ydv6w9EhAADA8jOAAADAWjQ162Avr26pPnd0zhw7XO2vrm5r/zQ6BgAAWD4GEAAAWGvu7mVN7WvqO0anrCL/2KzXdVp3dE5HR8cAAAAnzgACAABrxWJnVnuq86uFsTGr1m+10O629IujQwAAgBNjAAEAgNVusU3N2tHUddVnjc5ZE6YeaOrVbe+vR6cAAABPjQEEAABWs4Od1dTt1VeMTlmDHmnW7R3u+nb28dExAADA8TGAAADAanRXX9bGbm3qh0enrAN/39Rr2tp9zZpGxwAAAMfGAAIAAKvJWzutw13R1EXVKaNz1pVZv9FSu9vWr45OAQAAnpwBBAAAVoM9LXRGm5t1c/XC0Tnr2FT9REe6rJ29f3QMAADwxAwgAAAw7/b3vS20t/ra0Sn8bw9Xt3RKN3VunxwdAwAAfDoDCAAAzKu7+5yWen21Ocfu8+rPq9e0tbePDgEAAP4tJ1EAADBvFju1uuxTP88YXMOxmPrZZu1ua783OgUAAHiMAQQAAObJgc5u1puqzxudwnE7Ur2lTV3VeX1wdAwAAKx3BhAAAJgHi31Dta/6ztEpnLCPNOva3tud7enI6BgAAFivDCAAADDSHT2vTV1d7aw2jM5hWf1JUxe3rZ8cHQIAAOuRAQQAAEZYbFOzdjR1bfWc0TmcVA+20K629EejQwAAYD0xgAAAwEo72FlN7au+cnQKK+Zwtb9DvbZdfXR0DAAArAcGEAAAWCkH+9Kmbq1+ZHQKw3yoWdd3Wnd0TkdHxwAAwFpmAAEAgJPtrZ3W4a5oanf1tNE5zIXfaqHdbekXR4cAAMBaZQABAICTZU8LndHmZv149dmjc5hDUw809eq299ejUwAAYK0xgAAAwMmw2LdU+6pvGZ3C3PtEs97U4a5vZx8fHQMAAGuFAQQAAJbT/l7cQjdWm3O8zfH5+6Ze09bua9Y0OgYAAFY7J2QAALAcbu0ZndquZl1VPWt0DqvYrN9o1oVt6ddGpwAAwGpmAAEAgBN1oLObdXv1+aNTWDOWqvs70mXt7P2jYwAAYDUygAAAwFO1v69vob3Vd49OYc16uLqlQ93Yrg6NjgEAgNXEAAIAAMfrjp7Xpq6udlYbRuewLvx59Zq29vbRIQAAsFoYQAAA4FgttqlZO5q6tnrO6BzWpZ+pLmprvzc6BAAA5p0BBAAAjsXBzmpqb/XS0Smse0eqt7SpqzqvD46OAQCAeWUAAQCAz+RAX9KsG6pXjE6Bf+fDzbqu93ZnezoyOgYAAOaNAQQAAB7PvT2zR7q0uqJ62ugc+Az+uFkXd0H/c3QIAADMEwMIAAD8a1OzFntls368+uzROXDMph5o1u629hejUwAAYB4YQAAA4J/t75ubta9Z3zo6BZ6iw9X+DvXadvXR0TEAADCSAQQAAPb34ha6sdqcY2TWhvdVe3pub+6cjo6OAQCAEZzcAQCwft3aMzq1Xc26snr26Bw4Cd5d7W5rvzQ6BAAAVpoBBACA9elAZzdrX/UFo1PgJJuqd7ShSzu/vxkdAwAAK8UAAgDA+nJ3X9HRbmvWD45OgRX2iWa9qcNd384+PjoGAABONgMIAADrwz2d3tGuqXZWG0bnwEB/19SVbe2+Zk2jYwAA4GQxgAAAsLbtaWNndl51Q/X80TkwR369urCt/froEAAAOBkMIAAArF0H+oFm7a2+anQKzKml6v4WurQt/cPoGAAAWE4GEAAA1p57+uKO9vrqFaNTYJX4ePXGDnVjuzo0OgYAAJaDAQQAgLXj3p7ZI11aXVE9bXQOrEJ/Vl3Z1t4+OgQAAE6UAQQAgNVvatZir2zWG6ozRufAGvAzLbW77f3+6BAAAHiqDCAAAKxuB/umpvZV3zY6BdaYI9VbeuyOkA+NjgEAgONlAAEAYHV6cy/qSNdU51cLo3NgDftws67rvd3Zno6MjgEAgGNlAAEAYHV5W6f0UNubel317NE5sI78cVMXta2fGh0CAADHwgACAMDqcaCzm7W3+sLRKbBuTT3QUhe2o78cnQIAAJ+JAQQAgPm32JdXt1U/NDoFqOrR6kCHem27+ujoGAAAeDwGEAAA5tddPbcN7al2VBsH1wCf7n3Vnt7XPe1paXQMAAD8awYQAADmz542dmbnVddXLxidAzypd7fUhW3vl0eHAADAPzOAAAAwXxb7vmpf9dWjU4DjMlXvaEOXdn5/MzoGAAAMIAAAzIc7e0kbu6F65egU4IR8orq5h3tDF/fI6BgAANYvAwgAAGPd2zN7pEury6unj84Bls3fNXVlW7uvWdPoGAAA1h8DCAAAY0zNOtjLq1uqzx2dA5w0P9+s3V3Q/xodAgDA+mIAAQBg5d3dy1rq9urbR6cAK2Kpur+FLm1L/zA6BgCA9cEAAgDAylnszGpPdX61MDYGGOChpm7q0fa2q0OjYwAAWNsMIAAAnHyLbWrWjqauqz5rdA4w3J9VV7a1t48OAQBg7TKAAABwch3o7GbdVn3R6BRg7jzYUhe1vd8fHQIAwNpjAAEA4OS4qy9rQ7dV/2F0CjDXDldv7bE7Qj40OgYAgLXDAAIAwPK6q+e2scubuqg6ZXQOsGp8uFnXdVp3dE5HR8cAALD6GUAAAFgee1rojDY36+bqhaNzgFXrj5p1URf006NDAABY3QwgAACcuP19bwvtq75mdAqwRkw90FIXtqO/HJ0CAMDqZAABAOCpu7vPaanXV68cnQKsSY9WB9rYVb2qj42OAQBgdTGAAABw/BY7tbqsurx6+uAaYO17b3Vt7+ue9rQ0OgYAgNXBAAIAwLGbmnWwl1c3V583OgdYd97VUrvb3i+PDgEAYP4ZQAAAODaLfUO1r/rO0SnAujZV76guaWt/OzoGAID5ZQABAOAzu6Pntamrq53VhtE5AJ/yiermTummzu2To2MAAJg/BhAAAB7fYpuataOpa6vnjM4BeALvaeqqtnXv6BAAAOaLAQQAgE93sLOa2ld95egUgGMy650ttbtt/c7oFAAA5oMBBACAf3GwL23q1upHRqcAPAVL1f0tdUnb+8DoGAAAxjKAAABQb+20DndFUxdVp4zOAThBDzV1U4+2t10dGh0DAMAYBhAAgPVsTwud0eZm3Vy9cHQOwDL702b9WBf0wOgQAABWngEEAGC9Otj3NLW3+rrRKQAn2YPN2t0F/cHoEAAAVo4BBABgvbm7z2mp11ebczwIrB+Hq/2d0jWd20OjYwAAOPmc8AIArBeLndrUq5t1VfWs0TkAg3y4Wdd1Wnd0TkdHxwAAcPIYQAAA1oMDnd2s26vPH50CMCf+16e+FuvnR4cAAHByGEAAANay/X19s/Y167tGpwDMpakH2tCutvRXo1MAAFheBhAAgLXojp7Xpq6udlYbRucAzLlHqwNt7Kpe1cdGxwAAsDwMIAAAa8lim5q1o6lrq+eMzgFYZd5bXdv7uqc9LY2OAQDgxBhAAADWioOd1dTe6qWjUwBWuXc168Iu6FdGhwAA8NQZQAAAVrsDfUl1a7N+dHQKwBoyVe+oLmlrfzs6BgCA42cAAQBYre7sWW3skuqK6mmjcwDWqIerWzqlmzq3T46OAQDg2BlAAABWmz0tdEabm/Xj1WePzgFYJ97T1FVt697RIQAAHBsDCADAarK/b27WvmZ96+gUgHXq51pod1v63dEhAAB8ZgYQAIDVYH8vbqEbq805hgMYbam6v6UuaXsfGB0DAMDjc/IMADDPbu0ZndquZl1VPWt0DgD/xkNN3dTp3dY5PTo6BgCAf8sAAgAwrw50drP2VV8wOgWAz+hPq4vb2v8YHQIAwL8wgAAAzJuDfV1T+6rvHp0CwHF5sFm7u6A/GB0CAIABBABgftzT6R3tmmpntWF0DgBPyeFqf3V1W/un0TEAAOuZAQQAYLQ9bezMzqtuqJ4/OgeAZfGPzXpdp3VH53R0dAwAwHpkAAEAGOlAP9CsvdVXjU4B4KT47aZ2t61fGB0CALDeGEAAAEa4py/uaK+vXjE6BYAVMPVAG9rVlv5qdAoAwHphAAEAWEn39swe6dLqiuppo3MAWFGPNOv2NnRDr+pjo2MAANY6AwgAwEqYmrXYK5v1huqM0TkADPXepv7vtnZfs6bRMQAAa5UBBADgZDvYNzW1r/q20SkAzJXfbOrCtvWro0MAANYiAwgAwMny5l7UkW6qNue4C4DHN1U/0ZEua2fvHx0DALCWOBEHAFhub+uUHmp7U6+rnj06B4BV4eHqlk7pps7tk6NjAADWAgMIAMByOtDZzdpbfeHoFABWpfc0dVXbund0CADAamcAAQBYDot9eVN7m/WDo1MAWBN+roV2t6XfHR0CALBaGUAAAE7EPZ3e0a6pdlQbR+cAsKYsVfe31CVt7wOjYwAAVhsDCADAU7GnjZ3ZedUN1fNH5wCwpn2kqTd0erd1To+OjgEAWC0MIAAAx+vuvr+l9lZfPToFgHXlT5q6uG395OgQAIDVwAACAHCsFvui6sbqFaNTAFjXHmzqwrb1h6NDAADmmQEEAODJvLlnd6TXVBdVTxudAwDVo9W+DnV9u/ro6BgAgHlkAAEAeCJTsw728uqN1UtG5wDA4/jHZr2u07qjczo6OgYAYJ4YQAAAHs/BvqmpfdW3jU4BgGPwWy20uy394ugQAIB5YQABAPjX3tyLOtJN1eYcKwGw2kw90NSr295fj04BABjNST0AQNWtPaNT29WsK6tnj84BgBPwSLNu73DXt7OPj44BABjFAAIAcKCzm7Wv+oLRKQCwjP6+qde0tfuaNY2OAQBYaQYQAGD92t/Xt9De6rtHpwDASfSbTV3Ytn51dAgAwEoygAAA688dPa9NXV3trDaMzgGAFTBVP9GRLmtn7x8dAwCwEgwgAMD6sdimZu1o6trqOaNzAGCAh6tbOqWbOrdPjo4BADiZDCAAwPpwsLOa2lu9dHQKAMyBP69e09bePjoEAOBkMYAAAGvbwb60pd7YrB8dnQIAc2fqZ9vQRW3pd0enAAAsNwMIALA2vbXTOtwVTe2unjY6BwDm2JHqLW3qqs7rg6NjAACWiwEEAFhb9rTQGW1u1s3VC0fnAMAq8pGm3tDp3dY5PTo6BgDgRBlAAIC1Y3/f20J7q68dnQIAq9ifNHVx2/rJ0SEAACfCAAIArH539pI2dkO1Occ3ALBcHmyhXW3pj0aHAAA8FS4QAACr12KnVpdVl1dPH1wDAGvR4Wp/h3ptu/ro6BgAgONhAAEAVp+pWQd7eXVL9bmjcwBgHfhQs67vtO7onI6OjgEAOBYGEABgdTnQN7bQ3qa+Y3QKAKxDv9VCu9vSL44OAQB4MgYQAGB1WOzMak91frUwNgYA1rmpB5p6ddv769EpAABPxAACAMy3t3VKD7W9qeuqzxqdAwD8b59o1ps63PXt7OOjYwAA/j0DCAAwvw50drP2Vl84OgUAeEJ/39Rr2tp9zZpGxwAA/DMDCAAwfxb78uq26odGpwAAx2jWbzTrwrb0a6NTAADKAAIAzJN7Or2jXVPtqDaOzgEAjttU/URHuqydvX90DACwvhlAAIDx9rSxMzuvuqF6/ugcAOCEPVzd0qFubFeHRscAAOuTAQQAGOtAP/Cp53x81egUAGDZ/Xn1mrb29tEhAMD6YwABAMY40Jc064bqFaNTAICTbOpnm7W7rf3e6BQAYP0wgAAAK+vOntXGLqmuqJ42OgcAWDFHqre0qas6rw+OjgEA1j4DCACwMva00BltbtaPV589OgcAGOYjzbq293ZnezoyOgYAWLsMIADAybfYtzS1t1nfOjoFAJgbf9ysi7ug/zk6BABYmwwgAMDJc3ef01KvrzbnuAMAeDxTD3zq+SB/MToFAFhbXIgAAJbfYqc29epmXVU9a3QOADD3Dlf7O9Rr29VHR8cAAGuDAQQAWF4HOrtZb6o+b3QKALDqvK/a03N7c+d0dHQMALC6GUAAgOWx2DdU+6rvHJ0CAKx6v1Vd2NZ+aXQIALB6GUAAgBOz2POr11Y7qw2DawCAtWTqgTb2Xzu/vxmdAgCsPgYQAOCpWWxTs3Y0dV31WaNzAIA16xPNelOHu76dfXx0DACwehhAAIDjd7Czmrq9+orRKQDAuvF3TV3Z1u5r1jQ6BgCYfwYQAODY3dWXtbFbm/rh0SkAwLr16z32fJBfHx0CAMw3AwgA8OTu6rltaE+1o9o4uAYAYKm6v4UubUv/MDoGAJhPBhAA4IntaWNndl51ffWC0TkAAP/Ox6s3dqgb29Wh0TEAwHwxgAAAj+/uvr+l9lZfPToFAOBJ/Fl1ZVt7++gQAGB+GEAAgH/rnr64o72+esXoFACA4/QzLbW77f3+6BAAYDwDCADwmHt7Zo90aXV59fTROQAAT9GR6i09dkfIh0bHAADjbBgdAAAMNjXrzP5zR/rv1Y/mIecAwOq2UL2sOr//2KFe1rt7Z0ujowCAlecOEABYzw72TU3tq75tdAoAwEnyx01d1LZ+anQIALCyDCAAsB7t78UtdGO1OccDAMB6MPVAS13Yjv5ydAoAsDJc8ACA9eTWntGp7WrWldWzR+cAAKywR6sDHeq17eqjo2MAgJPLAAIA68WBzm7WvuoLRqcAAAz2vmpP7+ue9ng+CACsVQYQAFjr9vf1LbS3+u7RKQAAc+bd1e629kujQwCA5WcAAYC16o6e16aurnZWG0bnAADMqal6Rxu6tPP7m9ExAMDyMYAAwFqz2KZm7Wjq2uo5o3MAAFaJT1Q393Bv6OIeGR0DAJw4AwgArCUHO6upfdVXjk4BAFil/q6pK9vafc2aRscAAE+dAQQA1oKDfWlTt1Y/MjoFAGCN+Plm7e6C/tfoEADgqTGAAMBq9tZO63BXNHVRdcroHACANWapur+FLm1L/zA6BgA4PgYQAFiN9rTQGW1u1s3VC0fnAACscR+v3tihbmxXh0bHAADHxgACAKvNYt9X3VZ97egUAIB15s+qK9va20eHAABPzgACAKvFnb2kjd1QvXJ0CgDAOvdgS13U9n5/dAgA8MQMIAAw7xY7tbqsurx6+uAaAAAec7h6a4/dEfKh0TEAwKczgADAvJqadbCXV7dUnzs6BwCAx/XhZl3Xad3ROR0dHQMA/AsDCADMowN9Y7P2Vd8+OgUAgGPyR826qAv66dEhAMBjDCAAME/e3Is60jXV+dXC6BwAAI7T1AMtdWE7+svRKQCw3hlAAGAevK1TeqjtTb2uevboHAAATsij1YEO9dp29dHRMQCwXhlAAGC0A53drL3VF45OAQBgWb23urb3dU97WhodAwDrjQEEAEa5u6/oaLc16wdHpwAAcFK9q6V2t71fHh0CAOuJAQQAVto9nd7Rrql2VhtG5wAAsCKm6h3VJW3tb0fHAMB6YAABgJWy2Kbq3OqG6vmDawAAGOMT1c2d0k2d2ydHxwDAWmYAAYCVcLCzmrqt+qrRKQAAzIX3NHVVW7uvWdPoGABYiwwgAHAyHehLmnVD9YrRKQAAzKFZ72yp3W3rd0anAMBaYwABgJPhzp7Vxi6prqieNjoHAIC5tlTd31KXtL0PjI4BgLXCAAIAy2lPC53R5mb9ePXZo3MAAFhVHmrqph5tb7s6NDoGAFY7AwgALJeDfU9Te6uvG50CAMCq9qfN+rEu6IHRIQCwmhlAAOBE3d3ntNTrq835bAUAYPk82KzdXdAfjA4BgNXIRRoAeKoWO7W67FM/zxhcAwDA2nS42t8pXdO5PTQ6BgBWEwMIAByvqVkHe3l1c/V5o3MAAFgXPtys6zqtOzqno6NjAGA1MIAAwPG4u5e11N7qO0enAACwLv1Rsy7qgn56dAgAzDsDCAAci8XOrPZU51cLY2MAAFj3ph5oQ7va0l+NTgGAeWUAAYDPZLFNzdrR1HXVZ43OAQCAf+XR6kAbu6pX9bHRMQAwbwwgAPBEDnR2s26rvmh0CgAAfAbvra7tfd3TnpZGxwDAvDCAAMC/t9iXV7dW/2F0CgAAHId3NevCLuhXRocAwDwwgADAP7ur57ahPdWOauPgGgAAeCqm6h3VJW3tb0fHAMBIBhAA2NPGzuy86vrqBaNzAABgGTxc3dIp3dS5fXJ0DACMYAABYH27u+9vqb3VV49OAQCAk+A9TV3Vtu4dHQIAK80AAsD6dE9f3NFeX71idAoAAJx0s97ZUrvb1u+MTgGAlWIAAWB9ubdn9kiXVldUTxudAwAAK2ipur+lLml7HxgdAwAnmwEEgPVhatZir2zWG6ozRucAAMBADzV1U6d3W+f06OgYADhZDCAArH37++Zm7WvWt45OAQCAOfKn1cVt7X+MDgGAk8EAAsDatb8Xt9CN1eZ85gEAwBN5sFm7u6A/GB0CAMvJxSAA1p5be0antqtZV1XPGp0DAACrwOFqf3V1W/un0TEAsBwMIACsLQc6u1m3V58/OgUAAFahf2zW6zqtOzqno6NjAOBEGEAAWBsW+4am9jbru0anAADAGvDbTe1uW78wOgQAnioDCACr2x09r01dXe2sNozOAQCANWXqgTa0qy391egUADheBhAAVqfFNjVrR1PXVs8ZnQMAAGvYI826vQ3d0Kv62OgYADhWBhAAVp+DndXUvuorR6cAAMA68t6m/u+2dl+zptExAPBkDCAArB539WVt7Namfnh0CgAArGO/2dSFbetXR4cAwGdiAAFg/t3Vc9vY5U1dVJ0yOgcAAGiq3tGRfqydvWd0DAA8HgMIAPNrTwud0eZm3Vy9cHQOAADwaR6ubumUburcPjk6BgD+NQMIAPNpse+r9lZfMzoFAAB4Uu9p6qq2de/oEAD4ZwYQAObLnb2kjd1QvXJ0CgAAcNx+roV2t6XfHR0CAAYQAObDvT2zR7q0urx6+ugcAADgKVuq7m+pS9reB0bHALB+GUAAGGtq1sFeXr2xesnoHAAAYNl8pKk3dHq3dU6Pjo4BYP0xgAAwzsG+qam91bePTgEAAE6aP2nq4rb1k6NDAFhfDCAArLw396KOdE11frUwOgcAAFgRDzZ1Ydv6w9EhAKwPBhAAVs7bOqWH2t7U66pnj84BAABW3OFqf3V1W/un0TEArG0GEABWxoHObta+6gtGpwAAAMP9Y7Ne12nd0TkdHR0DwNpkAAHg5DrY133qOR/fMzoFAACYO7/d1O629QujQwBYewwgAJwc93R6R7um2lltGJ0DAADMsakHmnp12/vr0SkArB0GEACW12KbmrWjqT3VaaNzAACAVeORZt3ehm7oVX1sdAwAq58BBIDlc7CzPvV1Vy8dnQIAAKxaf9/Ua9rafc2aRscAsHoZQAA4cQf70pZ6Y7N+dHQKAACwZvxmUxe2rV8dHQLA6mQAAeCpe2undbgrmtpdPW10DgAAsOZM1U90pMva2ftHxwCwuhhAADh+b2tDH+n86nXVC0bnAAAAa95Hqxs61L52dWh0DACrgwEEgOOzv+9tob3V145OAQAA1p0/r17T1t4+OgSA+WcAAeDY3NlL2tgN1eZ8fgAAACNN/Wwbuqgt/e7oFADmlwtYAHxmi51aXVZdXj19cA0AAMA/O1K9pU1d1Xl9cHQMAPPHAALA45uadbCXV7dUnzs6BwAA4Al8pKk3dHq3dU6Pjo4BYH4YQAD4dAf6xmbtq759dAoAAMAx+pOmLm5bPzk6BID5YAAB4F+8uRd1pGuq86uF0TkAAABPwYNNXdi2/nB0CABjGUAAqLd1Sg+1vanXVc8enQMAAHCCDlf7q6vb2j+NjgFgDAMIwHp3oLM/9XVXXzA6BQAAYJn9Y7Ne12nd0TkdHR0DwMoygACsV/v7+hbaW3336BQAAICT7LdaaHdb+sXRIQCsHAMIwHpzR89rU1dXO6sNo3MAAABWzNQDTb267f316BQATj4DCMB6sdimZu1o6trqOaNzAAAABnmkWbd3uOvb2cdHxwBw8hhAANaDg53V1N7qpaNTAAAA5sTfN/WatnZfs6bRMQAsPwMIwFp2sC9t6tbqR0anAAAAzKVZv9GsC9vSr41OAWB5GUAA1qK7em4bu7ypi6pTRucAAADMuan6iY50WTt7/+gYAJaHAQRgLdnTQme0uVk3Vy8cnQMAVv81pgAAIABJREFUALDKPFzd0qFubFeHRscAcGIMIABrxWLfV+2tvmZ0CgAAwCr359Vr2trbR4cA8NQZQABWuzt7SRu7oXrl6BQAAIA1Zepnm7W7rf3e6BQAjp8BBGC1urdn9kiXVpdXTx+dAwAAsEYdqd7Spq7qvD44OgaAY7dhdAAAx2lq1pn9547036sfrTaOTgIAAFjDFqqXtdT5/cc+2ct6d+9saXQUAE/OHSAAq8nBvqmpfdW3jU4BAABYp/64WRd3Qf9zdAgAn5kBBGA12N+LW+jGanPeuwEAAMabeuBTzwf5i9EpADw+F9EA5tmtPaNT29WsK6tnj84BAADg3zhc7e9Qr21XHx0dA8C/ZQABmFcHOrtZt1efPzoFAACAz+hDzbq+07qjczo6OgaAxxhAAObNYt/Q1N5mfdfoFAAAAI7Lb1UXtrVfGh0CgAEEYH7c0fPa1NXVzmrD6BwAAACeoqkH2th/7fz+ZnQKwHpmAAEYbbFNzdrR1LXVc0bnAAAAsCw+0aw3dbjr29nHR8cArEcGEICRDnZWU/uqrxydAgAAwEnxd01d2dbua9Y0OgZgPTGAAIxwV1/Wxm5t6odHpwAAALACZv1Gsy5sS782OgVgvTCAAKyku3puG9pT7ag2Dq4BAABgZS1V97fQpW3pH0bHAKx1BhCAlbCnjZ3ZedX11QtG5wAAADDUw9UtHerGdnVodAzAWmUAATjZ7u77W2pv9dWjUwAAAJgrf1Zd2dbePjoEYC0ygACcLPf0xR3t9dUrRqcAAAAw136mpXa3vd8fHQKwlhhAAJbbvT2zR7q0uqJ62ugcAAAAVoUj1Vt67I6QD42OAVgLDCAAy2VPC53R5ma9oTpjdA4AAACr0oebdV3v7c72dGR0DMBqZgABWA77++Zm7WvWt45OAQAAYE3446Yuals/NToEYLUygACciLv7nJZ6fbU576kAAAAst6kHmrW7rf3F6BSA1cbFOoCnYrFTm3p1s66qnjU6BwAAgDXtcLW/Q722XX10dAzAamEAATheBzq7WW+qPm90CgAAAOvK+6o9va972tPS6BiAeWcAAThWd/eyltpbfefoFAAAANa1d1e729ovjQ4BmGcGEIAns9iZ1Z7qVdWGsTEAAABQ1VS9ow1d2vn9zegYgHlkAAF4IottataOpq6rPmt0DgAAADyOT1Q393Bv6OIeGR0DME8MIACP57HnfNxWfdHoFAAAADgGf9fUlW3tvmZNo2MA5oEBBOBfW+zLq9uqHxqdAgAAAE/Br1cXtrVfHx0CMJoBBKDqnk7vaNdUO6qNo3MAAADgBCxV97fQpW3pH0bHAIxiAAHWtz1t7MzOq26onj86BwAAAJbRx6s3dqgb29Wh0TEAK80AAqxfB/qBZu2tvmp0CgAAAJxEf1Zd2dbePjoEYCUZQID150Bf0qwbqleMTgEAAIAV9GBLXdT2fn90CMBKMIAA68edPauNXVJdUT1tdA4AAAAMcKR6S4/dEfKh0TEAJ5MBBFj79rTQGW1u1o9Xnz06BwAAAObAh5t1Xad1R+d0dHQMwMlgAAHWtoN9T1N7q68bnQIAAABz6I+aurht/dToEIDlZgAB1qa7+5yWen21Oe91AAAA8JlNPdBSF7ajvxydArBcXBQE1pbFTq0uqy6vnj64BgAAAFaTR6sDHeq17eqjo2MATtSG0QEAy2Jq1ot6RfXfqv9UbRxcBAAAAKvNhupb2tj/1dl9rG/st3tn0+gogKfKHSDA6negb2yhvU19x+gUAAAAWEPe1VK7294vjw4BeCoMIMDq9eZe1JGuqc6vFkbnAAAAwBo0Ve9oQ5d2fn8zOgbgeBhAgNXnbZ3SQ21v6nXVs0fnAAAAwDrwiermTummzu2To2MAjoUBBFhdDnR2s/ZWXzg6BQAAANahv2vqyrZ2XzPPBwHmmwEEWB3u7is62m3N+sHRKQAAAEA/39SFbet3RocAPBEDCDDf7un0jnZNtbPaMDoHAAAA+N+Wqvtb6NK29A+jYwD+PQMIMJ8W29SsHU3tqU4bnQMAAAA8oYeauqlH29uuDo2OAfhnBhBg/hzsrKb2Vi8dnQIAAAAcsz9t1o91QQ+MDgEoAwgwTw72pS31xmb96OgUAAAA4Cl7sFm7u6A/GB0CrG8GEGC8t3Zah7uiqYuqU0bnAAAAACfscPXW6sq29qHRMcD6ZAABxtnTQme0uVk3Vy8cnQMAAAAsuw8367pO647O6ejoGGB9MYAAYyz2fdVt1deOTgEAAABOuj9q1kVd0E+PDgHWDwMIsLLu7CVt7IbqlaNTAAAAgBU29UBLXdiO/nJ0CrD2GUCAlXFvz+yRLq0ur54+OgcAAAAY5tHqQBu7qlf1sdExwNq1YXQAsMZNzXpRr+hI/1/1n6qNo5MAAACAoTZU39JS/6Wz+3jf2G/3zqbRUcDa4w4Q4OQ52Dc1tbf69tEpAAAAwNx6V7Mu7IJ+ZXQIsLYYQIDl9+Ze1JFuqjbnfQYAAAB4clP1juqStva3o2OAtcGFSWD53NozOrVdzbqyevboHAAAAGDV+UR1c6d0U+f2ydExwOpmAAGWx4HObta+6gtGpwAAAACr3nuauqpt3Ts6BFi9DCDAidnf17fQ3uq7R6cAAAAAa8ysd7bU7rb1O6NTgNXHAAI8NXf0vDZ1dbWz2jA6BwAAAFizlqr7W+qStveB0THA6mEAAY7PYpuataOpa6vnjM4BAAAA1o2Hmrqp07utc3p0dAww/wwgwLE72FlN7au+cnQKAAAAsG79abN+rAt6YHQIMN8MIMCTu6sva2O3NvXDo1MAAAAAPuXBZu3ugv5gdAgwnwwgwBO7q+e2scubuqg6ZXQOAAAAwL9zuNpfXd3W/ml0DDBfDCDAp9vTxs7svOr66gWjcwAAAACexD8263Wd1h2d09HRMcB8MIAA/9bdfX9L3VZ9zegUAAAAgOP0203tblu/MDoEGM8AAjzmnr64o72+esXoFAAAAIATMvVAG9rVlv5qdAowjgEE1rt7e2aPdGl1efX00TkAAAAAy+SRZt3ehm7oVX1sdAyw8jaMDgAGmZp1Zv+5I/336kerjaOTAAAAAJbRpuo7W+q/dHYf7xv77d7ZNDoKWDnuAIH1aH/f3Kx9zfrW0SkAAAAAK+Q3m7W7C/qV0SHAyjCAwHqyvxe30I3V5vz/AwAAAOvPVL2juqSt/e3oGODkcgEU1oPFTm3q1c26qnrW6BwAAACAwR6ubumUburcPjk6Bjg5DCCw1h3o7GbdXn3+6BQAAACAOfOepq5qW/eODgGWnwEE1qrFvqGpvc36rtEpAAAAAHPu51pod1v63dEhwPIxgMBas9jzq9dWO6sNg2sAAAAAVoul6v6WuqTtfWB0DHDiDCCwViy2qVk7mrqu+qzROQAAAACr1EeaekOnd1vn9OjoGOCpM4DA/8/enUfJWRfoHn+qt3T2zkoSQkIC2YAECWFfQ1hkU64CbigChrDILogKGhAQlCUgSBIQZhCuMCIIZhhUBnXAgYHRGR1FxQWRfd8JkKTr/iHOdSEhS3f/qqs/n3P6HEK6q76BpFNVT73vWw/+dJ2PC5KsVzoFAAAAoE7cn+T4zMk/lw4BVo8BBLqzBZmc5Pwku5dOAQAAAKhTt6WaY3JY7isdAqwaAwh0R5dncJblc0mOSNJUOgcAAACgzi1JcmmSz2ZOXigdA6wcAwh0J3PTlJE5OMkZSYaVzgEAAADoYZ5JJZ9PWy7O/llWOgZYMQMIdBfzM+vN63xMLZ0CAAAA0MP9V6o5Nofl30qHAMtnAIFaNz8TUsmZSfYrnQIAAADAX6hmURpzdGbngdIpwN8zgECtuiT90pRPJDk5Sa/SOQAAAAC8pcWp5KI05swckpdKxwD/nwEEas3cNGREDkglX0yyVukcAAAAAFbKI6nm05mTr6WSaukYwAACtWVBtkhyYZItSqcAAAAAsFruTTXH5LDcVToEejoDCNSCyzI67TkryQHx5xIAAACgu6smuTpLc1KOzOOlY6Cn8kIrlLQgfZKc9OZH78I1AAAAAHSsV5Kcm5acnYPyWukY6GkaSwdAj1RNJaOyX5Kbkrw7SXPhIgAAAAA6XkuSHbMsH8jeeSyLcl/pIOhJHAECXe2ybJpqLkw125ROAQAAAKALVXN7GnNcZudnpVOgJzCAQFdZkJFJ5ib5WJKGsjEAAAAAFNKe5Jo054QcnKdKx0A9M4BAZ/untOT5HJ5qTk8yoHQOAAAAADXhuVRzTgbnguyfN0rHQD0ygEBnmp+9U8m8JONLpwAAAABQk36dao7PYbmldAjUGwMIdIbLMiXLckEq2a10CgAAAADdwm2p5pgc5kLp0FEMINCRLs/gLMvnkhyZpLF0DgAAAADdypIklyb5bObkhdIx0N0ZQKAjLEhzkoOSnJlkaOEaAAAAALq3Z1LJ59OWi7N/lpWOge7KAAJramF2TjXzkmxYOgUAAACAuvKTNOTYzM4dpUOgOzKAwOpamIlpz3mpZK/SKQAAAADUsWoWpZqjcnj+UDoFuhMDCKyqK9OWJTk51RybpFfpHAAAAAB6hMWp5KIsyRk5Mi+XjoHuwAACK2tuGjIiB6SSLyUZXjoHAAAAgB7pkVTz6czJ11JJtXQM1DIDCKyMS7NjGjIvycalUwAAAAAgldyTSo7J7NxdOgVqlQEEVuSSrJOmnJnkw6VTAAAAAOBvVJNcnaU5KUfm8dIxUGsMIPBWFqRPkpOSfDJJa+EaAAAAAFiRV5Kcm9fzhRyd10vHQK1oLB0ANaWaSkZlvyQ3J3l3kqbCRQAAAADwdlqS7JimvD975/Esyn2lg6AWOAIE/mx+ZqSSC5NsXToFAAAAAFZbNbenkmMzJ/9TOgVKMoDAVzMqS/O5JB9L0lA6BwAAAAA6wNIkV6Q5p+TgPFU6BkowgNBznZ/e6ZOjU8lnkvQvnQMAAAAAneC5VHJaHs0lmZulpWOgKxlA6JnmZ+83T3c1rnQKAAAAAHSBX6eS43Jo/qV0CHQVAwg9y6XZJA2Zl2T70ikAAAAA0OWqWfTm9UF+VzoFOpsBhJ7h4gxJcz6b5MgkjaVzAAAAAKCgJUkuzes5NUfnxdIx0FkMINS3BWlOJUekmtOSDCydAwAAAAA15OlUckbacnH2z7LSMdDRDCDUr4XZOdVcmGSD0ikAAAAAUMN+koYcm9m5o3QIdCQDCPXnK5mUxpyXZM/SKQAAAADQbVSzKNUclcPzh9Ip0BEMINSPr2RQmvLJVHNckpbSOQAAAADQDb2aSr6cJTkjR+bl0jGwJgwgdH9z05AROSCVfCnJ8NI5AAAAAFAHHkk1n86cfC2VVEvHwOowgNC9LcjMJPOSTCudAgAAAAB1p5J7UskxmZ27S6fAqjKA0D0tyJgkZyT5cOkUAAAAAKhz7UmuSUNOzOw8UToGVpYBhO7lqvTN4pyY5JNJWkvnAAAAAEAP8kqSc/N6vpCj83rpGHg7jaUDYKVUU8nIfCRL8+0keyVpKp0EAAAAAD1MS5Id05T3Z+88nkW5r3QQrIgjQKh9C7NZqrkwyValUwAAAACA//WvSY7LnPxP6RB4KwYQatelWTsN+UKSA+L3KgAAAADUoqVJrkhzTsnBeap0DPwlLypTe85P7/TJ0anklCT9SucAAAAAAG/r2VRyeh7NJZmbpaVjIDGAUGvmZ+9UclGSdUunAAAAAACr7Fep5Pgcmn8pHQIGEGrDgkxPNfNSyXalUwAAAACANVTNolRybObkd6VT6LkMIJR1cYakOZ9NcmSSxtI5AAAAAECHWZLk0ryeU3N0XiwdQ89jAKGMBWlOJUekmtOSDCydAwAAAAB0mseSzM2gfDX7Z1npGHoOAwhdb2F2TjUXJZlSOgUAAAAA6DI/TnJs5uTO0iH0DAYQus5XMilNOT/V7FE6BQAAAAAooprk+jTmxHwsD5aOob4ZQOh8X8mgNGZukiOSNBWuAQAAAADKezWVfDlLckaOzMulY6hPBhA6z9w0ZWQOTnJGkmGlcwAAAACAmvNwqvlM5uRrqaRaOob6YgChc8zPrFRyQZKppVMAAAAAgJr3H0mOyZz8R+kQ6ocBhI51edbPspyVZL/SKQAAAABAt9Ke5Jo05MTMzhOlY+j+DCB0jKvSN4tzYpKTk/QqnQMAAAAAdFsvJzkvr+cLOTqvl46h+zKAsGbmpiEjckAq+WKStUrnAAAAAAB14zdJPpM5+UbpELonAwirb0G2SDXzUsmWpVMAAAAAgLr1r2nPsTk8Py8dQvdiAGHVXZbRac9ZSQ6I30MAAAAAQOdbmuSK/OmIkKdLx9A9ePGalbcgfVLNUanklCT9SucAAAAAAD3Os6nk9DyaSzI3S0vHUNsMILy9aipZmH2TfCnJ2NI5AAAAAECP96tUc1wOy62lQ6hdBhBW7LJsmvbMS7Jt6RQAAAAAgL9SzaK055gckd+XTqH2GEB4awsyMsncJB9L0lA2BgAAAABgud5IMj+v59QcnRdLx1A7DCD8tX9KS57P4anm9CQDSucAAAAAAKykx5LMzWO5PHPTXjqG8gwg/H/zs3cqmZdkfOkUAAAAAIDV9OO055gcnh+VDqEsAwjJgkxOckGSd5ZOAQAAAADoANUk16cxJ+ZjebB0DGUYQHqyyzM4y/K5JEckaSqdAwAAAADQwV5N8qW8knNyfBaXjqFrGUB6orlpysgcnOTMJENL5wAAAAAAdLKHU81nMidfSyXV0jF0DQNIT7MwO6eaC5JsVDoFAAAAAKCL/TCVHJtD89+lQ+h8BpCeYn4mpJIzk+xXOgUAAAAAoKD2JNekISdmdp4oHUPnMYDUuyvTliU5OdUcm6RX6RwAAAAAgBrxfKo5O29kXo7O66Vj6HgGkHo1Nw0ZkQNSyReTrFU6BwAAAACgRv0myWcyJ98oHULHMoDUo4XZIdXMS/KO0ikAAAAAAN3EbW9eH+QXpUPoGAaQenJZRqc9ZyU5IP7fAgAAAACsqiVJrsyfjgh5unQMa8aL5PVgQfokOSnJJ5O0Fq4BAAAAAOjunk0lp6ctF2f/LCsdw+oxgHRn1VSyMPsmOTfJmNI5AAAAAAB15pep5Lgcmu+UDmHVGUC6q/mZkUouTLJ16RQAAAAAgLpWzaK055gckd+XTmHlGUC6m69mVJbmc0k+lqShdA4AAAAAQA/xRpL5acopOSQvlY7h7RlAuot/Skuez+Gp5vNJ+pfOAQAAAADooR5Ncloey+WZm/bSMSyfAaQ7mJ+93zzd1bjSKQAAAAAAJEn+M5Uck0Pz76VDeGsGkFq2MO9INfOS7FA6BQAAAACAv1NNcn2ST2RO/lg6hr9mAKlFF2dImvPZJEcmaSydAwAAAADACr2a5Etpydk5KK+VjuFPDCC1ZEGaU8kRqea0JANL5wAAAAAAsEoeSjWn5LBcVToEA0jtWJid3zzd1YalUwAAAAAAWAOV/CDtOTaH5aelU3oyA0hpCzMx1ZyfZM/SKQAAAAAAdJj2JNekPZ/I4XmydExPZAAp5cq0ZUlOTjXHJWkpnQMAAAAAQKd4PtWcnTcyL0fn9dIxPYkBpKvNTUNG5IBU8qUkw0vnAAAAAADQJe5PJSfk0CwqHdJTGEC60oLMTDIvybTSKQAAAAAAFHFbKjk2h+YXpUPqnQGkK1ySddKUM5N8uHQKAAAAAADFLUlyaZLPZk5eKB1Trwwgnemq9M3inJjkk0laS+cAAAAAAFBTnkkln09bLs7+WVY6pt4YQDpDNZUszL5JzkuyTukcAAAAAABq2n+/eVqsH5YOqScGkI62MJulmguTbFU6BQAAAACAbqSaRWnM0ZmdB0qn1AMDSEe5NGunIV9IckD8dwUAAAAAYPW8kWR+mnJKDslLpWO6My/Ur6nz0zt9cnQq+UyS/qVzAAAAAACoC48mOS2P5fLMTXvpmO7IALIm5mfvVHJhknGlUwAAAAAAqEv3vnl9kH8vHdLdGEBWx6XZJA2Zl2T70ikAAAAAANS9apLrk3wic/LH0jHdhQFkVVycIWnOZ5McmaSxdA4AAAAAAD3KK0nOTUvOzkF5rXRMrTOArIwFaU4lR6Sa05IMLJ0DAAAAAECP9lCqOSWH5arSIbXMAPJ2FmbnVHNhkg1KpwAAAAAAwF/4fhpybGbnZ6VDapEBZHm+kklpyvmpZo/SKQAAAAAAsBztSa5Jez6Rw/Nk6ZhaYgD5W1/JoDTlk6nmuCQtpXMAAAAAAGAlPJ9qzs7gXJD980bpmFpgAPmzuWnKyByc5Iwkw0rnAAAAAADAarg/yfGZk38uHVKaASRJLstOac+8JFNLpwAAAAAAQAe4LdUck8NyX+mQUnr2AHJ51s+ynJVkv9IpAAAAAADQwZYkuTTJZzMnL5SO6Wo9cwC5Kn2zOCcmOTlJr9I5AAAAAADQiZ5JJZ9PWy7O/llWOqar9KwBpJpKFuTDqeScJCNK5wAAAAAAQBf6r1RzbA7Lv5UO6Qo9ZwC5NJunkgtTyZalUwAAAAAAoJhqFqUxR2d2Hiid0pnqfwC5NGunIV9IckB6wq8XAAAAAADe3uJUclEac2YOyUulYzpD/Q4CC9In1RyVSk5J0q90DgAAAAAA1KBHUs2nMydfSyXV0jEdqT4HkPnZO5VclGTd0ikAAAAAANAN3Jtqjslhuat0SEeprwFkQaYnuTDJtqVTAAAAAACgm6kmuTpLc1KOzOOlY9ZUfQwgCzIyydwkhyRpLBsDAAAAAADd2itJzk1Lzs5Bea10zOrq3gPIgjSnkiNSzelJBpTOAQAAAACAOvJQqjklh+Wq0iGro/sOIH+6zscFSdYrnQIAAAAAAHXs+2nIsZmdn5UOWRXdbwBZkMlJzk+ye+kUAAAAAADoIdqTXJPmnJCD81TpmJXRfQaQyzM4y/K5JEckaSqdAwAAAAAAPdBzqeacDM4F2T9vlI5ZkdofQOamKSNzcJIzkwwtnQMAAAAAAOTXqeb4HJZbSocsT20PIPMzK5XMS7JR6RQAAAAAAODv3JZqjslhua90yN+qzQFkfiakkjOT7Fc6BQAAAAAAWKElSS5N8tnMyQulY/6stgaQS9IvTflEkpOT9CqdAwAAAAAArLRnUsnn05aLs3+WlY6pjQFkbhoyIgekki8mWat0DgAAAAAAsNp+koYcm9m5o2RE+QFkYXZINfOSvKN0CgAAAAAA0EGqWZRqjsrh+UOJuy83gFyW0WnPWUkOKNoBAAAAAAB0lsWp5KIsyRk5Mi935R13/fCwIH2SnPTmR+8uv38AAAAAAKCrPZJqPp05+VoqqXbFHXbdAFJNJQuzb5IvJRnbZfcLAAAAAADUhkruSXuOzWG5q/PvqivMz4w0ZF6q2aZL7g8AAAAAAKhV1SRXZ2lOypF5vLPupHMHkK9mVJbmc0k+lqShU+8LAAAAAADoTl5Jcm5acnYOymsdfeOdM4Bcmda8keOTfCpJv065DwAAAAAAoB78NtUcn8Py7Y680Y4fQOZn71QyL8n4Dr9tAAAAAACgXn0jzTkyB+epjrixjhtALs26qWR+Ktmtw24TAAAAAADoSZ5MNR/riKNB1nwAqaaShZmd5Nwk/df49gAAAAAAgJ6smuTLGZQTs3/eWN0bWbMB5OIMSUuuSjV7rNHtAAAAAAAA/LV/T3v+Tw7Pk6vzxas/gMzPVqnk2iRjVvs2AAAAAAAAlu/BNORdmZ2freoXNqzW3S3Ifqnk9hg/AAAAAACAzjM27fm3XJptVvULV30AmZ9TklyXpHWVvxYAAAAAAGDVDExDvpP5mbUqX7Rqp8BakDOSfGaVvgYAAAAAAGDNLU5Ddsvs3LEyn7zyA8jCnJdqjl/tLAAAAAAAgDXzXJIdMif/83afuHKnwFqQk40fAAAAAABAYYOSfDtXZNjbfeLbDyDz874kZ3VAFAAAAAAAwJoamyW5LnPTtKJPalzhTSzMhkkWJWnpwDAAAAAAAIA1MS79055F+eHyPmH51wC5Kn2zOPck2aAzygAAAAAAANbA0jRku8zO3W/1k8sfQBbk4iRHdlYVAKypQb0GZWSfkRnZZ2QG9xqctpa29Gnqk77NfdO/qX/6t/T/04+b+i73Nl5b9loWL12c515/Lq8tey2vtb/2v//83OvP5anFT+XxxY/nicVPZPHSxV34qwMAAABgJfwiySaZkyV/+xNvfX6sBdkiyWGdHAUAKzSyz8hMapuUiQMnZsKACRk/YHzW6r1WRvUZlRF9RqS1sbVLe15e8nIeX/x4nlz8ZB555ZE88NIDefDlB/PASw/kgZceyB9e+kNeX/Z6lzYBANCzDeo1KKP6jMrovqMzos+IrNNvnazVulbaerWlX1O/9G/pn4EtAzOgeUD6N/dPr8Zef3cbS6tL89IbL+X5N57Py0te/tPH0pfz1OKn8uRrT+ahlx/K44sfz8OvPJzHXn0sz7z2TIFfKQAs14ap5qgk5//tT/z9ESBz05CR+UmSjbsgDADS1tKWGcNmZMawGZk6aGomtk3MxIET07+5f+m0VVJNNY++8mjuf+H+3PfcffnF87/Ifc/dl58/+/M8+/qzpfMAAOiG+jb1zZRBUzKlbUrG9R+X0X1HZ0y/MRnTb0zG9hub3k29u7zp2defza+e/1V++dwvc/+L9+eXz/0yP3/u5/nDS3/o8hYAeNOLWZLx+Xj+aqX/+wFkfj6SSv6xy7IA6FH6NPXJ5sM3z4yhM7Lp0E2z6bBNs/6A9UtndbrHXn0sv3juF/nZMz/Lj5/5ce598t789sXfls4CAKCGjOwzMpsP3zybDd0s04ZMy4aDNsy6/ddNZQVnMK8lTy5+Mvc8dU/ufere3PPkPbnnqXvy3OvPlc4CoOc4O3Pyqb/8F3/9N+iCNCe5P8m6XdcEQD1rbmjOFsO3yE6jdspOo3bKlmttmZaGltJZNeH5N57PvU/em/98+j/z46d/nLuyq5ufAAAgAElEQVSfuDuPvvpo6SwAALrIBoM2yKy1Z2XbtbbNFsO3yJh+Y0ondaj2anv+65n/yvce/l5ue+S2/OiJHzllLACd6eUsybp/eRTIXw8g83NAKvlal2cBUFc2GLRB9hyzZ2aOnJntRm63wouQ89d+9+Lvcsfjd+SOx+/InY/fmd+88JvSSQAAdJAhrUOyxzp7ZOe1d86stWdlVJ9RpZO61KtLX80dj9+Rmx68KTc+cGOeWPxE6SQA6k01J+ewnPPnH/7tESD3JNmsq5sA6N4qqWSz4Ztln7H75D3j3pOJAyeWTqobj736WO54/I784LEf5HsPfy+/e/F3pZMAAFgFY/uNzT7r7pN3jX1Xth+5fRorjaWTakJ7tT13Pn5nbvjDDbnhgRvy8CsPl04CoD78MYMyPvtnWfKXA8j8zEgl9xbLAqBbaaw0ZoeRO2SfdffJPuvuk9F9R5dO6hF+9+Lv8r2Hv5fvPfK93P7o7XnhjRdKJwEA8DcG9xqc96/3/hww4YBsOXzL0jk1r73antsfvT1X3n9lbnzgxry27LXSSQB0b7tlTr6b/OUAsiAXJDm2VBEA3cOktkk5cMKB+fCED2ftvmuXzunRlrYvzT1P3ZNbH741337w2/npMz8tnQQA0GM1Vhqzx5g98tGJH82eY/Z03bvV9Ozrz+aa31yTK+6/wuNbAFbXFZmTQ5I/DyBz05CReTjJyJJVANSm3k29s9eYvTJ78uzMWntWKn9zBkVqw4MvP5jvPPSd/PND/5zvPvxdF5gEAOgCA1sG5qMTP5qjNzo64/qPK51TV370+I9y0S8uyg0P3JBl1WWlcwDoPp5LslbmZMmfXsFy+isA3sLmwzfPEVOOyHvHv9eFzLuZF954Id95+Du5+cGbc8sfb8nzbzxfOgkAoK5sMGiDnDD1hHxg/Q+ktbG1dE5d+9Xzv8q8n8/L137ztSxeurh0DgDdQXu2zeH50Z8GkAX5TJIzyhYBUAsaKg3Zc8yeOWrDo7Lz2juXzqEDLKsuy91P3J1FDy3KDQ/ckN+88JvSSQAA3da0wdNywrQT8sH1P+iC5l3sqdeeyvn/c34u/J8LXScEgLdzWuZk7p8HkNuSzCrbA0BJ/Zr75eBJB+foDY/O+AHjS+fQSaqp5idP/yQ3P3hzrv3dtcYQAICVNGPYjJy26WnZfZ3dS6f0eA+9/FDO/O8zc+Wvr8yS9iWlcwCoTf+WOdmhkmoqWZhnk7SVLgKg6w3vPTzHTz0+h045NG0t/iroae5+8u5c89trct3vrsvTrz1dOgcAoOZMGDghn5/x+ew3fj/Xwqsxv3/x9zn53pNz/e+vL50CQO15OY9lYCULMjnJL0vXANC1BrYMzAlTT8ixU49Nv+Z+pXMo7I32N3LrQ7fmmt9ek28/+G2nFAAAeryhrUMzd9O5mT15dpobmkvnsAI/ePQHOe7u4/LTZ35aOgWA2jKlkgXZL8k/lS4BoGv0buqdj2/48Xxy409mcK/BpXOoQU+/9nSu+PUVWfDLBXngpQdK5wAAdKmGSkMOnXJozphxhsfL3ciy6rJc9svLcuqPT80zrz1TOgeA2rB/JQvzqVRzVukSADpXc0NzDpp0UE7d5NSs3Xft0jl0A+3V9tz+6O257FeX5cY/3Jil7UtLJwEAdKrpQ6fn4m0uzpbDtyydwmp69vVn8+l7P52Fv1xYOgWA8j5VycJcnmoOKV0CQOfZZfQu+fLWX87EgRNLp9BNPfDSA7n0vkuz4JcL8tKSl0rnAAB0qD5NfXLGjDNy9EZHp6HSUDqHDnDzgzfnyB8dmUdeeaR0CgDlXF7Jgnwnya6lSwDoeCP7jMx5W56X96/3/tIp1Inn33g+X/nFV3LRLy7Kk4ufLJ0DALDGth2xbb66/VczYeCE0il0sBfeeCEn3H1Crvj1FaVTACjj1koW5CdJNildAkDHaaw05sgNj8zpm56eAS0DSudQhxYvXZwr778y5/3sPNcJAQC6pV6NvXLWZmflmI2OcdRHnfvG77+ROXfMyfNvPF86BYCu9Z+VLMhDSUaXLgGgY2w+fPN8ZZuvZPrQ6aVT6AGWti/Ntb+7Nqf/5PT89sXfls4BAFgp6w9YP1+f9fVsOnTT0il0kQdffjAf/v6Hc+fjd5ZOAaDrPNiYvfO5JK2lSwBYMy0NLTlzszPz1e2/mlF9R5XOoYdoqDRk2pBpOWyDwzK67+j89zP/nReXvFg6CwBgud6/3vtz8243Z1z/caVT6EJtLW358IQPpz3tRhCAnqO9kgV5NUnv0iUArL7JbZNz9cyrHfVBca8tey2X3ndpzv7vs/PUa0+VzgEA+F/NDc25YKsLcsQGR5ROobAb/3BjPvqDj+alJS+VTgGgc71SyYIsTdJYugSA1XPolENz/pbnp09Tn9Ip8L9eXvJyzv3ZuTn3Z+fm1aWvls4BAHq4Ya3D8o2dv5HtR25fOoUacd9z9+U933tP7n/h/tIpAHSepZUsSLV0BQCrbmjr0CzcbmH2WXef0imwXA+9/FA+ec8nc93vrkvVQw4AoIBNhm6SG3a5IWP7jS2dQo15/o3n88HbP5hbH7q1dAoAncQAAtANbT9y+3x9p69nZJ+RpVNgpfzo8R/l2LuOzY+f/nHpFACgB9lzzJ65dta16dvUt3QKNWpp+9IcdudhueLXV5ROAaATNGbvzC0dAcDKO3TKofm/O/3ftLW0lU6BlTam35h8bPLHMqbfmNz1xF1OiwUAdLqDJh2Uq2dendbG1tIp1LCGSkPeNfZdqaaaHz72w9I5AHQwAwhAN9Hc0JyLtr4op216WhorLt1E91OpVLLJ0E1y8KSD89RrT+Wnz/y0dBIAUKc+s8lncsFWF3jczErbcdSOWaffOrnloVvSXm0vnQNAB3EKLIBuYGjr0Fw367rMHDWzdAp0mNsfvT2H33l4fvPCb0qnAAB15EtbfCknTDuhdAbd1PW/vz4f+v6HsqR9SekUADqAI0AAatzUwVPzr3v+azYZuknpFOhQ4/qPy+zJs9NUacpdT9yVZdVlpZMAgG6skkrO3/L8HD/t+NIpdGMbDNog04dOz41/uDFLq0tL5wCwhhwBAlDDdhq1U76167fSr7lf6RToVD979mc58AcHOi0WALBaKqnkwq0vzMc3/HjpFOrELX+8Jfvetm9eW/Za6RQA1kBD6QAA3treY/fOoncuMn7QI0wbPC3/sc9/5OR3nOxc3QDAKrtgqwuMH3SoPcbskRt2uSEtDS2lUwBYAwYQgBr0/vXen+t3vj6tja2lU6DLtDS05KzNzsod77ojEwZOKJ0DAHQTn53+2Ry90dGlM6hD71znnbl21rVpamgqnQLAanINEIAaM3vy7FyxwxUeZNNjje47OgdNPCjPvv5sfvz0j0vnAAA17IgNjsgXt/hi6Qzq2OS2yRnZZ2QW/XFR6RQAVoMBBKCGHD/t+Fy09UVpqDhAj56tpbEle43ZK9OGTMt3H/6ucy8DAH9n//H75/LtL0+lUimdQp2bPnR6+jT1yW2P3FY6BYBVZAABqBEnv+PknLP5OanEEzj4syltU/K+9d6Xu5+8O4+88kjpHACgRmw5fMvcuOuNaW5oLp1CD7HNiG3y9OtP596n7i2dAsAqMIAA1IADJx6Yi7a+yPgBb6GtV1s+OvGjaag05I7H70g11dJJAEBBY/uNzW173pa2lrbSKfQwu43eLf/19H/l/hfuL50CwEqqZIFXEQBKes+49+S6WdelsdJYOgVq3qI/LspBPzwoz7z2TOkUAKCA/s39c+e77szUwVNLp9BDvfjGi9n229vm58/+vHQKACvBSeYBCpo5amaunnm18QNW0l5j9so9+9yTjYdsXDoFAOhilVRyxQ5XGD8oakDLgNy8680Z1jqsdAoAK8EAAlDItMHT8s1dvpnWxtbSKdCtjOs/Lne9+64cOPHA0ikAQBc6duqxee+495bOgKzbf918fdbXvZENoBtwDRCAAtYfsH5u3+v2DG0dWjoFuqWmhqbss+4+6dvcN7c/ervrggBAndtqra0cOU1NGdd/XBrSkO8/9v3SKQCsgGuAAHSx/s39c/c+d2dK25TSKVAXvvfw9/LB73/QdUEAoE4NaR2Sn/yfn2SdfuuUToG/0l5tz7u++67c8sdbSqcAsBxOgQXQhSqp5Kvbf9X4AR1ol9G75K5335WJAyeWTgEAOsFXtvmK8YOa1FBpyFU7XuX3J0ANM4AAdKETNz4x+47ft3QG1J31B6yfu959V3YctWPpFACgA314woez3/j9SmfAcg3uNdjp2QBqmGuAAHSRmaNm5sodrkxDxfYMnaF3U+98YP0P5I+v/DE/feanpXMAgDU0uu/o3LTrTend1Lt0CqzQ2H5j89KSl3LXE3eVTgHgbxhAALrAOv3WyXf3+G76N/cvnQJ1rbHSmHev++40Vhrzw8d+WDoHAFgD1+9yfTYctGHpDFgpO4zcId9+8Nt5YvETpVMA+AvehgzQyXo19so3Zn0jw1qHlU6BHqGSSk6dfmr+ccd/THNDc+kcAGA1HDDhgOy89s6lM2Cl9WrslatmXuXxJ0CNMYAAdLLPTf9cNh++eekM6HEOmHBAbnnnLY68AoBuZnCvwTl3i3NLZ8AqmzZ4Wk7c+MTSGQD8BQMIQCeaPnR6Tph2QukM6LFmrT0rt+15myOwAKAb+eIWX8zw3sNLZ8BqOXWTUzO5bXLpDADeZAAB6CStja25akeHQENpmw3bLD/Y+wdZp986pVMAgLex1Vpb5aBJB5XOgNXWq7FXLtnmklRSKZ0CQAwgAJ3mtE1PywaDNiidASSZ0jYld+59Z6a0TSmdAgAsRyWVnLfleV44ptubOWpmDpx4YOkMAGIAAegUWw7fMsdPO750BvAX1um3Tr6/1/ez8ZCNS6cAAG/hA+t/IFsO37J0BnSIL2z+hQxoGVA6A6DHM4AAdLDWxtZcvv3laaw0lk4B/sbw3sPz/b2+ny2Gb1E6BQD4C72beufMzc4snQEdZq3ea+XkjU8unQHQ4xlAADrYqdNPdeorqGFtLW25dfdbs/VaW5dOAQDe9PENP56x/caWzoAOddzU4zJ+wPjSGQA9mgEEoANNGDghx0916iuodQNbBubW3W/NjqN2LJ0CAD1ev+Z++cS0T5TOgA7Xq7FXztn8nNIZAD2aAQSgA52/5fnp1dirdAawEvo198ui3RZl1tqzSqcAQI/28Q0/nmGtw0pnQKd4z7j3ZMawGaUzAHosAwhAB9ljzB7Zc8yepTOAVdCnqU9u2vUmR4IAQCH9m/vnhKknlM6ATlNJJadvenrpDIAeywAC0AEaKg35wmZfKJ0BrIY+TX3y7d2+ne1GbFc6BQB6nMM3ODxDWoeUzoBO9c513pltR2xbOgOgRzKAAHSAD63/oUwdPLV0BrCa+jb1zaJ3LnJhdADoQi0NLTlqw6NKZ0CXcBQIQBkGEIA11KuxV07b9LTSGcAa6t/cP7e885ZsMXyL0ikA0CO8b733Ze2+a5fOgC6x46gdvdkGoAADCMAaOmjSQVm3/7qlM4AOMKBlQP5l93/JxkM2Lp0CAHXv+KnHl06ALnXitBNLJwD0OAYQgDXQ3NCcT278ydIZQAdqa2nLrbvfmokDJ5ZOAYC6tdOonbzhgB5n77F7Z3Lb5NIZAD2KAQRgDXxk4kcytt/Y0hlAB1ur91q5bc/b/PkGgE5y6JRDSydAl2uoNOSEqSeUzgDoUQwgAKupodKQk6adVDoD6CSj+47OrbvfmuG9h5dOAYC6MrR1aN499t2lM6CIAyYckGGtw0pnAPQYBhCA1bTXmL0yYeCE0hlAJ5rUNim3vPOWDGwZWDoFAOrGRyZ+JL0ae5XOgCJ6NfbKwZMPLp0B0GMYQABW0zEbHVM6AegC04dOz4273OiFGgDoIIdMOqR0AhQ1e9LsNFS8JAfQFXy3BVgNGw/ZODNHzSydAXSRHUftmH/c8R89UQWANTRj2IxMaZtSOgOKGj9gfHYdvWvpDIAewbN4gNUwZ/Kc0glAF9t//P45b8vzSmcAQLf2vvHvK50ANWH25NmlEwB6BAMIwCrq29Q3H1z/g6UzgAKO2eiYnLjxiaUzAKBbqqSSfcfvWzoDasJeY/bKkNYhpTMA6p4BBGAVvW+992VAy4DSGUAhZ29+dg6ceGDpDADodrYbuV3G9htbOgNqQnNDc/YdZxAE6GwGEIBVdPCkg0snAAVVUsmC7RZkuxHblU4BgG7lPeu+p3QC1JQPrf+h0gkAdc8AArAKxvUfl63W2qp0BlBYS0NLbtjlhqw3YL3SKQDQbewxZo/SCVBTthmxTcb1H1c6A6CuGUAAVsH71ntfKqmUzgBqwJDWIblhlxvSv7l/6RQAqHmT2yZn/QHrl86AmlJJJe8d997SGQB1zQACsArev977SycANWTq4Km5dta1aaw0lk4BgJq215i9SidATdp77N6lEwDqmgEEYCVNapuUaYOnlc4Aaszu6+yeMzc7s3QGANS03dfZvXQC1KSt19o6Q1uHls4AqFsGEICV9O6x7y6dANSokzY+KR+b/LHSGQBQk1obW11HD5ajsdKYPcfsWToDoG4ZQABWksP2gRX58tZfztZrbV06AwBqzlZrbZXWxtbSGVCzPNcE6DwGEICVMKR1iHetASvUq7FXvrXrtzJ+wPjSKQBQU7YfsX3pBKhps9ae5ZpyAJ3EAAKwEt45+p0ekAJva2jr0Hxz52+mX3O/0ikAUDO2H2kAgRVpa2nLO4a8o3QGQF0ygACshJmjZpZOALqJjYdsnKt2vCoNFQ+zAKC5oTlbDt+ydAbUvJ3W3ql0AkBd8swcYCXsNMqDUWDl7bPuPjl909NLZwBAcRsN3ii9m3qXzoCat8OIHUonANQlAwjA21hvwHpZt/+6pTOAbuZTm3wqH1r/Q6UzAKCo6UOnl06AbmHbEds6ghigE/jOCvA2thuxXekEoBuqpJLLtr8sWwzfonQKABSzyZBNSidAtzCgZUAmt00unQFQdwwgAG/DOYuB1dXa2Jobd7kx6/Rbp3QKABQxY+iM0gnQbWw2bLPSCQB1xwAC8Da8extYEyP6jMiNu9yYPk19SqcAQJdqqDRko8Eblc6AbsMAAtDxDCAAK9CvuZ8nbcAamz50ev5hh39IJZXSKQDQZcb0G+MNALAKDCAAHc8AArAC7xjyjjRWGktnAHVg3/H75nObfq50BgB0mUkDJ5VOgG5lw0EbuhA6QAfzXRVgBaYOnlo6Aagjp04/NR9c/4OlMwCgS7igM6yaPk19Mrbf2NIZAHXFAAKwAhsNcvoroONUUsnl21+ezYdvXjoFADrdxIETSydAt7PBoA1KJwDUFQMIwAq4/gfQ0VobW3PjLjdmdN/RpVMAoFONHzC+dAJ0O1PappROAKgrBhCAFfDgE+gMI/uMzA273JDeTb1LpwBAp1m7z9qlE6DbGdd/XOkEgLpiAAFYjoEtAzO0dWjpDKBOzRg2I1fteFUqqZROAYBOMbqfox1hVbkIOkDH8l0VYDnWH7B+6QSgzr133HtzyvRTSmcAQIfr29Q3bS1tpTMAgB7OAAKwHM5ZDHSFuZvOzb7j9y2dAQAdau2+Tn8FAJRnAAFYDudeBbpCJZX8ww7/kOlDp5dOAYAOM6z3sNIJAAAGEIDlGdlnZOkEoIfo09QnN+92s3fLAlA3BrUMKp0AAGAAAVgeAwjQlUb1GZVv7fqt9GnqUzoFANbYoF4GEACgPAMIwHIYQICutunQTXPlDlemkkrpFABYIwYQAKAWGEAAlmN46/DSCUAPtN/4/fKpTT5VOgMA1sjAloGlEwAADCAAy+Nda0Apn5/x+ew/fv/SGQCw2no39i6dAABgAAFYHu9aA0qppJIrd7gyM4bNKJ0CAKuluaG5dAIAgAEE4K30auyVXo29SmcAPVjvpt65fufrs1bvtUqnAMAqa2loKZ0AAGAAAXgrA5oHlE4AyJh+Y/LNXb5pkAWg23EECABQCwwgAG+hd5NzFgO1Yeu1ts6CbReUzgCAVWIAAQBqgQEE4C14wgbUko9M/EhO2vik0hkAsNIaKl5uAADK84gE4C00NTSVTgD4K2dtdlbeNfZdpTMAAACg2zCAALwFR4AAtaah0pCrZ16daYOnlU4BAACAbsEAAvAWmiqOAAFqT7/mfvnWrt/KsNZhpVMAAACg5hlAAAC6kXX7r5sbdrkhvRp7lU4BAACAmmYAAQDoZrYZsU3mbzu/dAYAAADUNAMIAEA3dODEA3P8tONLZwAAAEDNMoAAAHRTX9z8i9l77N6lMwAAAKAmGUAAALqphkpDrp55dTYavFHpFAAAAKg5BhAAgG6sf3P/3LzrzRnWOqx0CgAAANQUAwgAQDe3bv91881dvpmWhpbSKQAAAFAzDCAAAHVg2xHb5tJtLy2dAQAAADXDAAIAUCcOmnRQjtnomNIZAAAAUBMMIAAAdeTcLc/NnmP2LJ0BAAAAxRlAAADqSGOlMdfMvCYbDtqwdAoAAAAUZQABAKgzA1oG5Obdbs7Q1qGlUwAAAKAYAwgAQB0a139crt/5+rQ0tJROAQAAgCIMIAAAdWr7kdvnkm0uKZ0BAAAARRhAAADq2CGTD8mRGx5ZOgMAAAC6nAEEAKDOzdtqXnZfZ/fSGQAAANClDCAAAHWusdKYq2denYkDJ5ZOAQAAgC5jAAEA6AEG9RqUm3a9KYN6DSqdAgAAAF3CAAIA0ENMapuUa3e6Nk0NTaVTAAAAoNMZQAAAepBdRu+S87Y4r3QGAAAAdDoDCABAD3PURkfl8A0OL50BAAAAncoAAgDQA83bal5mrT2rdAYAAAB0GgMIAEAP1NzQnOtmXZcJAyeUTgEAAIBOYQABAOihBvcanJt2vSltLW2lUwAAAKDDGUAAAHqwyW2Tc+2sa9PU0FQ6BQAAADqUAQQAoIfbdfSuOWfzc0pnAAAAQIcygAAAkOOmHpc5U+aUzgAAAIAOYwABACBJctHWF2XmqJmlMwAAAKBDGEAAAEiSNDc057pZ12X8gPGlUwAAAGCNGUAAAPhfQ1uHZtFui9LW0lY6BQAAANaIAQQAgL8yuW1yvj7r62lqaCqdAgAAAKvNAAIAwN/ZbfRuOWfzc0pnAAAAwGozgAAA8JaOm3pcDtvgsNIZAAAAsFoMIAAALNeFW12YnUbtVDoDAAAAVpkBBACA5WpuaM4/7fxPmTBwQukUAAAAWCUGEAAAVmhwr8G5edeb09bSVjoFAAAAVpoBBACAtzWpbVKum3VdmhqaSqcAAADASjGAAACwUnYZvUvO2+K80hkAAACwUgwgAACstKM2OipHbHBE6QwAAAB4WwYQAABWybyt5mXntXcunQEAAAArZAABAGCVNDU05fqdr8+GgzYsnQIAAADLZQABAGCVDWgZkJt2vSlDW4eWTgEAAIC3ZAABAGC1jB8wPtfvfH1aGlpKpwAAAMDfMYAAALDath+5fS7Z5pLSGQAAAPB3DCAAAKyRQyYfkqM2Oqp0BgAAAPwVAwgAAGvs/C3Pz55j9iydAQAAAP/LAAIAwBprrDTmmpnXZKPBG5VOAQAAgCQGEAAAOsiAlgG5adebMqx1WOkUAAAAMIAAANBxxvUfl+t3uT4tDS2lUwAAAOjhDCAAAHSo7UZsl0u3vbR0BgAAAD2cAQQAgA530KSDctzU40pnAAAA0IMZQAAA6BRf2uJL2Xvs3qUzAAAA6KEMIP+PvTt/t7ou9z9+rz3AZpRJQAVBnHHGIUcUkY110g2omJqzVtpgk8fMNOfMRk6maeaMODBtrM5XEDWyskyyLM0ytRxzJJVB2Oz9/aXrXJ2OE7g/+17D4/EXPH983+u1rrUAAChEXakubhh3Q2wzYJvsFAAAAGqQAQQAgML0aewTrc2tMbjH4OwUAAAAaowBBACAQo3sMzJm7Tcrutd3z04BAACghhhAAAAo3B5D94jv7fm97AwAAABqiAEEAIAucfRmR8ep252anQEAAECNMIAAANBlvrLzV6JlZEt2BgAAADXAAAIAQJepK9XF9ftcH9sO2DY7BQAAgCpnAAEAoEv1buwdrRNbY0iPIdkpAAAAVDEDCAAAXW5E7xExa8Ks6F7fPTsFAACAKmUAAQAgxe5Ddo9r97k2SlHKTgEAAKAKGUAAAEgzddTU+ML2X8jOAAAAoAoZQAAASHX+zufH1FFTszMAAACoMgYQAABSlaIUV+99dey87s7ZKQAAAFQRAwgAAOl6NPSIOc1zYoNeG2SnAAAAUCUMIAAAlIX1e64fc5vnRs+GntkpAAAAVAEDCAAAZWPHQTvG1XtfHaUoZacAAABQ4QwgAACUlUNGHRJfGvOl7AwAAAAqnAEEAICyc/aOZ8eHNv5QdgYAAAAVzAACAEDZKUUpfjD2B7HL4F2yUwAAAKhQBhAAAMpSj4YeMWfCnBjWa1h2CgAAABXIAAIAQNlar+d6Mbd5bvRq6JWdAgAAQIUxgAAAUNbGDBoT1+xzTZSilJ0CAABABTGAAABQ9g7a6KA4a8xZ2RkAAABUEAMIAAAV4awdz4rDNzk8OwMAAIAKYQABAKAilKIUV469MnYdvGt2CgAAABXAAAIAQMVoqm+K2RNmx/Dew7NTAAAAKHMGEAAAKsrQnkOjtbk1ejX0yk4BAACgjBlAAACoONsP3D6uG3dd1JU8ZwEAAHhzLkYAACrS5JGT45wdz8nOAAAAoEwZQAAAqFhf3OGL8eFNP5ydAQAAQBkygAAAULFKUYor9roidhuyW3YKAAAAZcYAAgBARWuqb4rZE2bHhr03zE4BAACgjBhAAACoeEN6DIkf7//j6Nutb3YKAAAAZcIAAgBAVRjdf3TM2HdG1Jfqs1MAAAAoAwYQAACqxvuHvz/O3+n87AwAAADKgAEEAICqctr2p8UJW5yQnQEAAEAyAwgAAFXnu7m/AYEAACAASURBVHt8N/Zeb+/sDAAAABIZQAAAqDqNdY0xc7+ZsXHfjbNTAAAASGIAAQCgKg1sGhitza2xTrd1slMAAABIYAABAKBqje4/OmbsOyPqS/XZKQAAAHQxAwgAAFVt/+H7x1d2+Up2BgAAAF3MAAIAQNX7/Lafj49s+ZHsDAAAALqQAQQAgJrwX7v/V4xdb2x2BgAAAF3EAAIAQE3oVtctZu03Kzbpu0l2CgAAAF3AAAIAQM0Y2DQw5k2cF/269ctOAQAAoGAGEAAAasoW/baIGeNnRENdQ3YKAAAABTKAAABQcyYOmxgX73JxdgYAAAAFMoAAAFCTPr3Np+Njoz+WnQEAAEBBDCAAANSsabtNi/EbjM/OAAAAoAAGEAAAalZjXWPcPP7m2HSdTbNTAAAA6GQGEAAAatqA7gNiXvO86N+9f3YKAAAAncgAAgBAzdu83+Zx0743RUNdQ3YKAAAAncQAAgAAETFh2IT45q7fzM4AAACgkxhAAADgnz6x1Sfi5NEnZ2cAAADQCQwgAADwL6btPi0+sOEHsjMAAAB4jwwgAADwL+pL9XHjuBtjq/5bZacAAADwHhhAAADg3/Tt1jdam1tjUNOg7BQAAADWkgEEAADexKi+o2LmfjOjW1237BQAAADWggEEAADewtj1xsale16anQEAAMBaMIAAAMDbOG7z4+JTW38qOwMAAIA1ZAABAIB38I1dvxEf3PCD2RkAAACsAQMIAAC8g/pSfUzfd3psPWDr7BQAAADeJQMIAAC8C30a+0Rrc2us27RudgoAAADvggEEAADepY36bBSzJsyK7vXds1MAAAB4BwYQAABYA3sO3TMu2/Oy7AwAAADegQEEAADW0DGbHROf3faz2RkAAAC8DQMIAACshYt3uTgOGHFAdgYAAABvwQACAABroa5UFzeMuyG2GbBNdgoAAABvwgACAABrqU9jn2htbo3BPQZnpwAAAPBvDCAAAPAejOwzMmbtNyu613fPTgEAAOBfGEAAAOA92mPoHnH5npdnZwAAAPAvDCAAANAJjtrsqPjP7f4zOwMAAIB/MoAAAEAnuXDnC6NlZEt2BgAAAGEAAQCATlNXqovr97k+thu4XXYKAABAzTOAAABAJ+rd2DvmNs+NIT2GZKcAAADUNAMIAAB0shG9R8RtE2+LHg09slMAAABqlgEEAAAKsNO6O8XVe18dpShlpwAAANQkAwgAABRk6qipcfoOp2dnAAAA1CQDCAAAFOi8nc6LQzc+NDsDAACg5hhAAACgQKUoxVVjr4qd1905OwUAAKCmGEAAAKBgPRp6xJzmObFBrw2yUwAAAGqGAQQAALrA+j3Xj7nNc6NnQ8/sFAAAgJpgAAEAgC6y46Ad45q9r4lSlLJTAAAAqp4BBAAAutDBow6OM8ecmZ0BAABQ9QwgAADQxb6845fjsE0Oy84AAACoagYQAADoYqUoxZV7XRm7DN4lOwUAAKBqGUAAACBBj4YeMWfCnBjWa1h2CgAAQFUygAAAQJL1eq4Xrc2t0auhV3YKAABA1TGAAABAoh0G7RDX7nNt1JU8zQEAADqTKwsAAJJN2WhKnDXmrOwMAACAqmIAAQCAMnDmmDPjiE2OyM4AAACoGgYQAAAoA6UoxffHfj92HbxrdgoAAEBVMIAAAECZaKpvitkTZsfw3sOzUwAAACqeAQQAAMrI0J5Do7W5NXo19MpOAQAAqGgGEAAAKDPbD9w+rht3XdSVPNcBAADWlosKAADK0OSRk+OcHc/JzgAAAKhYBhAAAChTX9zhi/HhTT+cnQEAAFCRDCAAAFCmSlGKK/a6InYbslt2CgAAQMUxgAAAQBlrqm+K1ubWGNV3VHYKAABARTGAAABAmRvUNCjmNc+Lvt36ZqcAAABUDAMIAABUgNH9R8eMfWdEfak+OwUAAKAiGEAAAKBCvH/4++P8nc7PzgAAAKgIBhAAAKggp21/Wpy4xYnZGQAAAGXPAAIAABXmkj0uiX3W3yc7AwAAoKwZQAAAoMI01jXGreNvjY37bpydAgAAULYMIAAAUIEGNg2MeRPnxTrd1slOAQAAKEsGEAAAqFBb9tsyZuw7I+pL9dkpAAAAZccAAgAAFWz/4fvHRbtclJ0BAABQdgwgAABQ4T637efi+C2Oz84AAAAoKwYQAACoApfucWmMW39cdgYAAEDZMIAAAEAVaKxrjFvG3xKb9N0kOwUAAKAsGEAAAKBKDGwaGK0TW2OdbutkpwAAAKQzgAAAQBXZst+WMWPfGVFfqs9OAQAASGUAAQCAKrP/8P3jwp0vzM4AAABIZQABAIAqdOp2p8aJW5yYnQEAAJDGAAIAAFXqkj0uib3X2zs7AwAAIIUBBAAAqlRjXWPM3G9mbNx34+wUAACALmcAAQCAKjawaWC0NrdG3259s1MAAAC6lAEEAACq3Oj+o2PGvjOivlSfnQIAANBlDCAAAFAD3j/8/XHeTudlZwAAAHQZAwgAANSIL2z/hTh+i+OzMwAAALqEAQQAAGrId3b/Tuw2ZLfsDAAAgMIZQAAAoIY01TfF7AmzY8PeG2anAAAAFMoAAgAANWZIjyExt3lu9GrolZ0CAABQGAMIAADUoO0Hbh/Xjbsu6kpOAgAAoDq5dgAAoEZNHjk5zh5zdnYGAABAIQwgAABQw84Yc0YcsckR2RkAAACdzgACAAA1rBSl+P7Y78eug3fNTgEAAOhUBhAAAKhxTfVNMXvC7Bjee3h2CgAAQKcxgAAAADG059CYO2Fu9GrolZ0CAADQKQwgAABARETsMGiHuHafa6MUpewUAACA98wAAgAA/I8pG02Js8aclZ0BAADwnhlAAACA/+WsHc+KwzY5LDsDAADgPTGAAAAA/0spSnHlXlfGLoN3yU4BAABYawYQAADg/+jR0CPmTJgTw3oNy04BAABYKwYQAADgTa3Xc72Y2zw3ejb0zE4BAABYYwYQAADgLY0ZNCau2fuaKEUpOwUAAGCNGEAAAIC3dfCog+OMMWdkZwAAAKwRAwgAAPCOztnxnDh040OzMwAAAN41AwgA0KnuePqO7ASgAKUoxZVjr4wdBu2QnQIAAPCuGEAAgE419Y6psfDphdkZQAF6NfSKuRPmxtCeQ7NTAAAA3pEBBADoVCtWr4hD7jgkHl7ycHYKUIDhvYfH7Amzo6m+KTsFAADgbRlAAIBOt2Tlkjjm7mOivaM9OwUowK6Dd41r97k2SlHKTgEAAHhLBhAAoBD3vXBf/OLvv8jOAApyyKhD4gvbfyE7AwAA4C0ZQACAwtz4lxuzE4ACnbfTedEysiU7AwAA4E0ZQACAwlz20GVxxcNXZGcABakr1cX1+1wf2w3cLjsFAADg/zCAAACF+tTPPxWLnl2UnQEUpHdj75jbPDcG9xicnQIAAPC/GEAAgEKtbF8ZB91xUDz66qPZKUBBRvQeEbMnzI7u9d2zUwAAAP6HAQQAKNxLK16KlttbYsnKJdkpQEF2H7J7XL7n5dkZAAAA/8MAAgB0iYeXPByHLTws2trbslOAghy12VFx6nanZmcAAABEhAEEAOhCtz91e5z2q9OyM4ACfWXnr8SBIw7MzgAAADCAAABd61sPfisuf9jP5EC1qivVxfXjro9tBmyTnQIAANQ4AwgA0OU+9fNPxZ3P3JmdARSkT2OfaG1ujcE9BmenAAAANcwAAgB0uVXtq2LqHVPj0VcfzU4BCjKyz8iYtd+s6F7fPTsFAACoUQYQACDFy2+8HAfefmAsWbkkOwUoyB5D94jL9rwsOwMAAKhRBhAAIM0fl/wxPrTwQ9HW3padAhTkmM2Oic9s85nsDAAAoAYZQACAVPOfmh+n/vLU7AygQF9739figxt+MDsDAACoMQYQACDdtN9Pi+899L3sDKAgdaW6mL7v9Nh6wNbZKQAAQA0xgAAAZeGUX5wSC59emJ0BFKRPY59obW6NdZvWzU4BAABqhAEEACgLq9pXxaELD40//+PP2SlAQTbqs1HMnDAzutV1y04BAABqgAEEACgbL7/xchw4/8BYsnJJdgpQkL2G7hWX7XlZdgYAAFADDCAAQFl5ZMkjcejCQ6OtvS07BSjIsZsfG5/c+pPZGQAAQJUzgAAAZWfBUwvic7/8XHYGUKBv7vrN+I8N/yM7AwAAqGIGEACgLH3n99+Jyx7yMzlQrepL9TF93PTYqv9W2SkAAECVMoAAAGXrlF+cEgufXpidARSkb7e+MW/ivBjUNCg7BQAAqEIGEACgbLW1t8XUhVPjT//4U3YKUJCN+mwUM/ebGd3qumWnAAAAVcYAAgCUtVfeeCVa5rfEK2+8kp0CFGTsemPju3t8NzsDAACoMgYQAKDsPbLkkfjQnR+Ktva27BSgIMdvcXycPPrk7AwAAKCKGEAAgIqw4KkFcdLPTsrOAAr07d2+HeM3GJ+dAQAAVAkDCABQMX7wxx/EpQ9dmp0BFKShriFuGX9LbLbOZtkpAABAFTCAAAAV5ZSfnxI//tuPszOAgvTv3j9am1ujf/f+2SkAAECFM4AAABVldcfqOPyuw+MPr/whOwUoyOb9No+b9r0pGuoaslMAAIAKZgABACrOqytfjZb5LfHiihezU4CCTBg2Ib7+vq9nZwAAABXMAAIAVKTHXn0sDr7j4FjZvjI7BSjIp7b+VHxs9MeyMwAAgAplAAEAKtaiZxfFp3/x6ewMoEDTdpsW+6y/T3YGAABQgQwgAEBF+95D34tL/nBJdgZQkMa6xpi538zYdJ1Ns1MAAIAKYwABACreZ37xmfjR336UnQEUZED3ATGveV7069YvOwUAAKggBhAAoOKt7lgdR9x1RPzhlT9kpwAF2bzf5nHz+Jujoa4hOwUAAKgQBhAAoCq8uvLVOPD2A+OFFS9kpwAFmTBsQnxz129mZwAAABXCAAIAVI3HX3s8Dl5wcKxsX5mdAhTkE1t9Ik4efXJ2BgAAUAEMIABAVfnpcz+Nk+/x4ShUs2m7T4sPbPiB7AwAAKDMGUAAgKpz1SNXxbTfT8vOAApSX6qPG8fdGFv13yo7BQAAKGMGEACgKn3+3s/HD//2w+wMoCB9u/WN1ubWGNQ0KDsFAAAoUwYQAKAqre5YHUfceUT8/uXfZ6cABRnVd1TMmjArutV1y04BAADKkAEEAKhar616LVrmt8QLK17ITgEKstfQveLSPS/NzgAAAMqQAQQAqGqPv/Z4HLTgoFjZvjI7BSjIcZsfF6dsfUp2BgAAUGYMIABA1bvnuXvipHtOys4ACvT1Xb8eH9zwg9kZAABAGTGAAAA14epHro5vPfit7AygIPWl+pi+7/TYZsA22SkAAECZMIAAADXj1F+eGj/82w+zM4CC9GnsE63NrTG4x+DsFAAAoAwYQACAmtHe0R5H3HlEPPjyg9kpQEFG9hkZM/ebGd3ru2enAAAAyQwgAEBNeW3Va9EyvyWeX/58dgpQkD2H7hnf2/N72RkAAEAyAwgAUHOeeO2JOPiOg+ON1W9kpwAFOXqzo+PU7U7NzgAAABIZQACAmnTPc/fESfeclJ0BFOgrO38lWka2ZGcAAABJDCAAQM265k/XxDd+943sDKAgdaW6uH6f62PbAdtmpwAAAAkMIABATTvtV6fFvL/Oy84ACtK7sXe0TmyNIT2GZKcAAABdzAACANS09o72OPKuI+PBlx/MTgEKMqL3iLht4m3Ro6FHdgoAANCFDCAAQM17bdVr0TK/JZ5f/nx2ClCQndbdKa7e++ooRSk7BQAA6CIGEACAiHjitSfioDsOijdWv5GdAhRk6qipcfoOp2dnAAAAXcQAAgDwTz977mfx0Xs+mp0BFOi8nc6LQzc+NDsDAADoAgYQAIB/cd2frouv/fZr2RlAQUpRiqvGXhU7r7tzdgoAAFAwAwgAwL85/b7To/WJ1uwMoCA9GnrEnOY5MazXsOwUAACgQAYQAIB/097RHkfefWT87uXfZacABVm/5/oxt3lu9GzomZ0CAAAUxAACAPAmXl/1erTc3hJ/X/737BSgIGMGjYlr97k2SlHKTgEAAApgAAEAeAt/ff2vcdCCg+KN1W9kpwAFOWijg+KsMWdlZwAAAAUwgAAAvI2f//3n8ZGffiQ7AyjQWTueFYdvcnh2BgAA0MkMIAAA7+D6P18fX33gq9kZQEFKUYorx14Zuw7eNTsFAADoRAYQAIB34YxfnxGtT7RmZwAFaapvitkTZsfw3sOzUwAAgE5iAAEAeBfaO9rjyLuPjN++9NvsFKAgQ3sOjdbm1ujV0Cs7BQAA6AQGEACAd+n1Va/HpPmT4u/L/56dAhRk+4Hbx3Xjrou6klMJAAAqnVc9AMAa+Ovrf40Dbj8glrctz04BCjJ55OQ4d8dzszMAAID3yAACALCGfv3Cr+PYnxwbHdGRnQIU5Is7fDGO3PTI7AwAAOA9MIAAAKyFWx67JS564KLsDKBA3x/7/dh7vb2zMwAAgLVkAAEAWEtfuu9Lcctjt2RnAAXpVtctbt3v1hjVd1R2CgAAsBYMIAAAa6kjOuLYnxwb971wX3YKUJBBTYNiXvO8WKfbOtkpAADAGjKAAAC8B8vblsfk+ZPj6aVPZ6cABRndf3TcuO+NUV+qz04BAADWgAEEAOA9embZMzFp/qRY1rYsOwUoyPuHvz8u3PnC7AwAAGANGEAAADrB/S/eH8f+5NjoiI7sFKAgp253anxky49kZwAAAO+SAQQAoJPc+titceFvfEMcqtl3dv9OjFt/XHYGAADwLhhAAAA60Vm/Pitu/svN2RlAQRrrGuOW8bfEJn03yU4BAADegQEEAKATdURHHLfouLjvhfuyU4CCDGwaGPMmzot+3fplpwAAAG/DAAIA0MmWty2PyfMnx9NLn85OAQqyRb8tYsb4GdFQ15CdAgAAvAUDCABAAZ5Z9kxMmj8plrUty04BCjJx2MT42vu+lp0BAAC8BQMIAEBB7n/x/jjmJ8dER3RkpwAFOWXrU+Kk0SdlZwAAAG/CAAIAUKCZj82M8xefn50BFOjbu307xm8wPjsDAAD4NwYQAICCnX3/2XHTX27KzgAK0ljXGDePvzk2W2ez7BQAAOBfGEAAAArWER1x/KLj41fP/yo7BSjIgO4DorW5Nfp375+dAgAA/JMBBACgCyxvWx6TF0yOp5Y+lZ0CFGTzfpvHnAlzoltdt+wUAAAgDCAAAF3m2WXPxqT5k2JZ27LsFKAgY9cbG9/d47vZGQAAQBhAAAC61OIXF8fRdx8dHdGRnQIU5Pgtjo9PbPWJ7AwAAKh5BhAAgC426/FZce7952ZnAAX61m7fiv/Y8D+yMwAAoKYZQAAAEpy7+NyY8eiM7AygIPWl+pg+bnpsPWDr7BQAAKhZBhAAgAQd0REn/PSE+OXzv8xOAQrSt1vfaG1ujXWb1s1OAQCAmmQAAQBIsrxteUxZMCWefP3J7BSgIBv12ShmTpgZ3eu7Z6cAAEDNMYAAACR6dtmzMWnBpFjatjQ7BSjIXkP3isv2vCw7AwAAao4BBAAg2W9e/E0cfffR0d7Rnp0CFOSYzY6Jz2772ewMAACoKQYQAIAyMPvx2XHu4nOzM4ACXbzLxXHAiAOyMwAAoGYYQAAAysR5i8+LGx+9MTsDKEhdqS5uGHdDbDtg2+wUAACoCQYQAIAy0REdccKiE+Le5+/NTgEK0qexT7RObI3BPQZnpwAAQNUzgAAAlJEVq1fElAVT4snXn8xOAQoyoveImD1hdnSv756dAgAAVc0AAgBQZp5b9ly0zG+JpW1Ls1OAguw+ZPe4fM/LszMAAKCqGUAAAMrQAy89EEfffXS0d7RnpwAFOWqzo+K07U/LzgAAgKplAAEAKFOzH58dZy8+OzsDKNAFO10Qk0ZOys4AAICqZAABAChjFyy+IKY/Oj07AyhIXakupo+bHjutu1N2CgAAVB0DCABAGeuIjjhx0Ylx7/P3ZqcABenR0CNm7TcrhvYcmp0CAABVxQACAFDmVqxeEVMWTIm/vf637BSgIMN7D4/bJt4WPRt6ZqcAAEDVMIAAAFSA55Y9F5PmT4qlbUuzU4CC7Dhox7hm72uiFKXsFAAAqAoGEACACvHASw/EUXcdFe0d7dkpQEEOHnVwnDnmzOwMAACoCgYQAIAKMueJOXHW/WdlZwAF+vKOX47DNzk8OwMAACqeAQQAoMJc+JsL4/o/X5+dARSkFKW4cuyVsevgXbNTAACgohlAAAAq0ImLToxFzy7KzgAK0lTfFLMnzI7hvYdnpwAAQMUygAAAVKCV7Svj4DsOjsdefSw7BSjI0J5Do7W5NXo39s5OAQCAimQAAQCoUC+ueDEOnH9gvLry1ewUoCDbD9w+btr3pqgv1WenAABAxTGAAABUsIdeeSgOu/OwWN2xOjsFKMgHNvxAnL/T+dkZAABQcQwgAAAV7r+f/O8489dnZmcABTpt+9PixC1OzM4AAICKYgABAKgCFz1wUVz5xyuzM4ACXbLHJTFu/XHZGQAAUDEMIAAAVeLjP/t4/OTZn2RnAAVprGuMW8bfEpv03SQ7BQAAKoIBBACgSqxqXxWH3HFI/OXVv2SnAAUZ2DQw5k2cF/269ctOAQCAsmcAAQCoIi+ueDFa5rfEP1b+IzsFKMgW/baIm8bfFA11DdkpAABQ1gwgAABV5qFXHorD7zw8Vneszk4BCtI8rDm+8b5vZGcAAEBZM4AAAFSh/37yv+OM+87IzgAK9MmtPxknjz45OwMAAMqWAQQAoEpd/NuL4/t//H52BlCgabtPiw9s+IHsDAAAKEsGEACAKvaJn30i7n7m7uwMoCD1pfq4cdyNsVX/rbJTAACg7BhAAACq2Kr2VXHIwkPiL6/+JTsFKEjfbn1j3sR5sW7TutkpAABQVgwgAABV7qUVL8WBtx8Y/1j5j+wUoCAb9dkoZk6YGd3qumWnAABA2TCAAADUgIeXPByH3XlYrO5YnZ0CFGSvoXvFZXtelp0BAABlwwACAFAj/t+T/y++8KsvZGcABTp282Pjs9t+NjsDAADKggEEAKCGfON334grHr4iOwMo0MW7XBwHjjgwOwMAANIZQAAAaswnf/7JuOuZu7IzgILUlerihnE3xLYDts1OAQCAVAYQAIAas6p9VUxdODUeffXR7BSgIL0be0frxNYY0mNIdgoAAKQxgAAA1KCXVrwULbe3xJKVS7JTgIKM6D0ibpt4W/Rs6JmdAgAAKQwgAAA16uElD8dhCw+Ltva27BSgIDutu1NcvffVUYpSdgoAAHQ5AwgAQA27/anb47RfnZadARTokFGHxBljzsjOAACALmcAAQCocd968Ftx+cOXZ2cABTpnx3PisE0Oy84AAIAuZQABACA+9fNPxZ3P3JmdARSkFKW4cq8r432D35edAgAAXcYAAgBArGpfFVPvmBqPvvpodgpQkB4NPWL2hNkxvPfw7BQAAOgSBhAAACIi4uU3Xo4Dbz8wlqxckp0CFGS9nuvF3Alzo1dDr+wUAAAonAEEAID/8cclf4wPLfxQtLW3ZacABdlh0A5x3bjroq7kHAQAoLp58QIA8L/Mf2p+nPrLU7MzgAJNHjk5ztvpvOwMAAAolAEEAID/Y9rvp8X3HvpedgZQoNO3Pz1O2OKE7AwAACiMAQQAgDd1yi9OiYVPL8zOAAr03T2+G3uvt3d2BgAAFMIAAgDAm1rVvioOXXho/Pkff85OAQrSWNcYM/ebGRv33Tg7BQAAOp0BBACAt/TyGy/HgfMPjCUrl2SnAAUZ2DQw5k2cF+t0Wyc7BQAAOpUBBACAt/XIkkfi0IWHRlt7W3YKUJAt+20ZN42/KRrqGrJTAACg0xhAAAB4RwueWhCf++XnsjOAAk0cNjEu3uXi7AwAAOg0BhAAAN6V7/z+O3HZQ5dlZwAF+vQ2n46TRp+UnQEAAJ3CAAIAwLt2yi9OiYVPL8zOAAr07d2+HeM3GJ+dAQAA75kBBACAd62tvS2mLpwaf/rHn7JTgII01jXGLeNvic3W2Sw7BQAA3hMDCAAAa+SVN16Jlvkt8cobr2SnAAXp371//Hj/H8egpkHZKQAAsNYMIAAArLFHljwSH7rzQ9HW3padAhRkVN9RMXO/mdGtrlt2CgAArBUDCAAAa2XBUwvipJ/5s2SoZmPXGxuX7nlpdgYAAKwVAwgAAGvtB3/8QVz6kA9HoZodt/lx8eltPp2dAQAAa8wAAgDAe3LKz0+JH//tx9kZQIG+/r6vxwEjDsjOAACANWIAAQDgPVndsToOv+vw+MMrf8hOAQpSV6qLG8bdENsO2DY7BQAA3jUDCAAA79mrK1+Nlvkt8eKKF7NTgIL0aewTrRNbY0iPIdkpAADwrhhAAADoFI+9+lgcfMfBsbJ9ZXYKUJARvUfErAmzont99+wUAAB4RwYQAAA6zaJnF8XHf/bx7AygQLsP2T2u3efaKEUpOwUAAN6WAQQAgE71gz/+IC75wyXZGUCBpo6aGl/Y/gvZGQAA8LYMIAAAdLrP/OIz8aO//Sg7AyjQ+TufH4dufGh2BgAAvCUDCAAAnW51x+o44q4j4g+v/CE7BShIKUpx1dirYpfBu2SnAADAmzKAAABQiFdXvhoH3n5gvLDihewUoCA9GnrEnAlzYlivYdkpAADwfxhAAAAozOOvPR4HLzg4VravzE4BCrJez/VibvPc6NXQKzsFAAD+FwMIAACF+ulzP42T7zk5OwMo0JhBY+Lafa6NupITEwCA8uF1CgBA4a565KqY9vtp2RlAgaZsNCXOHnN2dgYAAPwPAwgAAF3i8/d+Pn74tx9mZwAFOmPMGfHhTT+cnQEAABFhAAEAoIus7lgdR9x5RPz+5d9npwAFKUUprtjrithtyG7ZKQAAYAABAKDrvLbqtWiZ3xIvrHghOwUoSFN9U7Q2t8bGfTfOTgEAoMYZQAAA6FKPv/Z4HLTgoFjZpbuoawAAIABJREFUvjI7BSjIoKZB0drcGut0Wyc7BQCAGmYAAQCgy93z3D1x0j0nZWcABRrdf3TM2HdG1Jfqs1MAAKhRBhAAAFJc/cjV8a0Hv5WdARRo/+H7x1d3+Wp2BgAANcoAAgBAmlN/eWr88G8/zM4ACvTZbT8bHxv9sewMAABqkAEEAIA07R3tccSdR8SDLz+YnQIUaNpu02L8BuOzMwAAqDEGEAAAUr226rVomd8Szy9/PjsFKEhjXWPcPP7m2GydzbJTAACoIQYQAADSPfHaEzF14dRY2b4yOwUoyIDuA6K1uTX6d++fnQIAQI0wgAAAUBYWPbsoPvZT/xMA1WzzfpvHTfveFA11DdkpAADUAAMIAABl45o/XRPf+N03sjOAAk0YNiEu2+Oy7AwAAGqAAQQAgLJy2q9Oi9v+elt2BlCg47c4Pj6+1cezMwAAqHIGEAAAykp7R3t8+K4Px4MvP5idAhTo27t9Oz6w4QeyMwAAqGIGEAAAys5rq16Llvkt8fzy57NTgILUl+rjxnE3xlb9t8pOAQCgShlAAAAoS0+89kQcdMdB8cbqN7JTgIL07dY35k2cF4OaBmWnAABQhQwgAACUrZ8997P46D0fzc4ACrRRn41i1oRZ0a2uW3YKAABVxgACAEBZu+5P18XXfvu17AygQHsN3Ssu3fPS7AwAAKqMAQQAgLJ3+n2nR+sTrdkZQIGO2/y4OGXrU7IzAACoIgYQAADKXntHexx595Hxu5d/l50CFOjru349PrjhB7MzAACoEgYQAAAqwuurXo+W21vi78v/np0CFKS+VB/T950eWw/YOjsFAIAqYAABAKBi/PX1v8ZBCw6KN1a/kZ0CFKRPY5+Y1zwv1m1aNzsFAIAKZwABAKCi/PzvP4+P/PQj2RlAgUb2GRmzJsyK7vXds1MAAKhgBhAAACrO9X++Pr76wFezM4AC7Tl0z7hsz8uyMwAAqGAGEAAAKtIZvz4jWp9ozc4ACnTMZsfE57b9XHYGAAAVygACAEBFau9ojyPvPjJ++9Jvs1OAAn11l6/GASMOyM4AAKACGUAAAKhYr696PSbNnxR/X/737BSgIHWlurhh3A2xzYBtslMAAKgwBhAAACraX1//axxw+wGxvG15dgpQkD6NfaK1uTUG9xicnQIAQAUxgAAAUPF+/cKv49ifHBsd0ZGdAhRkZJ+RMWu/WdG9vnt2CgAAFcIAAgBAVbjlsVviogcuys4ACrTH0D3i8j0vz84AAKBCGEAAAKgaX7rvS3HLY7dkZwAFOmqzo+I/t/vP7AwAACqAAQQAgKrRER1x7E+OjfteuC87BSjQhTtfGC0jW7IzAAAocwYQAACqyvK25TF5/uR4eunT2SlAQepKdXH9PtfHdgO3y04BAKCMGUAAAKg6zyx7JibNnxTL2pZlpwAF6d3YO+Y2z40hPYZkpwAAUKYMIAAAVKX7X7w/jv3JsdERHdkpQEFG9B4Rt028LXo09MhOAQCgDBlAAACoWrc+dmtc+JsLszOAAu207k5x9d5XRylK2SkAAJQZAwgAAFXtrF+fFTf/5ebsDKBAU0dNjdN3OD07AwCAMmMAAQCgqnVERxy36Li474X7slOAAp2303lx6MaHZmcAAFBGDCAAAFS95W3LY/L8yfH00qezU4CClKIUV429KnZed+fsFAAAyoQBBACAmvDMsmdi0vxJsaxtWXYKUJAeDT1iTvOc2KDXBtkpAACUAQMIAAA14/4X749jfnJMdERHdgpQkPV7rh9zm+dGz4ae2SkAACQzgAAAUFNmPjYzzl98fnYGUKAdB+0Y1+x9TZSilJ0CAEAiAwgAADXn7PvPjpv+clN2BlCgg0cdHGeOOTM7AwCARAYQAABqTkd0xPGLjo9fPf+r7BSgQF/e8ctx2CaHZWcAAJDEAAIAQE1a3rY8Ji+YHE8tfSo7BShIKUpx5V5Xxi6Dd8lOAQAggQEEAICa9eyyZ2PS/EmxrG1ZdgpQkB4NPWLOhDkxrNew7BQAALqYAQQAgJq2+MXFcfTdR0dHdGSnAAVZr+d60drcGr0aemWnAADQhQwgAADUvFmPz4pz7z83OwMo0A6Ddohr97k26krOYACAWuHlBwAAEXHu4nNjxqMzsjOAAk3ZaEqcNeas7AwAALqIAQQAACKiIzrihJ+eEL98/pfZKUCBzhxzZhy+yeHZGQAAdAEDCAAA/NPytuUxZcGUePL1J7NTgIKUohRXjr0ydh28a3YKAAAFM4AAAMC/eHbZszFpwaRY2rY0OwUoSFN9U8yeMDuG9x6enQIAQIEMIAAA8G9+8+Jv4ui7j472jvbsFKAgQ3sOjdbm1ujV0Cs7BQCAghhAAADgTcx+fHacu/jc7AygQNsP3D6uG3dd1JWcxgAA1cgrDwAA3sJ5i8+LGx+9MTsDKNDkkZPjnB3Pyc4AAKAABhAAAHgLHdERJyw6Ie59/t7sFKBAX9zhi/HhTT+cnQEAQCczgAAAwNtYsXpFTFkwJZ58/cnsFKAgpSjFFXtdEbsN2S07BQCATmQAAQCAd/Dcsudi8oLJsbRtaXYKUJCm+qaYPWF2jOg9IjsFAIBOYgABAIB3YfGLi+Pou4+O9o727BSgIEN6DIkf7f+j6Nutb3YKAACdwAACAADv0uzHZ8c5i/1ZMlSz0f1Hx4x9Z0R9qT47BQCA98gAAgAAa+D8xefH9EenZ2cABXr/8PfH+Tudn50BAMB7ZAABAIA10BEdceKiE+Pe5+/NTgEKdNr2p8WJW5yYnQEAwHtgAAEAgDW0YvWKmLJgSjz5+pPZKUCBLtnjkthn/X2yMwAAWEsGEAAAWAvPLXsuWua3xNK2pdkpQEEa6xrj1vG3xsZ9N85OAQBgLRhAAABgLT3w0gNx9N1HR3tHe3YKUJCBTQNj3sR5sU63dbJTAABYQwYQAAB4D2Y/PjvOXnx2dgZQoC37bRkz9p0R9aX67BQAANaAAQQAAN6jCxZfENMfnZ6dARRo/+H7x0W7XJSdAQDAGjCAAADAe9QRHXHiohPj3ufvzU4BCvS5bT8XH93yo9kZAAC8SwYQAADoBCtWr4gpC6bEk68/mZ0CFOi/dv+vGLf+uOwMAADeBQMIAAB0kueWPRct81tiadvS7BSgII11jXHrfrfGJn03yU4BAOAdGEAAAKATPfDSA3HUXUdFe0d7dgpQkAHdB8S8ifOiX7d+2SkAALwNAwgAAHSyOU/MibMXn52dARRoi35bxE3jb4qGuobsFAAA3oIBBAAACnDB4gti+qPTszOAAjUPa46Ld7k4OwMAgLdgAAEAgAJ0REecuOjEuPf5e7NTgAJ9eptPx8dGfyw7AwCAN2EAAQCAgqxYvSKmLJgST77+ZHYKUKBpu02L8RuMz84AAODfGEAAAKBAzy17Llrmt8TStqXZKUBBGusa4+bxN8em62yanQIAwL8wgAAAQMEeeOmBOOquo6K9oz07BSjIgO4DYl7zvOjfvX92CgAA/2QAAQCALjDniTlx9uKzszOAAm3eb/O4ad+boqGuITsFAIAwgAAAQJe5YPEFMf3R6dkZQIEmDJsQ39z1m9kZAACEAQQAALpMR3TEiYtOjHufvzc7BSjQJ7b6RJw0+qTsDACAmmcAAQCALrRi9YqYsmBKPPn6k9kpQIGm7TYtxm8wPjsDAKCmGUAAAKCLPbfsuWiZ3xJL25ZmpwAFaahriJvH3xybrrNpdgoAQM0ygAAAQIIHXnogjrrrqGjvaM9OAQoyoPuAmNc8L/p165edAgBQkwwgAACQZM4Tc+LsxWdnZwAF2rzf5nHT+Juioa4hOwUAoOYYQAAAINEFiy+I6Y9Oz84ACtQ8rDku2vmi7AwAgJpjAAEAgEQd0REnLjox7n3+3uwUoECf3faz8ZEtP5Kd8f/Zu/M/r+t6//+PAfclK8vS1Mw62bHOaT12jnXK3HJJBhEXwDAzKTGTMks9Rz1lqS1maouomBaBaaFYgAwMKMimgqBssg0MINsAwyzM+n6/Pz98+3Y5nURZ5j3P93K9/gW3X7hc3sP99Xw+AQDKigEEAAASa820Rp8JfWJ10+rUKUAe3XPiPXHSESelzgAAKBsGEAAAKADrt6+PyqrKaO5sTp0C5MnePfaOx055LN77pvemTgEAKAsGEAAAKBBzN8+NgZMHRjaXTZ0C5Mmh+x0ao08fHYfsc0jqFACAkmcAAQCAAvL4ysfj5tk3p84A8uj4txwfI04eET0reqZOAQAoaQYQAAAoMLe+eGv8ftnvU2cAeXTmUWfGLZ+4JXUGAEBJM4AAAECByUUuLp9yeczcODN1CpBH133kurjsA5elzgAAKFkGEAAAKECtmdboM6FPrG5anToFyKN7Trwn/v2wf0+dAQBQkgwgAABQoNZvXx+VVZXR3NmcOgXIk/167hejThsVRx10VOoUAICSYwABAIACNnfz3Bg4eWBkc9nUKUCevPOAd8bo00fHgXsdmDoFAKCkGEAAAKDAPb7y8bh59s2pM4A8+sihH4mHT3o4elT4Mx0AoKv4ZQUAAEXg1hdvjeFLh6fOAPKoz3v6xI0fvTF1BgBAyTCAAABAEchFLgZNHRQzN85MnQLk0U0fvyn6va9f6gwAgJJgAAEAgCLRmmmNPhP6xOqm1alTgDypiIp44D8fiBMOOyF1CgBA0TOAAABAEVm/fX1UVlVGc2dz6hQgT/bfa/94/LTH48gDj0ydAgBQ1AwgAABQZOZunhsDJw+MbC6bOgXIk8MPODyeOP2JOGCvA1KnAAAULQMIAAAUocdXPh43z745dQaQRx9728fiN5/9TVREReoUAICiZAABAIAideuLt8bwpcNTZwB5dP6x58f1H70+dQYAQFEygAAAQJHKRS4GTR0UMzfOTJ0C5NEtn7glLjj2gtQZAABFxwACAABFrDXTGn0m9InaptrUKUCeVERFPPCZB+LDh344dQoAQFExgAAAQJFbv3199K7qHc2dzalTgDw5aO+D4onTn4h37P+O1CkAAEXDAAIAACVg7ua5MXDywMjmsqlTgDx590Hvjj+d9qfYt+e+qVMAAIqCAQQAAErE4ysfj5tn35w6A8ijE99xYgz99NDUGQAARcEAAgAAJeTWF2+N4UuHp84A8mjg+wfGNf96TeoMAICCZwABAIASkotcDJo6KGZunJk6BcijH53wozjn3eekzgAAKGgGEAAAKDGtmdboM6FP1DbVpk4B8qRHRY8Y/rnh8aG3fih1CgBAwTKAAABACVq/fX30ruodzZ3NqVOAPDl474PjydOfjLfv9/bUKQAABckAAgAAJWru5rkxcPLAyOayqVOAPDnm4GPij6f9MfbpsU/qFACAgmMAAQCAEvb4ysfjptk3pc4A8ug/3/mfcfeJd6fOAAAoOAYQAAAocbe9eFsMXzo8dQaQR4P+eVBc+cErU2cAABQUAwgAAJS4XORi0NRBMWPDjNQpQB7d+e93xinvOiV1BgBAwTCAAABAGWjNtEafCX2itqk2dQqQJ3v12Cv+cMof4n1vel/qFACAgmAAAQCAMrGhZUP0ruodzZ3NqVOAPHnrvm+NJz//ZByyzyGpUwAAkjOAAABAGZm7eW4MnDwwsrls6hQgTz7w5g/EyJNHRs+KnqlTAACSMoAAAECZeXzl43HT7JtSZwB5dMZRZ8Qtn7gldQYAQFIGEAAAKEO3vXhbDF86PHUGkEfXfeS6GPC+AakzAACSMYAAAEAZykUuBk0dFDM2zEidAuTR/Z+5Pz552CdTZwAAJGEAAQCAMtWaaY0+E/pEbVNt6hQgT/bruV+MOm1UHHngkalTAAC6nQEEAADK2IaWDdG7qnc0dTSlTgHy5PADDo8nTn8iDtjrgNQpAADdygACAABlbu7muTHw6YGRzWVTpwB58rG3fSzu/fS9qTMAALqVAQQAAIgnVj4RN82+KXUGkEcX/9PF8Z0Pfyd1BgBAtzGAAAAAERFx24u3xfClw1NnAHl067/dGue8+5zUGQAA3cIAAgAARERELnIxaOqgmLFhRuoUIE96VPSI4Z8bHh9664dSpwAA5J0BBAAA+JvWTGv0mdAnaptqU6cAeXLw3gfH6NNHx9v2e1vqFACAvDKAAAAAf2dDy4aorKqMpo6m1ClAnrzn4PfEyJNHxl499kqdAgCQNwYQAADgH8zbPC8GPj0wsrls6hQgT0551ylxxyfvSJ0BAJA3BhAAAOA1PbHyibjxhRtTZwB5dNWHrorLP3B56gwAgLwwgAAAADt029zb4ndLf5c6A8ijX3zqF3HSESelzgAA6HIGEAAA4HVdPuXyeGbdM6kzgDzZu8fe8dgpj8Wxbzo2dQoAQJcygAAAAK+rPdse5088P5Y3LE+dAuTJofsdGn869U9x0N4HpU4BAOgyBhAAAOAN1bXWRWVVZWxr35Y6BciTDx/64fjtSb+NHhX+qwAAKA1+1QAAADtl4daF0X9S/8jkMqlTgDzpfUzvuPGjN6bOAADoEgYQAABgp41bPS6uf+761BlAHt308ZviovdelDoDAGCPGUAAAIBd8tOXfhr3LbovdQaQJxVREcM+Myw+8fZPpE4BANgjBhAAAGCXXTX9qpj86uTUGUCe7L/X/vHE6U/EEQcckToFAGC3GUAAAIBd1pHtiAuqL4hlDctSpwB5csQBR8Sjpz4a+/bcN3UKAMBuMYAAAAC7ZXPr5ug1vlfUt9enTgHy5MR3nBj3fvre1BkAALvFAAIAAOy2xfWL46Lqi6Iz25k6BciTS95/SQz5lyGpMwAAdpkBBAAA2CNVa6ri2lnXps4A8ugnn/xJnHX0WakzAAB2iQEEAADYY3fNvyt+vfDXqTOAPOlZ0TNGfG5EHP+W41OnAADsNAMIAADQJa6ecXVUr61OnQHkyZv2eVP86dQ/xZv3eXPqFACAnWIAAQAAukRntjMuqL4glmxbkjoFyJPj3nxcPHLKI9GzomfqFACAN2QAAQAAuszWtq1x1lNnRV1rXeoUIE9OP/L0uO2E21JnAAC8IQMIAADQpVY0rIh+k/pFR7YjdQqQJ9/+12/HJe+/JHUGAMDrMoAAAABdrnptdQyeNjh1BpBHQ/9zaHzm8M+kzgAA2CEDCAAAkBfDFg+Lu+ffnToDyJN9euwTj5z8SLxj/3ekTgEAeE0GEAAAIG+umXlN/KX2L6kzgDx55wHvjIdPejgqoiJ1CgDAPzCAAAAAeZPJZeKLk78YC7cuTJ0C5MnpR54e3/zXb6bOAAD4BwYQAAAgr7a1b4tzxp8Tm1o3pU4B8uS2f7stTnzHiakzAAD+jgEEAADIu5rGmjh/4vnRnm1PnQLkwd499o7fn/z7OHS/Q1OnAAD8jQEEAADoFlPWTYmvTf1a6gwgT9590LtjzOfHxIF7HZg6BQAgIgwgAABAN3poyUNxx0t3pM4A8uSEw06IkaeMjL167JU6BQAg/CIBAAC61XXPXRfHvfm4+MLRX0idAuTBF47+QrRl2lJnAAA4AQIAAHSvTC4T/Sf1j5e2vJQ6BciTfXvumzoBAMAAAgAAdL+mjqaoHF8ZG1o2pE4BAABKlAEEAABIYlXTqjhvwnmuygEAAPLCAAIAACQzfcP0uOTpSyIXudQpAABAiTGAAAAAST264tG4fe7tqTMAAIASYwABAACS++/n/zv+sPwPqTMAAIASYgABAACSy0Uuvjzly/H8pudTpwAAACXCAAIAABSEls6WOLfq3FjbvDZ1CgAAUAIMIAAAQMF4dfur0buqd2zv3J46BQAAKHIGEAAAoKDMrpsdX3rmS5GLXOoUAACgiBlAAACAgvPHFX+M78/+fuoMAACgiBlAAACAgvT9Od+PkctGps4AAACKlAEEAAAoSLnIxVemfiVmbZyVOgUAAChCBhAAAKBgtXS2xLkTzo3VTatTpwAAAEXGAAIAABS09dvXR+8JvaO5szl1CgAAUEQMIAAAQMF7se7FuOTpSyKby6ZOAQAAioQBBAAAKAqjakbFzbNvTp0BAAAUCQMIAABQNG598dYYvnR46gwAAKAIGEAAAICikYtcDJo6KGZsmJE6BQAAKHAGEAAAoKi0ZlqjsqoyVjSsSJ0CAAAUMAMIAABQdOpa66JXVa/Y1r4tdQoAAFCgDCAAAEBRWrh1YfSf1D8yuUzqFAAAoAAZQAAAgKI1bvW4uOH5G1JnAAAABcgAAgAAFLWfzPtJ3LfovtQZAABAgTGAAAAARe+q6VfF5Fcnp84AAAAKiAEEAAAoeh3Zjrig+oJY1rAsdQoAAFAgDCAAAEBJ2Ny6OXqN7xX17fWpUwAAgAJgAAEAAErG4vrF0a+6X3RmO1OnAAAAiRlAAACAkjJ+zfi4dta1qTMAAIDEDCAAAEDJuWv+XfHrhb9OnQEAACRkAAEAAErSkBlDonptdeoMAAAgEQMIAABQkjqyHXFh9YWxZNuS1CkAAEACBhAAAKBkbWnbEpVVlbG1bWvqFAAAoJsZQAAAgJL2Sv0rce6Ec6M92546BQAA6EYGEAAAoORNWTclrpx2ZeoMAACgGxlAAACAsjBs8bC4Z/49qTMAAIBuYgABAADKxrdmfivG1I5JnQEAAHQDAwgAAFA2MrlMDJg8IOZvmZ86BQAAyDMDCAAAUFYa2huisqoyNrVuSp0CAADkkQEEAAAoOzWNNXHehPOiLdOWOgUAAMgTAwgAAFCWnl3/bFzx7BWpMwAAgDwxgAAAAGXroSUPxc9e+lnqDAAAIA8MIAAAQFn7znPfiSdXPZk6AwAA6GIGEAAAoKxlc9n44uQvxktbXkqdAgAAdCEDCAAAUPYaOxqjcnxlbGjZkDoFAADoIgYQAACAiFjVtCrOm3BetGXaUqcAAABdwAACAADwV9M3TI9BUwelzgAAALqAAQQAAOB/+d3S38Xtc29PnQEAAOwhAwgAAMD/8d8v/Hc8vvLx1BkAAMAeMIAAAAD8H9lcNi6efHE8v+n51CkAAMBuMoAAAAC8hpbOlji36txY27w2dQoAALAbDCAAAAA78Or2V6N3Ve/Y3rk9dQoAALCLDCAAAACvY3bd7PjSM1+KXORSpwAAALvAAAIAAPAG/rjij3HLnFtSZwAAALvAAAIAALATvjf7ezFy2cjUGQAAwE4ygAAAAOyEXOTiK1O/ErM2zkqdAgAA7AQDCAAAwE5q6WyJPhP6xOqm1alTAACAN2AAAQAA2AXrtq+L3hN6R3Nnc+oUAADgdRhAAAAAdtGLdS/GJU9fEtlcNnUKAACwAwYQAACA3TCqZlT8z5z/SZ0BAADsgAEEAABgN/1wzg9j+NLhqTMAAIDXYAABAADYTbnIxaCpg2LGhhmpUwAAgP/DAAIAALAHWjOt0WdCn6htqk2dAgAA/C8GEAAAgD20oWVDnPXUWdHQ3pA6BQAA+CsDCAAAQBdYuHVh9JvULzK5TOoUAAAgDCAAAABdZtzqcfFfz/9X6gwAACAMIAAAAF3qx/N+HPcvvj91BgAAlD0DCAAAQBf7+rSvx9OvPp06AwAAypoBBAAAoIt1ZDvi/OrzY1nDstQpAABQtgwgAAAAebC5dXNUjq+M+vb61CkAAFCWDCAAAAB5sqh+UfSr7hed2c7UKQAAUHYMIAAAAHk0fs34+O5z302dAQAAZccAAgAAkGd3vnxn3Lvw3tQZAABQVgwgAAAA3eDqGVdH9drq1BkAAFA2DCAAAADdoCPbERdWXxhLty1NnQIAAGXBAAIAANBNtrRtiV5VvWJr29bUKQAAUPIMIAAAAN3olfpX4qJJF0VntjN1CgAAlDQDCAAAQDebsGZCXDHtitQZAABQ0gwgAAAACQxbPCx+ueCXqTMAAKBkGUAAAAASGTJjSIytHZs6AwAASpIBBAAAIJFMLhP9J/ePBVsXpE4BAICSYwABAABIqKG9IXqN7xWbWjelTgEAgJJiAAEAAEisprEm+k7oG+3Z9tQpAABQMgwgAAAABWDq+qlxxbNXpM4AAICSYQABAAAoEL955Tdx58t3ps4AAICSYAABAAAoINfOujb+vOrPqTMAAKDoGUAAAAAKSDaXjYsnXxwvb3k5dQoAABQ1AwgAAECBaexojMqqytjYsjF1CgAAFC0DCAAAQAFa2bgyzpt4XrRl2lKnAABAUTKAAAAAFKhp66fFV5/9auoMAAAoSgYQAACAAvbbJb+NH8/7ceoMAAAoOgYQAACAAnfD8zfE6JWjU2cAAEBRMYAAAAAUuGwuG198+osxb/O81CkAAFA0DCAAAABFoKmjKc5+6uxY27w2dQoAABQFAwgAAECReHX7q3HuhHNje+f21CkAAFDwDCAAAABF5IVNL8Slz1waucilTgEAgIJmAAEAACgyj614LH4454epMwAAoKAZQAAAAIrQzbNvjkeWP5I6AwAACpYBBAAAoAjlIheXTbksntv4XOoUAAAoSAYQAACAItXS2RLnTjg31jSvSZ0CAAAFxwACAABQxNZtXxe9q3pHc2dz6hQAACgoBhAAAIAiN6duTnzp6S9FNpdNnQIAAAXDAAIAAFAC/lTzp/j+nO+nzgAAgIJhAAEAACgRt8y5JX6/7PepMwAAoCAYQAAAAEpELnJx+ZTLY+bGmalTAAAgOQMIAABACWnNtEafCX2itqk2dQoAACRlAAEAACgx67evj95VvaOpoyl1CgAAJGMAAQAAKEFzN8+NiyZdFJlcJnUKAAAkYQABAAAoUWNrx8aNL9yYOgMAAJIwgAAAAJSw2+feHg8sfiB1BgAAdDsDCAAAQIm7ctqV8cy6Z1JnAABAtzKAAAAAlLiObEf0ndg3ljcsT50CAADdxgACAABQBja3bo7KqsrY1r4tdQoAAHQLAwgAAECZWLh1YfSb1C8yuUzqFAAAyDsDCAAAQBl5avVTcd1z16XOAACAvDOAAAAAlJk7Xrojhi4amjoDAADyygACAABQhr4x/Rsx6dVJqTMcjFTQAAAgAElEQVQAACBvDCAAAABlqCPbERdMvCCWbluaOgUAAPLCAAIAAFCmtrRticqqyqhvr0+dAgAAXc4AAgAAUMYW1y+Oi6ovis5sZ+oUAADoUgYQAACAMle1piqumXVN6gwAAOhSBhAAAADinvn3xK8W/ip1BgAAdBkDCAAAABERMWTGkJi4dmLqDAAA6BIGEAAAACIiojPbGRdWXxhLti1JnQIAAHvMAAIAAMDfbG3bGmc9dVbUtdalTgEAgD1iAAEAAODvrGhYEX0n9o32bHvqFAAA2G0GEAAAAP7BlHVT4sppV6bOAACA3WYAAQAA4DUNWzwsfrXwV6kzAABgtxhAAAAA2KGrp18dY2vHps4AAIBdZgABAABghzK5TPSf3D8Wbl2YOgUAAHaJAQQAAIDX1dDeEL2qekVda13qFAAA2GkGEAAAAN7QioYV0Xdi32jPtqdOAQCAnWIAAQAAYKdMWTclrpx2ZeoMAADYKQYQAAAAdtqwxcPilwt+mToDAADekAEEAACAXTJkxpAYWzs2dQYAALwuAwgAAAC7JJPLRP/J/WPB1gWpUwAAYIcMIAAAAOyyhvaGqKyqjLrWutQpAADwmgwgAAAA7JYVDSui78S+0Z5tT50CAAD/wAACAADAbpuybkpcOe3K1BkAAPAPDCAAAADskWGLh8UvF/wydQYAAPwdAwgAAAB7bMiMITG2dmzqDAAA+BsDCAAAAHssk8tE/8n9Y8HWBalTAAAgIgwgAAAAdJGG9oaorKqMuta61CkAAGAAAQAAoOusaFgRfSf2jfZse+oUAADKnAEEAACALjVl3ZS4ctqVqTMAAChzBhAAAAC63LDFw+KXC36ZOgMAgDJmAAEAACAvhswYEmNrx6bOAACgTBlAAAAAyItMLhP9J/ePBVsXpE4BAKAMGUAAAADIm4b2hqisqoy61rrUKQAAlBkDCAAAAHm1omFF9J3YN9qz7alTAAAoIwYQAAAA8m7Kuilx5bQrU2cAAFBGDCAAAAB0i2GLh8UvFvwidQYAAGXCAAIAAEC3+eaMb8bY2rGpMwAAKAMGEAAAALpNJpeJ/pP7x4KtC1KnAABQ4gwgAAAAdKuG9oboNb5X1LXWpU4BAKCEGUAAAADodjWNNdF3Yt9oz7anTgEAoEQZQAAAAEhiyropceW0K1NnAABQogwgAAAAJDNs8bD4xYJfpM4AAKAEGUAAAABI6pszvhljasekzgAAoMQYQAAAAEgqk8vEgMkDYsHWBalTAAAoIQYQAAAAkmtob4he43tFXWtd6hQAAEqEAQQAAICCUNNYE30n9o32bHvqFAAASoABBAAAgIIxZd2UGPzs4NQZAACUAAMIAAAABeXBVx6Me+bfkzoDAIAiZwABAACg4Hxr5rdiTO2Y1BkAABQxAwgAAAAFJ5PLxIDJA2LB1gWpUwAAKFIGEAAAAApSQ3tD9BrfK+pa61KnAABQhAwgAAAAFKyaxpo4b8J50Z5tT50CAECRMYAAAABQ0KaunxqDnx2cOgMAgCJjAAEAAKDgPfjKg3HP/HtSZwAAUEQMIAAAABSFb838VoypHZM6AwCAImEAAQAAoChkcpkYMHlALNi6IHUKAABFwAACAABA0Whob4he43tFXWtd6hQAAAqcAQQAAICiUtNYE+dNOC/as+2pUwAAKGAGEAAAAIrO1PVTY/Czg1NnAABQwAwgAAAAFKUHX3kw7pl/T+oMAAAKlAEEAACAovWtmd+KMbVjUmcAAFCADCAAAAAUrUwuEwMmD4gFWxekTgEAoMAYQAAAAChqDe0N0Wt8r6hrrUudAgBAATGAAAAAUPRqGmvivAnnRXu2PXUKAAAFwgACAABASZi6fmoMfnZw6gwAAAqEAQQAAICS8eArD8bd8+9OnQEAQAEwgAAAAFBSrpl5TYypHZM6AwCAxAwgAAAAlJRMLhMDJg+IBVsXpE4BACAhAwgAAAAlp6G9IXqN7xWbWjelTgEAIBEDCAAAACWpprEm+k7oG+3Z9tQpAAAkYAABAACgZE1dPzUGPzs4dQYAAAkYQAAAAChpD77yYNw9/+7UGQAAdDMDCAAAACXvmpnXxJjaMakzAADoRgYQAKBL5SKXOgEA/kEml4mLJ18ci+oXpU4BAKCbGEAAgC7VnvHQLACFaVv7tvjCU1+ITa2bUqcAANANDCAAQJfpyHY4AQJAQatprIm+E/pGe9ZgDwBQ6gwgAECXacu0pU4AgDc0df3U+Mb0b6TOAAAgzwwgAECX8TUtAMXivkX3xd3z706dAfB3OrIdqRMASooBBADoMk6AAFBMrpl5TTy1+qnUGQB/4/c0QNcygAAAXWZb+7bUCQCw0zK5TFxYfWHM3zI/dQpARES0ZlpTJwCUFAMIwGvI5rKpE6AobWnbkjoBAHZJY0dj9JnQJza3bk6dAuBKWYAuZgABeA1+dMLu8Z9HABSjZQ3L4vzq8929DyTnBAhA1zKAALwGf/zC7tncZgABoDg9/erT8bVnv5Y6AyhzBhCArmUAAXgNToDA7nECBIBi9ptXfhM/mPOD1BlAGfMIOkDXMoAAvAY/OmH3bGrdlDoBAPbIzbNvjuFLh6fOAMrU9s7tqRMASooBBOA1uAILds/KxpWpEwBgj+QiF5dNuSyq11anTgHK0Prt61MnAJQUAwjAa2jPuAILdsfKppWpEwBgj3VkO6LvxL4xf8v81ClAmdnYsjF1AkBJMYAAvIaWTEtkcpnUGVB0VjWuSp0AAF1iW/u2qKyqjA0tG1KnAGVkY6sBBKArGUAAXkM2l42tbVtTZ0BRaels8cUaACWlprEmelf1jtZMa+oUoAxkc9nY1OJNPYCuZAAB2IG61rrUCVBUahprIhe51BkA0KVmbZwVg6YOSp0BlIG61jo3EQB0MQMIwA4YQGDXLNi6IHUCAOTF8KXD48fzfpw6AyhxrtwD6HoGEIAd2Ny6OXUCFBUDCACl7Ibnb4gxtWNSZwAlbP329akTAEqOAQRgB5wAgV3z8paXUycAQN5kc9noP6l/zN8yP3UKUKKWbFuSOgGg5BhAAHbAAAK7xgkQAEpdY0dj9JnQJ7a0bUmdApSgpQ1LUycAlBwDCMAOrN2+NnUCFI3tndtjecPy1BkAkHfLGpbFRdUXRWe2M3UKUGIW1y9OnQBQcgwgADvgP3Nh572w6YXI5DKpMwCgW0xcOzG++9x3U2cAJcYAAtD1DCAAO2AAgZ03fcP01AkA0K3ufPnOeGjJQ6kzgBLR3Nkcq5tWp84AKDkGEIAdqGms8UU77KSZG2emTgCAbjf42cHxwqYXUmcAJeCV+lciF7nUGQAlxwACsAMd2Y5Y1bgqdQYUBQMIAOWoNdMaF1RfEHWtdalTgCK3qH5R6gSAkmQAAXgdrsGCN7asYVlsbNmYOgMAkljZuDL6TernUXRgjzy/6fnUCQAlyQAC8DqWNixNnQAFb/Krk1MnAEBS1Wur4/rnr0+dARQxb+oB5IcBBOB1zKmbkzoBCt6EtRNSJwBAcne8dEc8vOTh1BlAEWrpbIl5m+elzgAoSQYQgNfx3KbnUidAQcvkMjFp7aTUGQBQEAZPGxyz62anzgCKzHObnouObEfqDICSZAABeB0Lty6MhvaG1BlQsJ7f9HxsaduSOgMACkJLZ0v0ndDXo+jALpmxYUbqBICSZQABeB3ZXNY1WPA6qtZUpU4AgIKyqmlVDJg8IDK5TOoUoEjM2jQrdQJAyTKAALwB12DBjv2l9i+pEwCg4ExYMyFueP6G1BlAEcjkMvHs+mdTZwCULAMIwBt4oe6F1AlQkFY2rozZm9xzDgCv5SfzfhKPLH8kdQZQ4KZvmB6bWzenzgAoWQYQgDfwzKvPRDaXTZ0BBeexFY9FLnKpMwCgYF025TLXqQKvy4lqgPwygAC8gU2tm+L5Tc+nzoCC8/jKx1MnAEBBa+lsifMnnu9RdGCHxtSOSZ0AUNIMIAA7YdzqcakToKCsaV4TszZ6rBEA3khNY01cWH1hdGQ7UqcABWZ5w/JYuHVh6gyAkmYAAdgJvsqBv/f7pb93/RUA7KTJr06Ob874ZuoMoMD8edWfUycAlDwDCMBOmFM3J9ZtX5c6AwrGw0sfTp0AAEXlVwt/FfcuvDd1BlBAvP8BkH8GEICdkIuca7Dgr6ZvmB6L6xenzgCAonP1jKtj8quTU2cABWBt89p4Zt0zqTMASp4BBGAnjV41OnUCFISHlzj9AQC7oyPbERdVXxQrG1emTgESe2jJQ5HJZVJnAJQ8AwjAThq3elys374+dQYk1dzZHH9Y8YfUGQBQtDa1boreVb2jsaMxdQqQSC5yPioC6CYGEICd1JntjN8u/W3qDEjqt0t+Gw3tDakzAKCovbTlpbiw+sLozHamTgESmLpuaixrWJY6A6AsGEAAdsGDrzwYucilzoAkcpGLXyz4ReoMACgJT61+KgZPG5w6A0jgoSUPpU4AKBsGEIBdsGTbkpi+fnrqDEhi/Orxsah+UeoMACgZDyx+IH4y7yepM4Bu1NTRFH+s+WPqDICyYQAB2EW/WfKb1AmQxM/n/zx1AgCUnOueuy5GLBuROgPoJvctui+aOppSZwCUDQMIwC56dMWjUd9enzoDutWCrQtiwpoJqTMAoOTkIhdfmfKVmL7BKWModR3ZjrhrwV2pMwDKigEEYBc1dTTF0IVDU2dAt7p17q3evwGAPGnNtEbvqt4eRYYSN2LZiFjdtDp1BkBZMYAA7Iafz/95tGZaU2dAt1i6bWk8uvzR1BkAUNLqWuvi1DGnRm1TbeoUIA9ykYufvvTT1BkAZccAArAbNrRsiN8t/V3qDOgWt7x4S2RymdQZAFDyaptq46ynzoq61rrUKUAX+/OqP8eCrQtSZwCUHQMIwG764Ys/jLZMW+oMyKul25bGyGUjU2cAQNlYuHVhnPXUWdHQ3pA6BehCP5r3o9QJAGXJAAKwm2qbauP+xfenzoC8+v6c7zv9AQDd7IVNL0RlVWW0dLakTgG6wBMrn4gZG2akzgAoSwYQgD1w29zboqmjKXUG5MULm16IEctGpM4AgLL0zLpn4vzq86Mj25E6BdgDHdmOuO6561JnAJQtAwjAHli3fZ2jzJSs65+/PnKRS50BAGVrbO3Y6Depn9OYUMR+tfBXsWTbktQZAGXLAAKwh+546Y5Y2bgydQZ0qdErR0f12urUGQBQ9kbVjIovTv6ikyBQhOrb6+OHL/4wdQZAWTOAAOyh1kxrfHvWt1NnQJfpyHbE9c9fnzoDAPirR5Y/Ev0m9Yv2bHvqFGAX3PrirVHXWpc6A6CsGUAAusComlExeuXo1BnQJe58+c5YXL84dQYA8L+MqhkV51ad62F0KBKL6xfHPQvuSZ0BUPYMIABdZPC0wVHfXp86A/ZIbVNt/ODFH6TOAABew7jV4+LMp86Mxo7G1CnA68jmsjFo6qBoy7SlTgEoewYQgC6ybvu6uOH5G1JnwB75xvRvRFNHU+oMAGAHpqybEmeOO9OHN1DAfv7yz+PZ9c+mzgAgDCAAXWrowqExce3E1BmwW0avHB1PrnoydQYA8Aamb5gep4451dsCUICWblsaN86+MXUGAH9lAAHoQrnIxeVTLo+G9obUKbBL6tvr46rpV6XOAAB20py6OfHpJz8dyxqWpU4B/iqby8ZlUy7zVg9AATGAAHSxVU2r4tpZ16bOgF1y1bSrYk3zmtQZAMAuWLJtSZw4+kRX7UCBuHv+3f49AhQYAwhAHjyw+IEYt3pc6gzYKU+sfCJ+v+z3qTMAgN1Q11oXp409LYYvHZ46Bcracxufi+ufvz51BgD/hwEEIA9ykYtBUwfF1ratqVPgdW1s2Rhfe/ZrqTMAgD3QlmmLS56+JL43+3uRi1zqHCg7W9q2RL9J/aIt05Y6BYD/wwACkCdrm9fG16d/PXUG7FAucnHpM5fGxpaNqVMAgD2Ui1x8b8734svPfDnas+2pc6BsZHPZuHjyxVHTWJM6BYDXYAAByKORy0bG0EVDU2fAa/rR3B+5qg0ASszDSx6O08eeHhtaNqROgbLwgxd/EE+tfip1BgA7UBFDnY8FyKf9eu4X03pNi4++7aOpU+Bvpq6fGqeMOSU6s52pUwCAPDjywCPjsVMfi08e9snUKVCyxq8ZH2c/dXZkc9nUKQDsgBMgAHnWmmmNC6svjG3t21KnQEREbGrdFP0n9Td+AEAJW9O8Jk76y0lx9/y7U6dASZq/ZX70q+5n/AAocAYQgG6wrGFZXD718tQZEJ3ZzhgwaUCsbV6bOgUAyLO2TFsMmTEkvjr1qx5nhi60qmlVnDHujKhvr0+dAsAbMIAAdJM/rvhj/Pzln6fOoMxdM+uamLh2YuoMAKAb3b/4/jjpLyf5AAK6wJa2LXHWuLPi1e2vpk4BYCcYQAC60bWzro2xtWNTZ1Cmfr3w13HP/HtSZwAACczaOCs+/vjHPdYMe6ClsyV6V/WORfWLUqcAsJMMIADdKJPLRL9J/eKlLS+lTqHMVK+tjqtnXJ06AwBIaGPLxjj7qbPj27O+He3Z9tQ5UFQ6s50xYPKAeHb9s6lTANgFBhCAbtbY0Ri9xveKddvXpU6hTCyqXxQXVF/g0XMAIHKRi5+99LP41OhPxdJtS1PnQFHoyHZEv0n94omVT6ROAWAXGUAAEqhtqo1e43tFc2dz6hRK3JrmNXHWuLNia9vW1CkAQAGZXTc7PjLqI3H3/LtTp0BBa8+2x4XVF8afav6UOgWA3WAAAUhkdt3suOTpSyKTy6ROoURtat0Up409LVY1rUqdAgAUoJbOlhgyY0gMfHpgbGvfljoHCk5bpi3Om3Cekx8ARcwAApDQqJpRcdmUyyKby6ZOocQ0djTG2U+dHa/Uv5I6BQAocMOXDo/jHzs+nlz1ZOoUKBhtmba4oPqCGFM7JnUKAHugZ5wT/5M6AqCczds8Lza0bIizjz47KqIidQ4loLmzOXpV9YrpG6anTgEAikRTR1P8YfkfYu32tfHZwz8b+/bcN3USJLO1bWucM/6cqFpTlToFgD1kAAEoALPrZkd9e32ccdQZqVMocs2dzdFrfK94+tWnU6cAAEVoTt2ceHjpw/H+Q94fx735uNQ50O1WNKyI08aeFi/UvZA6BYAuYAABKBCzNs6Kxs7GOP3I01OnUKS2tW+LM8adEVPXT02dAgAUsaaOpnhk+SOxsH5hnPquU2P/vfZPnQTdYsaGGXH6uNO9oQdQQgwgAAVkxoYZ0ZHriJOPODl1CkWmvr0+zhx3ZszcODN1CgBQIhZuXRgjlo2Iow48Ko5/y/GpcyCvRi4bGX0m9omG9obUKQB0IQMIQIGZun5qrGtZF2cedWb0qOiROocisLZ5bZw29rSYUzcndQoAUGIaOhrisZrHYubGmfHJwz4Zh+53aOok6FLZXDa+N+d7MWTGkOjMdabOAaCLVcTQyKWOAOAfVR5TGSM+N8KVA7yuhVsXxllPnRW1TbWpUwCAErd3j71j8PGD4wf/9oM4cK8DU+fAHqtrrYtLnr4kxq0elzoFgDwxgAAUsM8e/tl44vQn4pB9DkmdQgGauXFm9BrfK+pa61KnAABl5Ng3HRt3/cddcfbRZ6dOgd02df3U6D+pf6xtXps6BYA8crcKQAF7Zt0zcfKYk+PV7a+mTqHAjFg2Ik7+y8nGDwCg261oWBHnjD8nvjD+CzF/y/zUObBLcpGL2+feHqeMOcX4AVAGnAABKAKHH3B4PHrKo/Gpd34qdQqJZXKZuP656+OnL/00dQoAQPSs6BmXHndpfO/j34vDDzg8dQ68ro0tG+PLU74cY2vHpk4BoJt4BB2gCDR1NMXvlv0u9umxT3z6nZ9OnUMiW9q2xHkTzovfLf1d6hQAgIj4/76mn1M3J+5ddG80djbGCW8/IfbtuW/qLPgHj614LM4Zf07M2zwvdQoA3cgJEIAic/kHLo+7T7zbH5ZlZu7muXH+xPNjecPy1CkAADv0zgPeGTd/7Ob48nFfjr177J06B2JDy4a4ctqVMapmVOoUABIwgAAUoX8/7N9j5Ckj490HvTt1CnmWi1z8Yv4v4rvPfTdaM62pcwAAdsp7Dn5P3PCRG2Lg+wcaQkhmxLIRcfWMq2Nz6+bUKQAkYgABKFKH7HNI3PUfd8XA9w9MnUKebG7dHJdNuSyeXPVk6hQAgN1yzMHHxPUfuT6+9P4vGULoNqubVsdV06/yOxoAAwhAset7bN/49ad+HYfud2jqFLpQ9drquPSZS2NN85rUKQAAe+yYg4+J6z58XXzpuC/FPj32SZ1DiWrNtMZP5v0kfjTvR7G9c3vqHADS66iIoZGNiIrUJQDsviMOOCKGfXZYfP7Iz6dOYQ9ta98W35n1nXhg8QOR840CAFBijj7o6Ljqg1fFVz7wlThkn0NS51BCHl/5eHx75rejprEmdQoAhaO5IoZGW0T4/AKgyFVERVzy/kvi9hNuj8P2Pyx1DrvhL7V/iSuevSLWNq9NnQIAkFcH731wXPaBy+IbH/xGHHPwMalzKGKL6hfFkBlDYsKaCalTACg8WypiaDRGxEGpSwDoGm/Z9y1xyyduia/+81ejZ0XP1DnshFe3vxrXzro2Ri4bmToFAKBb9azoGX3e0yeGfGhI/Mc7/iN1DkVkddPquG3ebTFs8bDoyHakzgGgMK2oiKGxKSLelroEgK718bd9PH75qV/GCYedkDqFHWjLtMWdL98Zt869NZo6mlLnAAAk9cnDPhmDPjAoLnjvBXHgXgemzqFArW1eG7fPuz0eWPxAtGXaUucAUMgq4rmKGBqvRMT7U7cA0PV6VPSIgf80MG762E2uFigwf17157hm5jWxrGFZ6hQAgIJyyD6HRP/39Y+vHPeV+OjbPpo6hwJR21QbP3v5Z3HfovuiNdOaOgeAYlARYyvivng2cvGp1C0A5M/ePfaOS4+7NG786I3xrgPflTqnrM3YMCNumn1TVK+tTp0CAFDwPviWD8bF77s4Lv/ny+Ot+741dQ4JzNs8L+6cf2eMXDbSVVcA7JqKuLci7o1RURHnpm4BIP/232v/uOL4K+K7H/5uvH2/t6fOKSsvbHohbp59c4xbPS51CgBA0TlwrwOj1zG94sJjL4wzjjoj9umxT+ok8iiby0bVmqq44+U7fDgEwJ74TkUMjZ9GxDWpSwDoPgftfVBcetyl8fXjvx7/dMg/pc4pabM2zoofzftRjF45OnKRS50DAFD03rLvW6LPe/rERcdeFCcdcVL0rOiZOokusrFlYzy05KG4f/H9sbxheeocAIpdRfSpiKFxRUT8KnULAN2vR0WPOPvos+MbH/xGnPKuU1LnlIxsLht/XvXn+NnLP4up66emzgEAKFmHH3B4XHDsBVH57sr49Ds/HXv12Ct1Ersom8vGM+ueifsX3x+jakZFe7Y9dRIApSIT762IofG5iJiUugWAtP7lrf8SX//g1+PCYy+MN+3zptQ5RamhvSFGLBsRdy24K16pfyV1DgBAWXnLvm+JM486M845+pw446gz4pB9DkmdxOuYv2V+jFg+IkYsGxG1TbWpcwAoPfUxKN5aEUPjkIjYEhE9UhcBkN7+e+0fle+ujAHvGxCfP/LzvqLbCdPWT4thrwyLx1Y8Fs2dzalzAADK3t499o7PHP6Z+MLRX4gzjjwjjnvzcamTiIhlDctiVM2oGLl8ZMzbPC91DgClrTq+GqdWRETE0FgYEf+ctgeAQnPY/ofFRe+9KPq9t1/829v/LXpU2Mr/fzWNNfHo8kfj4aUPx+L6xalzAAB4He868F1x8hEnx+eO+FycfMTJcfRBR6dOKgu5yMULm16I0atGx+iVo2PB1gWpkwAoH/8V/4+9Ow/WvC7sfP9+ekNWkaiAcYkxJnrVJJoYYjIxk8RMyky4t+6Ucv/BmgJtTgNjd2NAiKC2CAqKbAHp0xCtAqlbFZ25desy2QazG2NMNNExajRqjIiICzs03X2e+wcwLmFpmnPO9yyvV9X5o8/p53nebH2a36d/z3emtz0wgGyvZsb2ALCUHb7/4f3Hp//Hfv1pv96vPvVXO3j9waOTFt0XbvtCH/jiB/rAFz/Q3978t6NzAADYR8865Fn98lN+uV888hd7yeEv6ZkHP3N00orxtbu+1vU3XN8Hv/rB/ugrf9SNd904OgmA1WjSz3RCH71vANnR/9m0/zY4CYBlYsOaDb30yJf28qe9vJce+dJ+4rCfWJFvlbVzz84+dNOH+h83/I/+6Ct/1Me/8fHRSQAALIAn7//kjnryUb34iS/uqCcf1c88+WecIbKXbrzrxj5804f70E0f6oM3fLBPfuuTTZuOzgJgdbupJ/SDHdOe+waQSzuk/fp6td/YLgCWo4PWH9RRTz6qnz/853vJ4S/pJU9+ybI8SH3nnp197Bsf68M3fbgPfvWD/dmNf9Zdu+8anQUAwCJbM1nTjz3+x3rRE1/U85/w/F5w2At6/mHPX/VvnXXX7rv6xLc+0d/d/Hd95OaP9KGvfagv3v7F0VkA8P0ub6b/UjX5X5+a7b9W/2lUEQArx9rJ2p51yLP68R/48Z536PN6/mH3/U/jsw55Vmsna0fnVXXv3L197tbP9YlvfqK/uflv+uuv/3Uf/8bHu3fu3tFpAAAsUYduOPR/jSEveMIL+pHH/0jPOuRZPe3Ap62oO6J3z+3ui7d/sc/e+tk+/e1P9w/f+oc+/o2P90+3/lN7pntG5wHAw1vTS9vYX9R3DyDeBguABbb/uv17zqHP6ekHPb0fOuiHevpBT/+ej8P3P3xeX+/We2/thjtv6Ct3fqUb7ryhz9/2+T5zy2f61Lc/1Rdu/0K753bP6+sBALA6rV+zvmcc9Ix++JAf7lmHPKtnHvzMfvjgH+7IA47sqQc+tcMPOLwNazaMzvweN919U1++48vf8/GlO77UZ2/5bP982z+3a2CYcswAACAASURBVG7X6EQA2Bef64R+rMl978f43XeArK/+uXraoDAAVrm1k7Udtt9hHfa4wzpsv8N6wn5PuO/H+x3W/uv2f9DH3LX7rm6/9/bu2H1Ht+y8pdt23dbt997el+/4cnfuvnOR/woAAODBPXn/J3f4/of3gwf+YIfvf3iH7394B607qPVr1nfIhkNaO1nbofsd2trJ2h6/4fGtm6zr4A0Ht2HNhg5cd2B377m7e/bc8z3Pefu9t7d7+p0/1LNnuqdb7721W3be0q333trtu2/vtntv61s7v9XX7/56X7vra918z83dfM/N/jAQACvVa5vpsgd+MPmeL23v9Cadt+hJAAAAAAAA++5b7eyZbe62Bz6x5nu+vF+z1bcXuwoAAAAAAOAxuPC7x4/6/gHkuG5p0tsWNQkAAAAAAGDffaN1Xfr9n1zzb37a+i6rvrAYRQAAAAAAAI/Rb/Xqbv/+T/7bAeS47mnaprrvlHQAAAAAAIAladpfd2PvebAvrX3QB1zXFzq6p1cvXMguAAAAAACAfXR39Rud2tcf7Iv/9g6QB+zf5uofFygKAAAAAABg3007vU0PvWNMHvbBO3pe0z5cHTzfXQAAAAAAAPvov3VCr2jy0Md5PPQdIFUn9KmmHVPtnu8yAAAAAACAffDpdnbcw40f9UgDSNWm/qA6MYeiAwAAAAAAY93QXL/e5m57pJ/4yANI1UxXNWkmIwgAAAAAADDGLU37j53Yl/bmJ6/d66f9//pYv9FNTXp5ezucAAAAAAAAPHbfaE3/oZk+vrcPePhD0B/M9v6PJv3f1f6P+rEAAAAAAACPzteq/9BMn3w0D3r0A0jVlf1sc/3X6in79HgAAAAAAIBH9g/V/95MX360D9y3t7La2F9XP1395T49HgAAAAAA4OFM+n/b3b/bl/GjHstZHjPd2I39UtPOqO7d5+cBAAAAAAD4jt3VW/pq/6mTu2Nfn2Tf3gLr+13RC1vT1dXz5+X5AAAAAACA1ejzrelV978T1WOy73eAfLcT+3g7++kmnV/tmZfnBAAAAAAAVotptaPdvXA+xo+arztAvttsR1WXVEfN+3MDAAAAAAAry6S/adrmZvrI/D7tQpg2aUevqN5ZPWNBXgMAAAAAAFjObqy2dWNXta25+X7yhRlAHjDbAU17bZPOqg5a0NcCAAAAAACWg13VFe3sjW3utoV6kYUdQB5wRT/Ymt5eHbtorwkAAAAAACwt065r0tZm+ueFfqnFHSN29OKmXVz93KK+LgAAAAAAMNJnmvS6Tuj3F+sFF/9ujO+cD3JB9fRFf30AAAAAAGCxfLtJb+mrXd62di/mC497O6rZDqhef//H/sM6AAAAAACA+ba7ek/rO6vju3lEwPjzOK7sqc31tpwPAgAAAAAAy9+0P77/nI9PjsxYOoPDbEc17eIm/ezoFAAAAAAA4FH7fPWGZnr/6JBaSgNI3Xc+yGyvatL51RGjcwAAAAAAgEd0Z3VBGzqv47pndMwDltYA8oCrO7C7O606vXrc6BwAAAAAAODfmFbva3ev7+S+Njrm+y3NAeQBl/e01nVuzgcBAAAAAICl5KNN29KmPjw65KEsj1Hhiv59a7qo+snRKQAAAAAAsIp9tWm/1UzXNGk6OubhrBkdsFdO7E+7sZ9q2n+ubhqdAwAAAAAAq8zdTTq/dT2nTV291MePWi53gHw354MAAAAAAMDimXZda9vcxr44OuXRWH4DyAOu6kfa09uqV45OAQAAAACAFejTTTqlE/rD0SH7YvkOIA+Y7Zeqi6qfGJ0CAAAAAAArwLeadHaHdlnHtGd0zL5a/gNI1bbWdETHNukd1eGjcwAAAAAAYBnaVb23OrOZvjE65rFaGQPIA97boe3qjKZtrfYbnQMAAAAAAMvE9U3a2gl9anTIfFlZA8gDtvfsJp2b80EAAAAAAODhfK777vh4/+iQ+bYyB5AHXNkvN9dF1Y+PTgEAAAAAgCXkjupd7eztbW7n6JiFsLIHkPru80HeWT15dA4AAAAAAAw0V13bmk5rYzeNjllIK38AecC7e0LrOt35IAAAAAAArFIfqbY000dGhyyG1TOAPGBHP9q0c3I+CAAAAAAAq8NXmnZmM13TpOnomMWy+gaQB+zoZU27qHr+6BQAAAAAAFgAdzXpt9vVOZ3cHaNjFtvqHUCqtrWuIzu+Oqd60ugcAAAAAACYF9Oua9prO7EvjU4ZZXUPIA/4zvkgp1QbRucAAAAAAMA++lhr2trG/mJ0yGgGkO+2o+dVFzXtV0enAAAAAADAo3BT087sa723bc2NjlkKDCAP5r7zQS6tnjs6BQAAAAAAHsau6orqTc106+iYpcQA8lBmW9+kk5p2dnXI6BwAAAAAAPg+1zdtS5v6x9EhS5EB5JHMdmS1rXpNtWZsDAAAAAAA9Nmmva5N/d7okKXMALK3ruynmuvS6udGpwAAAAAAsCrd0rTzOqyLOqZ7R8csdQaQR2PapB29orqgevroHAAAAAAAVoW56trmOrUT+/romOXCALIvru7A7u606vTqcaNzAAAAAABYoSb9aXNtbVP/MDpluTGAPBaX97TWdW71qtEpAAAAAACsKP/atLPa1NWjQ5YrA8h8uLJfbq6LqxeMTgEAAAAAYFm7q3pnGzqv47pndMxyZgCZL9ta15EdX51bPXF0DgAAAAAAy8q0+kB1ajN9eXTMSmAAmW9XdVh7enN1UrVudA4AAAAAAEve3zXXlk7sQ6NDVhIDyEKZ7TlNu7hJvzY6BQAAAACAJenGals3dlXbmhsds9IYQBba9o5u0iXVM0enAAAAAACwJNxbbW9nb2xzt42OWakMIIvhd9vQLZ3YtLdWB4/OAQAAAABgkGnXNdeWTuoLo1NWOgPIYvqdntLuzquOzd97AAAAAIDV5DNNO6VN/cHokNXCRfgRdvTi5rq0ST87OgUAAAAAgAX1rSad3Ve7vG3tHh2zmhhARpk2abZXNekd1eGjcwAAAAAAmFe7q/e0vrM6vptHx6xGBpDRru7A7u606oxqv9E5AAAAAAA8RtP+uElbm+mTo1NWMwPIUrG9Zzfp3OqVo1MAAAAAANgnn6/e0EzvHx2CAWTp2dHLmnZx9bzRKQAAAAAA7JU7qwva0Hkd1z2jY7iPAWQpmm19k05q2luqx4/OAQAAAADgQU2r97W713dyXxsdw/cygCxll/UDre9N1cnV2tE5AAAAAAD8Lx9t2pY29eHRITw4A8hycEUvbNIlTfqF0SkAAAAAAKvcDU17QzNd06Tp6BgemgFkOdne0U26tPqh0SkAAAAAAKvM3U26tLWd26u7fXQMj8wAstzMdkDTXtuks6qDRucAAAAAAKx4065rbZvb2BdHp7D3DCDL1ZU9tbneVh2bf44AAAAAAAvh7+8/5+PPR4fw6Llwvtzt6Bebdkn1E6NTAAAAAABWiG816ewO7bKOac/oGPaNAWQl+N3W9q02Numt1RNH5wAAAAAALFO7qsva0Nkd1y2jY3hsDCAryXs7tF2d0bRTqg2jcwAAAAAAlpHrm7S1E/rU6BDmhwFkJXp3P9a6Lmzar49OAQAAAABY4j7XpNd1QteNDmF+GUBWsh29rGmXVs8dnQIAAAAAsMTcUb2rnb29ze0cHcP8M4CsdLOtb9JJTTu7OmR0DgAAAADAYHPVta3ptDZ20+gYFo4BZLWY7chqW/Waas3YGAAAAACAIT5SbWmmj4wOYeEZQFabK/uppl3StJ8fnQIAAAAAsEi+0rQzm+maJk1Hx7A4DCCr0bRJO3pFdUH19NE5AAAAAAAL5K4m/Xa7OqeTu2N0DIvLALKazXZA9frq9Opxg2sAAAAAAObPtOta13/pNf3L6BTGMIBQl/e01nVu9arRKQAAAAAAj9HHuu+cj78cHcJYBhC+Y7Zfqi6pXjA6BQAAAADgUfpmk97aoV3WMe0ZHcN4BhC+17bWdWTHV+dUTxqdAwAAAADwCHZVV1RvaqZbR8ewdBhAeHDv7gmtbVt1UrVucA0AAAAAwIO5vmlb2tQ/jg5h6TGA8PBme07TLm7Sr41OAQAAAAC432eb9ro29XujQ1i6DCDsne0d3aSLqx8enQIAAAAArFrfbtr5HdZFHdO9o2NY2gwg7L3fbUO3dGLT3lodPDoHAAAAAFg15qprm+vUTuzro2NYHgwgPHq/01Pa3XnVsfl3CAAAAABYWH/Smra2sU+MDmF5cfGafbejFzftkuolo1MAAAAAgBXnX5t2Vpu6enQIy5MBhMdm2qTZXtWk86sjRucAAAAAAMveXdU729B5Hdc9o2NYvgwgzI+rO7C7O606o9pvdA4AAAAAsOxMqw9UpzbTl0fHsPwZQJhf23t2k86tXjk6BQAAAABYNv62SVs6ob8aHcLKYQBhYWzvV5p0SfW80SkAAAAAwJL11eot3dhVbWtudAwriwGEhTPb+iad1LRt1aGjcwAAAACAJePeans7e2Obu210DCuTAYSFd1WHtac3VydXa0fnAAAAAAADTbuuubZ0Ul8YncLKZgBh8VzRC5t0SZN+YXQKAAAAALDoPtO0U9rUH4wOYXUwgLD4tnd0ky6tfmh0CgAAAACw4L7VpLP7ape3rd2jY1g9DCCMcWH7d0Cbm3RWddDoHAAAAABg3u2u3lOd2UzfGB3D6mMAYayrekZ7emf1ytEpAAAAAMC8+aP73+7qH0eHsHoZQFgaZjuqaRc36WdHpwAAAAAA++zz1Rua6f2jQ8AAwtIxbdJsr2rS+dURo3MAAAAAgL12Z3VBO3t7m9s5OgbKAMJSdHUHdnenVadXjxudAwAAAAA8pGn1vnb3+k7ua6Nj4LsZQFi6Lu9prevc6lWjUwAAAACAf+OjTdvSpj48OgQejAGEpe+K/n1ruqj6ydEpAAAAAEA3NO0NzXRNk6ajY+ChrBkdAI/oxP60G/uppv3n6qbROQAAAACwSt3dpPNb13Pb1NXGD5Y6d4CwvFzeQa3r1OqMar/ROQAAAACwKky7rrVtbmNfHJ0Ce8sAwvJ0VT/Snt5WvXJ0CgAAAACsYB9v2tY29eejQ+DRMoCwvM32S9XF1Y+PTgEAAACAFeSbTXprh3ZZx7RndAzsCwMIy9+21nRExzbpndWTR+cAAAAAwDK2q7qielMz3To6Bh4LAwgrx3s7tF2d0bStOR8EAAAAAB6t65u0tRP61OgQmA8GEFae7T27SefmfBAAAAAA2Bv/1KTf7ISuGx0C88kAwsq1vV9p0kXVC0anAAAAAMASdEvTzuveLm5zO0fHwHwzgLCybWtdR3Z8dU71pNE5AAAAALAEzFXXtqbT2thNo2NgoRhAWB3e3RNa1+lNO6XaMDoHAAAAAAb5s/vP+fj70SGw0AwgrC47+tHmeleTfmN0CgAAAAAsoq807cxmuqZJ09ExsBgMIKxOO3pZ0y6qnj86BQAAAAAW0F3VO7uz83tdd4+OgcVkAGH1cj4IAAAAACvXtPpAazut1/Qvo2NgBAMIXNVh7enN1UnVutE5AAAAAPAYfaza0kx/OToERjKAwAPe3Y+1rgub9uujUwAAAABgH3yjSed0aJd1THtGx8BoBhD4fvedD3Jx9bzRKQAAAACwF3ZVV7SzN7a520bHwFJhAIEHM9v6Jp3UtG3VoaNzAAAAAOAhXN+aNrexT48OgaXGAAIPx/kgAAAAACxNn23a69rU740OgaXKAAJ7Y7bnVBdWLx+dAgAAAMCq9u2mnd9hXdQx3Ts6BpYyAwg8Gts7ukkXVc8anQIAAADAqjJXXdv6frPju3l0DCwHBhB4tL5zPshbqsePzgEAAABgxfuT1rS1jX1idAgsJwYQ2FdXdnhznVMdX60ZnQMAAADAivOFJp3aCf0/o0NgOTKAwGO1vf+turBJvzY6BQAAAIAV4c7qgjZ0Xsd1z+gYWK4MIDBf7jsf5OLqh0enAAAAALAsTasPVKc205dHx8ByZwCB+fS7beiWTmza2dUho3MAAAAAWDb+tklbOqG/Gh0CK4UBBBbCbE+s3lidXK0dXAMAAADA0vXV6i3d2FVta250DKwkBhBYSLO9qLqoeunoFAAAAACWlHur7a3rrF7d7aNjYCUygMBiuO98kEuqZ45OAQAAAGCwadc115ZO6gujU2AlM4DAYnE+CAAAAMBq9+kmndIJ/eHoEFgNDCCw2GY7stpWvaZaMzYGAAAAgEXwrSad3aFd1jHtGR0Dq4UBBEa5sp9qTxc16RdGpwAAAACwIHZX76nObKZvjI6B1cYAAqPddz7IpdUPjU4BAAAAYN58sLm2dmL/c3QIrFYGEFgKLmz/Dmhzk86sDh6dAwAAAMA++3z1hmZ6/+gQWO0MILCU/E5PaXdvzvkgAAAAAMvNndUF7eztbW7n6BjAAAJL0/Z+ujVd3LSfH50CAAAAwMOaVu9rd6/v5L42Ogb4DgMILFXTJu3oFdU7q2eMzgEAAADg+0z6myZtaWN/PToF+LcMILDUzXZA017bpLOqg0bnAAAAANANTXtDM13TpOnoGODBGUBgubiiH2xNb6+OzX+7AAAAACPc3aRL29U5ndwdo2OAh+ciKiw3O3px0y6ufm50CgAAAMCqMe26pr22E/vS6BRg7xhAYDn6zvkgF1RPH50DAAAAsIJ9vGlb29Sfjw4BHh0DCCxnsx1Qvf7+j/0H1wAAAACsJN9s0ls7tMs6pj2jY4BHzwACK8GVPbW53pbzQQAAAAAeq13VFdWbmunW0THAvnOhFFaSK/qZ1nRx9ZLRKQAAAADL0PVN2toJfWp0CPDYGUBgpXE+CAAAAMCj9U/V65rpv48OAeaPAQRWqqs7sLs7rTq9etzoHAAAAIAl6Jamnde9Xdzmdo6OAeaXAQRWust7Wus6N+eDAAAAADxgrrq2uU7txL4+OgZYGC6Gwmox21FNu7hJPzs6BQAAAGCgP2valjb1D6NDgIVlAIHVZFtrOqJjm3R+dcToHAAAAIBF9JWmndlM1zRpOjoGWHgGEFiNnA8CAAAArB53Ve/szs7vdd09OgZYPAYQWM2+cz7Iq0anAAAAAMyzafWB1nZar+lfRscAi88AAtRsv1RdVP3E6BQAAACAefB31dZm+svRIcA4a0YHAEvATH/Sjb2oaf+5uml0DgAAAMA+urGa6QkdZfwA3AECfK/LO6h1nVqdUe03OgcAAABgL+yqrmhnb2xzt42OAZYGAwjw4K7qR9rT26pXjk4BAAAAeEjTrmvS1mb659EpwNJiAAEe3pX9cnNdVP346BQAAACA7/LZJp3SCf3+6BBgaXIGCPDwNvbH3dgL7z8f5OujcwAAAIBV79tN2tqNPd/4ATwcd4AAe++9Hdquzmja1pwPAgAAACyuuera1vebHd/No2OApc8AAjx623t2k87N+SAAAADA4viT1rS1jX1idAiwfBhAgH23vV9p0kXVC0anAAAAACvSvzbtrDZ19egQYPlZOzoAWMau64v9dFd2cDdUP1sdODoJAAAAWBHurN7ehv6vNvZ3o2OA5ckdIMD8eHdPaF2nN+2UasPoHAAAAGBZmlYfaHe/2cn96+gYYHkzgADza0c/2lzvatJvjE4BAAAAlpWPNmlrJ/RXo0OAlcEAAiyMHb28aRdWzxmdAgAAACxpNzTtjGa6tknT0THAyrFmdACwQp3Q73djL6hmqm+MzgEAAACWnHurS1vXc9vU+4wfwHxzBwiw8K7qsPb05uqkat3oHAAAAGCwadc115ZO6gujU4CVywACLJ7ZnlNdWL18dAoAAAAwxKebdEon9IejQ4CVzwACLL7tHd2ki6pnjU4BAAAAFsW3mnR2h3ZZx7RndAywOhhAgDFmW9+kk5p2dnXI6BwAAABgQeyu3lOd2YwzQoHFZQABxprtidUbq5OrtYNrAAAAgPnzweba2on9z9EhwOpkAAGWhtle1LSLm/QLo1MAAACAx+Rz3XfHx/tHhwCrmwEEWFruOx/k0uqHRqcAAAAAj8qd1QXt7O1tbufoGAADCLD0XNj+HdDmJp1ZHTw6BwAAAHhYc9W1rem0NnbT6BiABxhAgKXrin6wNb29Oja/XgEAAMDSM+lvmrSljf316BSA7+eCIrD07ejFTbu4+rnRKQAAAEBVNzTtDc10TZOmo2MAHowBBFgepk3a0SuqC6qnj84BAACAVeruJl3ars7p5O4YHQPwcAwgwPJydQd2d6dVp1ePG50DAAAAq8a065r22k7sS6NTAPaGAQRYni7vaa3r3JwPAgAAAAvt461pSxv7i9EhAI+Gi4bA8nZF/741XVz9xOgUAAAAWGG+2aS3dmiXdUx7RscAPFoGEGD529aajujYJr2jOnx0DgAAACxzu6orqjc1062jYwD2lQEEWDku76DWdWp1RrXf6BwAAABYhq5v2pY29Y+jQwAeKwMIsPJs79lNOrd65egUAAAAWCb+qXpdM/330SEA88UAAqxc2/uVJl1cPX90CgAAACxRtzTtvA7roo7p3tExAPPJAAKsbNta15EdX51TPWl0DgAAACwRc9W1zXVqJ/b10TEAC8EAAqwOV3VYe3pzdVK1bnQOAAAADDPpT5tra5v6h9EpAAvJAAKsLrM9p0nvatqvj04BAACARfaVpp3ZTNc0aTo6BmChGUCA1WlHL2vaJdX/NjoFAAAAFthd1Tvb0Hkd1z2jYwAWiwEEWL1mW9+kk5r2lurxo3MAAABgnk2rD7S203pN/zI6BmCxGUAALusHWt+bqpOrtaNzAAAAYB78XXNt6cQ+NDoEYBQDCMADruiFreni6qWjUwAAAGAf3Vht68aualtzo2MARjKAAHy/7R3dpEuqZ45OAQAAgL20q7qinb2xzd02OgZgKTCAADyYC9u/A9rcpDOrg0fnAAAAwEOadl2TtjbTP49OAVhKDCAAD+d3ekq7e3P1mmrN6BwAAAD4Lp9p0us6od8fHQKwFBlAAPbG9n76/rfF+rnRKQAAAKx6327SW/pql7et3aNjAJYqAwjA3po2aUevqC6onj46BwAAgFVnd/We1ndWx3fz6BiApc4AAvBozXZA9frq9Opxg2sAAABYDab98f3nfHxydArAcmEAAdhXV/bU5npbdWx+PQUAAGBh/HP1W830/tEhAMuNC3YAj9WOfrFpF1c/OToFAACAFePO6oI2dF7Hdc/oGIDlyAACMB+2taYjOrZJ76gOH50DAADAsjWt3tfuXt/JfW10DMByZgABmE+Xd1DrOrU6o9pvdA4AAADLykebtqVNfXh0CMBKYAABWAjbe3aTzq1eOToFAACAJe+rTfutZrqmSdPRMQArhQEEYCFt71eadFH1gtEpAAAALDn3Vttb11m9uttHxwCsNAYQgIW2rXUd2fHVOdWTRucAAACwBEy7rrVtbmNfHJ0CsFIZQAAWy7t7Qus6vWmnVBtG5wAAADDEp5t0Sif0h6NDAFY6AwjAYtvR86qLmvaro1MAAABYNDdXb+wJXdUx7RkdA7AaGEAARtnRy5p2afXc0SkAAAAsmF3Ve6szm+kbo2MAVhMDCMBIs61v0klNO7s6ZHQOAAAA8+r65jqlE/ufo0MAViMDCMBSMNsTqzdWJ1drB9cAAADw2Hyu++74eP/oEIDVzAACsJTM9qKmXdykXxidAgAAwKN2R/Wudvb2NrdzdAzAamcAAViKtnd0ky6tfmh0CgAAAI9orrq2NZ3Wxm4aHQPAfQwgAEvVbAc07bVNOqs6aHQOAAAAD2LS3zRpSxv769EpAHwvAwjAUndlT22ut1XH5tdtAACApeKGpr2hma5p0nR0DAD/lgtpAMvFbEdVl1RHjU4BAABYxe5q0m+3q3M6uTtGxwDw0AwgAMvJttZ0RMc26R3V4aNzAAAAVpVp1zXttZ3Yl0anAPDIDCAAy9HlHdS6Tq3OqPYbnQMAALDCfaw1bW1jfzE6BIC9ZwABWM629+wmnVu9cnQKAADACvTNJr21Q7usY9ozOgaAR8cAArAS7OhlTbuoev7oFAAAgBVgV3VF9aZmunV0DAD7xgACsFLMtr46rjq3euLgGgAAgOXq+qZtaVP/ODoEgMfGAAKw0lzVYe3pzdXJ1drROQAAAMvEP1Wva6b/PjoEgPlhAAFYqa7sue3poib92ugUAACAJeyWpp3XYV3UMd07OgaA+WMAAVjptnd0ky6pnjk6BQAAYAmZq65trlM7sa+PjgFg/hlAAFaD321Dt3Ri095aHTw6BwAAYKhJf9pcW9vUP4xOAWDhGEAAVpPf6Snt7s3Va6o1o3MAAAAW2b827aw2dfXoEAAWngEEYDXa0YubdnH1c6NTAAAAFsFd1Tvb0Hkd1z2jYwBYHAYQgNVq2qQdvaJ6V/W00TkAAAALYFp9oDq1mb48OgaAxWUAAVjtru7A7u606vTqcaNzAAAA5snfNdeWTuxDo0MAGMMAAsB9Lu9prevc6lWjUwAAAB6DG6tt3dhVbWtudAwA4xhAAPhes/1SdXH146NTAAAAHoV7q+3t7I1t7rbRMQCMZwAB4N/a1pqO6NgmXVA9aXQOAADAw5p2XXNt6aS+MDoFgKXDAALAQ3t3T2hdpzftlGrD6BwAAIDv85mmndKm/mB0CABLjwEEgEf27n6sdV3YtF8fnQIAAFB9u0lv6atd3rZ2j44BYGkygACw93b0sqZdWj13dAoAALAq7a7e0/rO6vhuHh0DwNJmAAHg0ZltfZNOatrZ1SGjcwAAgFVi2h83aWszfXJ0CgDLgwEEgH0z2xOrN1YnV2sH1wAAACvX56s3NNP7R4cAsLwYQAB4bGZ7UXVJ9e9GpwAAACvKndUFbei8juue0TEALD8GEADmx/aObtJvV88YnQIAACxr0+p97e71ndzXRscAsHwZQACYP7Md0LTXNums6qDROQAAwLLz0aZtaVMfHh0CwPJnAAFg/l3ZU5vrbdWx+V4DAAA8BsGqHwAAHNhJREFUsq827bea6ZomTUfHALAyuCgFwMKZ7ajuOx/kqNEpAADAknR3ky5tbef26m4fHQPAymIAAWBhbWtNR3Rsk95RHT46BwAAWCKmXdfaNrexL45OAWBlMoAAsDgu76DWdWp1RrXf6BwAAGCYv7//nI8/Hx0CwMpmAAFgcW3v2U06t3rl6BQAAGBRfatJZ3dol3VMe0bHALDyGUAAGGNHL2vaxdXzRqcAAAALald1RRt6c8d1y+gYAFYPAwgA48y2vjquOrd64uAaAABg/l3fpK2d0KdGhwCw+hhAABjvqg5rT2+uTq7Wjs4BAAAes89VZzbT+0eHALB6GUAAWDqu7Lnt6aIm/droFAAAYJ/cUb2rnb29ze0cHQPA6mYAAWDp2d7RTbqkeuboFAAAYK/MVde2ptPa2E2jYwCgDCAALFW/24Zu6cSmvbU6eHQOAADwkD5SbWmmj4wOAYDvZgABYGn7nZ7S7t5cvaZaMzoHAAD4X77StDOb6ZomTUfHAMD3M4AAsDzs6MVNu6R6yegUAABY5e5q0m+3q3M6uTtGxwDAQzGAALB8TJu0o1dU76qeNjoHAABWnWnXNe21ndiXRqcAwCMxgACw/Fzdgd3dadXp1eNG5wAAwCrwsda0tY39xegQANhbBhAAlq/Znl6dU71qdAoAAKxQ32zSWzu0yzqmPaNjAODRMIAAsPxd2S8310XVj49OAQCAFWJXdUX1pma6dXQMAOwLAwgAK8O21nVkx3ffHSFPGp0DAADL2PVN29Km/nF0CAA8FgYQAFaWd/eE1ratOqlaN7gGAACWk8827XVt6vdGhwDAfDCAALAyvbsfa20XVS8fnQIAAEvct5t2fod1Ucd07+gYAJgvBhAAVrbtHd2ki6pnjU4BAIAlZq66trlO7cS+PjoGAOabAQSAlW+29U06qWlnV4eMzgEAgCXgT1rT1jb2idEhALBQDCAArB6zHVltq15drR0bAwAAQ/xr085qU1ePDgGAhWYAAWD1me1F1SXVvxudAgAAi+Su6p1t6LyO657RMQCwGAwgAKxO0ybt6BXVO6tnjM4BAIAFMq0+UJ3aTF8eHQMAi8kAAsDqNtsB1evv/9h/cA0AAMynv23Slk7or0aHAMAIBhAAqLqypzbX26pj8/0RAIDl7cZqWzd2VduaGx0DAKO4wAMA321Hv9i0i6ufHJ0CAACP0r3V9nb2xjZ32+gYABjNAAIA329bazqiY5v0jurw0TkAAPCIpl3XXFs6qS+MTgGApcIAAgAP5b0d2q7OaNrWar/ROQAA8CA+07RT2tQfjA4BgKXGAAIAj2R7z64ubNJvjE4BAID7fatJZ/fVLm9bu0fHAMBSZAABgL21o5fdfz7I80anAACwau2u3lOd2UzfGB0DAEuZAQQAHo3Z1jfppKZtqw4dnQMAwCoy7Y+btLWZPjk6BQCWAwMIAOyLqzqsPb25OrlaOzoHAIAV7fPVG5rp/aNDAGA5MYAAwGOxo59s2iXVS0enAACw4txZXdDO3t7mdo6OAYDlxgACAPNhe0c36ZLqmaNTAABY9qbV+9rd6zu5r42OAYDlygACAPPlwvbvgDY36czq4NE5AAAsSx9t2pY29eHRIQCw3BlAAGC+/U5PaXfnVcfmey0AAHvnhqa9oZmuadJ0dAwArAQuygDAQtnRi+8/H+Qlo1MAAFiy7m7Spa3t3F7d7aNjAGAlMYAAwEKaNmm2VzXp/OqI0TkAACwh065rbZvb2BdHpwDASmQAAYDFcHUHdnenVadXjxudAwDAUB9v2tY29eejQwBgJTOAAMBiuqofaU9vq145OgUAgEX3zSa9tUO7rGPaMzoGAFY6AwgAjHBlv9xcF1cvGJ0CAMCC21VdUb2pmW4dHQMAq4UBBABG2da6juz46pzqSaNzAABYENc3aWsn9KnRIQCw2hhAAGC0d/eE1ratOqlaN7gGAID58U9N+s1O6LrRIQCwWhlAAGCpmO051YXVy0enAACwz25p2nnd28VtbufoGABYzQwgALDUbO/oJl1UPWt0CgAAe22uurY1ndbGbhodAwAYQABgaZptfZNOatrZ1SGjcwAAeFh/dv85H38/OgQA+A4DCAAsZbMdWW2rXl2tHRsDAMD3+UrTzmyma5o0HR0DAHwvAwgALAc7enHTLqleMjoFAIDurM7vzi7odd09OgYAeHAGEABYLqZN2tErqndWzxidAwCwKk27rnX9l17Tv4xOAQAengEEAJab2Q6oXn//x/6DawAAVouPVVua6S9HhwAAe8cAAgDL1ZU9tbneVh2b7+kAAAvlG006p0O7rGPaMzoGANh7LpYAwHK3o19s2sXVT45OAQBYQXZVV7SzN7a520bHAACPngEEAFaCba3piI5t0juqw0fnAAAsc9e3ps1t7NOjQwCAfWcAAYCV5L0d2q7OaNrWar/ROQAAy8xnm/a6NvV7o0MAgMfOAAIAK9GOfrS53tWk3xidAgCwDHy7aed3WBd1TPeOjgEA5ocBBABWsh297P7zQZ43OgUAYAmaq65tfb/Z8d08OgYAmF8GEABY6WZb36STmvaW6vGjcwAAlog/aU1b29gnRocAAAvDAAIAq8Vl/UDre1N1crV2dA4AwCD/2rSz2tTVo0MAgIVlAAGA1eaKXtiaLq5eOjoFAGAR3Vld0IbO67juGR0DACw8AwgArFbbO7pJl1TPHJ0CALCAptUHqlOb6cujYwCAxWMAAYDV7ML274A2N+nM6uDROQAA8+xvm7SlE/qr0SEAwOIzgAAAdUU/2JreXh2b3x8AAMvfV6u3dGNXta250TEAwBgucAAA37GjFzftkuolo1MAAPbBvdX21nVWr+720TEAwFgGEADge02bNNurmnR+dcToHACAvTLtuuba0kl9YXQKALA0GEAAgAf3/7d3b0Ga1/Wdx99PzwwCGoOEGIiHmGiMWaPZnE/lbg5WbbIJF1ur3CykFmTomWGZGVCEyKlBEQzIDASc6WESqiDeCHdLYlKlOZmDZdbNxjUxMTFrYpSN5xNyGKafvRiz0SgwMNPz66ef16uqb7vffff/P5966ntnT+2BLq4uqY4fnQMA8Cj+qmkXtqXfGh0CAKwtBhAA4LHt7wUd7I3VK0enAAB8hU836Zo+1m0t9cjoGABg7TGAAACH5/Z+upV2Vy8ZnQIAzLVHql+rLmuxT46OAQDWLgMIAHD4ltrYaZ1TvaH65tE5AMDceWcr7Wxr7x8dAgCsfQYQAOCJe0vPaENL1bZq4+AaAGD9+9vqdS129+gQAGB2GEAAgCdvuRdVN1U/NzoFAFiX7q9u7KGua3sPjY4BAGaLAQQAOHJ7O71Ju6rnj04BANaFafXrPdJrO7//OzoGAJhNBhAA4OhYblOTtjXtmurpo3MAgBk16T1N2tHm3j06BQCYbQYQAODoWu60aqk6t1oYGwMAzJCPNu11LXZXk6ajYwCA2WcAAQBWx+39QNNubtpPjE4BANa0B5p0Swd6Q+f3xdExAMD6YQABAFbPtEn7ekV1Q/Vto3MAgDVm2r1Nu6CtfXh0CgCw/hhAAIDVt9yJ1WurS6rjB9cAAOP9WdN2tqU/GB0CAKxfBhAA4Ni5vWe30hurM/McAgDz6FNNen0ndWtndHB0DACwvvngAQA49vb0ky20u/re0SkAwDFxoNpTXdlinxsdAwDMBwMIADDGUgud2plNuqF65ugcAGDVvKNJOzuvvxgdAgDMFwMIADDWHZ3UgS5t2oXVcaNzAICj5oNNenXnde/oEABgPhlAAIC1YV8vbNpN1c+PTgEAjshnm3Z9D7e77T00OgYAmF8GEABgbdnXy5u2u3rx6BQA4AlZqd7aSq9pax8fHQMAYAABANae5TY1aVvTrq6+cXQOAPC4fr9pO9rSn48OAQD4ZwYQAGDturVvalNXVudXG0bnAABf4x+bdlmL3dWk6egYAICvZAABANa+PX1fC+2u/t3oFACgqi9VN3R/b+qiHhgdAwDw9RhAAIDZsbfTm3RL9bzRKQAwp6bVPW3o4s7t70fHAAA8FgMIADBbbuqETmx7ky6vnjY6BwDmyHurnS32h6NDAAAOhwEEAJhNe3pWC11XnZlnGgBYTfdVSz2jX+2MDo6OAQA4XD4sAABm255+uEk3N+lHR6cAwDpzoNrTQ13R9j4/OgYA4IkygAAAs2/apOXOatKbqlNH5wDAzJt2b5N2ttiHRqcAADxZBhAAYP24s6f2QBdXl1ZPGZ0DADPor5t2UVv6zdEhAABHygACAKw/+3tBB3tj9crRKQAwIz7TtDd1crs6o4dHxwAAHA0GEABg/drbzzRpV/WS0SkAsEatVG9tU6/unD4xOgYA4GgygAAA69tSGzutc6prq1NG5wDAGvK7LbSzzb1vdAgAwGowgAAA82F/J3ewq6pt1cbROQAw0EeadnlbunN0CADAajKAAADzZbkXVbuqnx2dAgDH2P3VjR3X9Z3dg6NjAABWmwEEAJhPezu9Sbur7xidAgCrbFrdU72mxf5hdAwAwLFiAAEA5tfbOq7PtrVp11RPH50DAKvgfzRpR+f1x6NDAACONQMIAMByp1VL1bnVwtgYADgqPlZd3X3tb6mV0TEAACMYQAAA/tnefrCFdjftJ0anAMCT9HC1t41d3qv6wugYAICRDCAAAF9p2qR9vaK6sXru6BwAOGzT7m2lHW3r70anAACsBQYQAICvZ7kTq9dWl1THD64BgMfygSZd2Hn99ugQAIC1xAACAPBYbus5beza6qzRKQDwr3y6Sdd0Urd2RgdHxwAArDUGEACAw7Gnn2yh3dX3jk4BYO49Uv1adVmLfXJ0DADAWmUAAQA4XEstdGpnNumG6pmjcwCYS+9spZ1t7f2jQwAA1joDCADAE3VHJ3WgS5t2YXXc6BwA5sLfdOgbH3ePDgEAmBUGEACAJ2tfL2zaTdXPj04BYN26v7qxh7qu7T00OgYAYJYYQAAAjtS+Xt60m6t/MzoFgHVjpXprC13c5v5pdAwAwCwygAAAHA3LbWrStqZdXX3j6BwAZtik9zRpR5t79+gUAIBZZgABADiabu2b2tSV1fnVhtE5AMyUjzbtdS12V5Omo2MAAGadAQQAYDXs6fuadHOTXjY6BYA174Em3dKB3tD5fXF0DADAemEAAQBYTXs7vUm3VM8bnQLAGjTt3qZd0NY+PDoFAGC9MYAAAKy2mzqhE9vepMurp43OAWBN+LMW2tHm3jU6BABgvTKAAAAcK3t6VgtdV52Z5zCAefWpJr2+k7q1Mzo4OgYAYD3z4g0AcKzt6Ye/fB/kR0enAHDMHKj2VFe22OdGxwAAzAMDCADACNMmLXdWk95UnTo6B4BV9Y6m7WhLfzk6BABgnhhAAABGurOn9kAXV5dWTxmdA8BR9cHqohb7jdEhAADzyAACALAW7O8FHeyN1StHpwBwxD7btOs7uV2d0cOjYwAA5pUBBABgLdnbzzRpd/U9o1MAeMJWqre20mva2sdHxwAAzDsDCADAWrPUxk7rnOra6pTROQAchkm/10o729Kfj04BAOAQAwgAwFq1v5M72FXVtmrj6BwAvq5/bNplLXZXk6ajYwAA+BcGEACAtW65F1W7qp8dnQLA//el6oaO6/rO7sHRMQAAfC0DCADArNjb6V++D/Ido1MA5ti0uqcNXdy5/f3oGAAAHp0BBABglryt4/psW5t2TfX00TkAc+a91c4W+8PRIQAAPD4DCADALPrVvrVHuqo6t1oYnQOwzt1XLXVf+1tqZXQMAACHxwACADDL9vaDTbq5+vHRKQDr0IFqTw91Rdv7/OgYAACeGAMIAMCsmzZpX6+obqyeOzoHYF2Ydm+TdrbYh0anAADw5BhAAADWi+VOrF5bXVIdP7gGYFb9VZMu6rzePjoEAIAjYwABAFhvbus5beza6qzRKQAz5DNNurqPdVtLPTI6BgCAI2cAAQBYr27vp1tpd/WS0SkAa9gj1d42dFXn9unRMQAAHD0GEACA9WyphU7tzCbdUD1zdA7AmjLtd9rQhW3ufaNTAAA4+gwgAADz4I5O6kCXNm1n9ZTROQCDfaj6pRa7e3QIAACrxwACADBP9vXCVnpzk35hdArAAPdXN3Zc13d2D46OAQBgdRlAAADm0b5e3rTd1YtHpwAcA9Pqnh7p1Z3fR0bHAABwbBhAAADm1XKbqrOra6tTBtcArJY/bdqOtvQno0MAADi2DCAAAPNufyd3sKuqbdXG0TkAR8nHqqu7r/0ttTI6BgCAY88AAgDAIcu9qNpV/ezoFIAj8HC1t41d3qv6wugYAADGMYAAAPDV9nZ6k3ZVzx+dAvCETLu3DW1vc/9ndAoAAOMZQAAA+FrLbWrStqZdUz19dA7A4/hAky7svH57dAgAAGuHAQQAgEe33GnVUvWqasPYGICv8ekmXdNJ3doZHRwdAwDA2mIAAQDg8S33/U3b3aSXjU4BqA5Ud1SXtdgnR8cAALA2GUAAADh8h+6D3FI9b3QKMLfe2Uo729r7R4cAALC2GUAAAHhibuqETmx7ky6vnjY6B5gbf9Ohb3zcPToEAIDZYAABAODJ2dOzWui66sw8VwKr54vVm3uo69reQ6NjAACYHV5UAQA4Mvv6oabdXP3Y6BRgXVmp3tpCF7e5fxodAwDA7DGAAABw5KZN2tcrqjdXzxmdA8y4Se9p0o429+7RKQAAzC4DCAAAR8+dPbUHuri6pDp+dA4wcz7atNe12F1Nmo6OAQBgthlAAAA4+m7rOW3s2uqs0SnATPhSk36lA72h8/vi6BgAANYHAwgAAKtnuZ+qdlXfOzoFWKOm3du0C9rah0enAACwvhhAAABYXUstdGpnNumG6pmjc4A143+20M42967RIQAArE8GEAAAjo07OqkDXdq0ndVTRucAw3yqSa/vpG7tjA6OjgEAYP0ygAAAcGzt7TubdG31ytEpwDF1oNpTXdlinxsdAwDA+mcAAQBgjH39XNNuql40OgVYdW9v2o629DejQwAAmB8GEAAAxllqY6d1TnVtdcroHOCo+0jTLm9Ld44OAQBg/hhAAAAYb38nd7Crqm3VxtE5wBF7oPrljuv6zu7B0TEAAMwnAwgAAGvHci+qbqp+bnQK8CRNu7dpF7S1D49OAQBgvhlAAABYe/Z2epN2Vc8fnQIctg82aWfn9fbRIQAAULUwOgAAAL7Glv579d1N2ll9fnQO8Jjur67uoV5q/AAAYC3xDRAAANa25U6prqjOrzYMrgG+0rR7O9i2zu8jo1MAAOBfM4AAADAblvv+pu1u0stGpwD9r+qCFvvD0SEAAPBoDCAAAMyWQ/dBbqmeNzoF5tBnmnR1J3VrZ3RwdAwAADwWAwgAALPnpk7oxLY36bLqG0bnwByYVr/eSq9pax8fHQMAAIfDAAIAwOza07Na6LrqzDzbwmp5bwv9tzb37tEhAADwRHhJBABg9u3rh5q2u/rx0SmwjnyqSa/vY/1KS62MjgEAgCfKAAIAwPowbdK+XlHdWD13dA7MsEeqt1RXttjnRscAAMCTZQABAGB9ubOn9kAXV5dUx4/OgRnz+9UFLfa/R4cAAMCRMoAAALA+3dZz2ti11VmjU2AGfKxpv9RidzVpOjoGAACOBgMIAADr23I/Ve2uXjo6BdagB6ubOqE39ovdPzoGAACOJgMIAADr31ILndqZTfrl6ltG58CaMO3eVtrRtv5udAoAAKwGAwgAAPPjjk7qQJc2bWf1lNE5MMhfNemizuvto0MAAGA1GUAAAJg/b+m72tCbq58fnQLH0KerK7uv5ZZ6ZHQMAACsNgMIAADza28/06Rd1UtGp8AqWqne2qZe3Tl9YnQMAAAcKwYQAADm21IbO61zqjdU3zw6B46y322hnW3ufaNDAADgWDOAAABA1Vt6Rhu7pGkXVseNzoEj9JGmXd6W7hwdAgAAoxhAAADgK+3rha305ib9wugUeBK+VN3QcV3f2T04OgYAAEYygAAAwNezr5c3bVf1PaNT4DBMq3uq17TYP4yOAQCAtcAAAgAAj2a5TdXZ1bXVKYNr4NG8t5V2tLU/Gh0CAABriQEEAAAez/5O7mBXVduqjaNz4Mvuq5a6r/0ttTI6BgAA1hoDCAAAHK639F1t7Kam/cfRKcy1A9WeHuqKtvf50TEAALBWGUAAAOCJOnQfZHf14tEpzJ13tND2NveB0SEAALDWGUAAAODJWG5Tk7Y1bak6aXQO695fN+2itvSbo0MAAGBWGEAAAOBIuA/C6vps067v5HZ1Rg+PjgEAgFliAAEAgKPh9l7awXY16adHp7AuPFLdXl3ZYp8cHQMAALPIAAIAAEfT3k5v0q7q+aNTmFnvbKGL2tz7RocAAMAsM4AAAMDR9i/3Qa6uvnF0DjPjg9XlLXb36BAAAFgPDCAAALBabu2b2tSV1fnVhtE5rFmfbtovu/MBAABHlwEEAABW2+1995fvg/yH0SmsKQeqO9rU5Z3TJ0bHAADAemMAAQCAY+XQfZDd1XeMTmG4dzRpZ+f1F6NDAABgvTKAAADAsfS2juuzbW3aNdXTR+dwzH2gSa/uvN4+OgQAANY7AwgAAIyw3CnVFbkPMi8+1aTXd1K3dkYHR8cAAMA8MIAAAMBIy31/tav6d6NTWBUPV3urK1vsc6NjAABgnhhAAABgLTh0H+Tm6ttHp3CUTLu3lXa0rb8bnQIAAPPIAAIAAGuF+yDrxXtb6MI2967RIQAAMM8MIAAAsNYsd1q1VL0q90FmyUera7qv/S21MjoGAADmnQEEAADWqtv7gQ62q0kvG53CY/pSk36lDV3bq/rC6BgAAOAQAwgAAKx1h+6D3FI9b3QKX2Va3dOGLu7c/n50DAAA8NUMIAAAMAtu6oRObHuTLqu+YXTO3Jv0nurCzuuPR6cAAABfnwEEAABmye09u5Wuq/5LnudH+FD1Sy129+gQAADgsXlhAgCAWbS3H2yh3U37idEpc+IzTXtTT+nmzu7B0TEAAMDjM4AAAMCsmjZpX6+obqi+bXTOOnWguqNNXd45fWJ0DAAAcPgMIAAAMOuWO7FpFzTp8uppo3PWjWn3trELO7e/HZ0CAAA8cQYQAABYL/b0rBa6rjozz/pH4k9b6NVt7l2jQwAAgCfPSxEAAKw3+/qhpu2ufnx0yoz5h6Zd0WJ3NWk6OgYAADgyBhAAAFiP/uU+yI3Vc0fnrHEOnAMAwDpkAAEAgPVsuROr137554TBNWuNA+cAALCOGUAAAGAe3N6zW+mNuQ9yiAPnAACw7nnxAQCAebKnH26h3dWPjU4Z5E+b9pq29AejQwAAgNVlAAEAgHkzbdJyZzXp+uq00TnHyEeadrkD5wAAMD8MIAAAMK/u7Kk90MXVJdXxo3NWiQPnAAAwpwwgAAAw727rOW3s2tbXfZBDB85XuqKtfXx0DAAAcOytl5cbAADgSC33I9XN1Y+MTjkiDpwDAAAZQAAAgK+01EKndU51dfWto3OeoD9ppYvb2h+NDgEAAMYzgAAAAF/rbR3XZ/qv1TXVtwyueTzvr67pvO5x4BwAAPhnBhAAAODR/Wrf0COdW+2ovm10zleZ9HvVm9vcbxg+AACAf80AAgAAPL6lNnZq/7lJm6ufqhYGlXyhuruF3tLm3juoAQAAmAEGEAAA4InZ0/Pa0C827T9V//YY/MWHqt9p0ts6vrv7xe4/Bn8TAACYcQYQAADgybu9b+9gv9Ckf1+9rHrmUfrNH6j+oEm/04P9Vtv7/FH6vQAAwJwwgAAAAEfP/l7QI720SS+uvrN6dnVqh4aRheoZ1cPV/dWD1cerf6w+2qS/bKX3N+nPW+yTY/4BAABgvfh/9CsUTiPEzfIAAAAASUVORK5CYII=;" vertex="1" parent="1">
                    <mxGeometry x="140" y="166" width="52.27" height="60" as="geometry"/>
                </mxCell>
                <mxCell id="3" value="/usr/local/var/run/upstream.php-fpm.sock" style="strokeWidth=2;html=1;shape=mxgraph.flowchart.document2;size=0.25;labelPosition=center;verticalLabelPosition=bottom;align=center;verticalAlign=top;" vertex="1" parent="1">
                    <mxGeometry x="310" y="181" width="50" height="30" as="geometry"/>
                </mxCell>
                <mxCell id="5" value="location = /" style="html=1;shadow=0;dashed=0;align=center;verticalAlign=middle;shape=mxgraph.arrows2.arrow;dy=0;dx=10;notch=0;" vertex="1" parent="1">
                    <mxGeometry x="200" y="181" width="100" height="30" as="geometry"/>
                </mxCell>
                <mxCell id="6" value="upstream app" style="html=1;shadow=0;dashed=0;align=center;verticalAlign=middle;shape=mxgraph.arrows2.arrow;dy=0;dx=10;notch=0;" vertex="1" parent="1">
                    <mxGeometry x="380" y="181" width="140" height="30" as="geometry"/>
                </mxCell>
                <mxCell id="10" style="edgeStyle=orthogonalEdgeStyle;shape=link;rounded=0;orthogonalLoop=1;jettySize=auto;html=1;exitX=1;exitY=0.5;exitDx=0;exitDy=0;entryX=0;entryY=0.5;entryDx=0;entryDy=0;entryPerimeter=0;" edge="1" parent="1" source="7" target="8">
                    <mxGeometry relative="1" as="geometry"/>
                </mxCell>
                <mxCell id="7" value="www-data" style="shape=image;imageAspect=0;aspect=fixed;verticalLabelPosition=bottom;verticalAlign=top;image=data:image/png,iVBORw0KGgoAAAANSUhEUgAAAhgAAAEYCAYAAAAebI+NAAAgAElEQVR4nOzdeXRc93Un+O/9/d6rHftKgCS4at+szVIkW/IWqx07duw4WyftbJM4+zad6Wn39On0TNKZZJLuzKSTHM84sdOd2E5sy0vblixbtmRZ1r6RFMUFBAhirxW1V733fnf+eIDEBSTrPRQIgLyfcyo+R2EVXj0U6t13f/d3LyCEEEIIIYQQQgghhBBCCCGEEEIIIYQQQgghhBBCCCGEEEIIIYQQQgghhBBCCCGEEEIIIYQQQgghhBBCCCGEEEIIIYQQQgghhBBCCCGEEEIIIYQQQgghhBBCCCGEEEIIIYQQQgghhBBCCCGEEEIIIYQQQgghhBBCCCGEEEIIIYQQQgghhBBCCCGEEEIIIYQQQgghhBBCCCGEEEIIIYQQQgghhBBCCCGEEEIIIYQQQgghhBBCCCGEEEIIIYQQQgghhBBCCCGEEEIIIYQQQgghhBBCCCGEEEIIIYQQQgghhBBCCCGEEEIIIYQQQgghhBBCXGq00QewFVRqzpqeny03MZMuY2qhjIViDUr5p91jRkfUxt5tnRjpS6ArEcFnv3sCN+3qxdU7uvHoizO4cU8vnnp1ETfs6sHx2SKu2dGFcs1FLKIxm6kiEbNgaYVK3cVQTwy2pWBbCsdnirh+Vw+ySzWcTFcABm7b34/5fA2FchONpotcqQGX+dxPAQOKCF3JCGK2Rk9HFD3JCF6ZyKHccLGtL4GhzigeP7SA3UMd2D6QhOMyZrMV/zhnirC0wvhCCW+9fgiz2SoilsJsrgaA4RlGodJER8wCEaFYc9CdjKDhemg4BrsGUijWHHTGLYwNdeCbL81isDsGz2XsH+3Cwy9M44axHgx0xVCoNFFveLA0IVdpYLQniYmFEq7Z3oWXJ/O4fV8fnjqaxg/eMoInjyzi/XeN4fNPTKInGcHYYAf+6ckJfPDNY3jpRA4P3D6KyfkSTixW8MF7xvCN56Zx6FQBP/O2vXj05Xns6E/glr29ePDJKcSiFt5z+yi+8cIsGo6HH79vD545vIhHXp7Fu980ij0jHXji4AIOnCzg1953DTKFBp4/nsFz41n8ygNXQ2uFQ5M5vHAihw/cPYart3fi4EQex+dLeOlEDrft78WP3rsbr07mMZOu4MR8GS9NF/CxD96AXSOdOHqqiMxSDZPpMuVLTX1wumAbw/S7779+uL8rap2cK/UVa26i6Xj6xHx5yACo1J3Y8YXSADMjamu8++aRHpdNJzMYAIiIXc9EcqXGEBso/5NwUUQKprcjumBp1WRm8v8jyCJVfPjl2XzD8UBE2DfUke6I2XXXGLVnuGMhEbWanXGrNratI5tZarh//qVD80oR37ijp5mKad471GEGehO4ansnJmeL+MMvHMTNO7qxoy+B0YEkbtnXh889MYHnj+Vw655e7BxI4qa9vTg+XcJnn5jAXVf14/pdvfA8g79+6Aju3NuHG3b1YFtfAn/11dewf6QT9143iMmFMr59YB73XT+Eu68bxD9/dxIg4H137sBDz82gVHfw/rt24tWTBZyYL+G+m4bx2ccncO32Trz79h348vensGswiV3bOvDVp6dx0+4efPW5afzwm3fg5EIZpZqL99+9E1955hTuvmYA33ppFvdcO4Snj6Rx1UgnDs0s4eqhDmSrDfSloqg2XCRjNjrjNhaLdbw6tYT33r4dR2aXAACLhTreccs2nJgrwXENoAiLS3XEIwo9iSh2D6dgABSKTbw4mcW2njgajgelFHb0J9F0PIz0JvDYoQXsHkpBAdi/vQvPHEljR38SnQkb43MlTKYruPfaQaSLdcxmq0jFLNy2vx/pQh2FahPFShM1x/+bvXZHN3YPpQAAx2eLODpbRNRW6IjbSEUtdCUj2NabwAvHM3ANY/dQB/q6Ynh1Io89Ix0wzKg1POSKDcSjFkp1BzCMwZ44XI8RjWgcm1nC2GAK2weSKJQbOHSygPfcuQPPHU3j6GwRP/HWPcgV65harGAyXULdMRjtTeJD9+5C0/HW9B1+tmTcbuvrXa6sjT4AIa50UUshHtGIWApaA4qImCnuedxnDPd7jB4D9Fua+p8+mukcny/1Lyw1+it1pzNfavRXm16SGCMA1McfOhJTipTrcZSZNQPKM36cwOz/LxGh7hp8+slJqLOOhYmgVfD7Ds8wiM+MRwyARNSCIv/1JtNlEBEMGMfmSyDAEJFnaWoYwwZAnRgms1SfWapQs+mYhZO56tKpxVImU2xkLE1FBjIGyBvDec/jRWZKK6K61mDbUohFNCKWDnz8Qoj2kwBDiHUWszWiloKlaCVZ1AlgBMCArdXgKyfzw+ml+sh0tjqyWKhtM8wjT7622HtgMh9vuibuGRN1PFZsgK++MAOPGUoRLCIQ+QGDtRwUFGsODOCnH5Z/mDotRUWv/zcgFb20f/6Ox1hJijThAoAihjKArQAoRZ0eM07mKsPEwNH5ElxmGMPQREhELRyZLWJ8oQRLUf2LT5+qlupOLWbp3HSmNltvmsVKw51ZyNenba3SAOYApAHMElDUimBbCjFbAhAhLgUJMIRYI6UIMVvD0gpEBEVEStGIJhpl5tHnjmZ2lKrO7oV8bS8Du/7u0eM9mqij4Xippmf00RdLMIZhKT97sBIsVBouaDmIUPD/Nx658MVRKTonK7FZ0GmJEb0S9BDOOd6V969BiJz235kZTZdRdxnEiHncjFmK0HC80WylcaPHgOsZKEXoitn47uFF75nj2bLHXGIgP5+vTdjThan5XO0YM5/SRPNK0awmmiEi19Z+8KEUwXArq0NCiAuRAEOIFtlaIbJ8AVL+3XCPrWkkU2yOvnAss/dkuny1MXzdF5+d2h57UfdU6m5vuelG/u7R4/6/VwqkCZW6C4CXgwdC4jx31LaWEqmzES0HJ3RmZsbWBBsALD9caboGDcfTXG12AdRFmrYfnF668cWpPIxhpOI2KuMZ9/B0IV93TTZmqamTmcrR+PHsa0uV5rGejui8balTSlFeKULU1rD1Zg3dhNicJMAQ4ixEhIitoZUfANiWSkQstWM2X9sZmypcU645Nx+eWbr+xFxxqFRzBnKVZup7R9OIaAVbEzwGYPxlDCg/tX8GTZD66vW1snR0xnnWBK39YM41jKWqY+UqzQEiGtCEa6ay1R/82oszSEUt9CQi1Yn50kKp5iyM9CQOv3aq8MpsvnrQttRMxFKniKislz8nRPK7FGI1EmCIK56lFTT5yxwxW/c3mu72o6eW9ucrzVtz5cYtf/uNYztLdXf7QrHe2XzBIKIVFIDFpfrr2YzT6xksAhCiUFJcOgoAFJ2RBYlYhIilYABky43EQrG+21K0O1Nq3PXMRBYRrTDYES2fSldmCrXmRL7qHDg2vfR8vekeidl6OmbrjCKSTIcQyyTAEFcMIsC2/GBiebmjk4hG5/PV6yoN995Pfuv4DbWGt2e2UN397UPztBJ4pIsNv6hSESz1xnJGRIKIy9JK8HH67zex/HtfLDVS80v1q22trn7i8OIDjx6cR2fc5tlcbSIe1eO2VofnC7XvEeGVqK3nLaUKRLRcn7Mx70eIjSIBhrhsEQF6OcMQi1pgxuhsprKn4Zq3Pns8e+uBk/lrCuXmVf/4xKRlKaDhGvh3oHTGToOIJXekwmctL3sB/hJMTGk0HI+Ozhf3GOY9UUu968WJ3G8mY5b7tWenxysN9+iOgeSz89nqE8bgWDxizShF7C+/bfCbEWKdSYAhLhsEgiaC1kAsoi3X5ZFi1blzPld7y+e/d/KGqXT5pm+9PN+vFMHxDJj9ws2VYkrZvijCICJErDeiBa2BWtOzXp1ZuloTrp4r1N731JE0elKRfKnafLlQbh4oVpuPNx3zbMzWC5aiuiICSV2OuMxIgCG2LLW8hdO2FKKWsh3XDNdc766J+co92aXmba/NFd/0zHgmycw4PFdETKvXu6jKOrlYT0RnZr6UIuTLzZ65pcz9cUvd/4lvHf+NiKVqDdc7mC01nt/Rm/ie45rHYraedz3jvFGkKsTWJQGG2FKW+0wgZmvUHa/f8/jug1OFt4D5B47MFW9xDSdd16DpGUQtDSY/EDnfVlAhLhWl6PVaDgOg4Zj485O5OyJK3fHgs6c+aimqpItdLzmu98wtu3sfcxzvqaitF1a2Mwux1UiAITa1le9V21Iwnhd1Xe+mQs257+XJ/FvH54t31x3TX2268AwjutwiWil/bRyQzaBic1IAQEBs+TPreQzP4+Sz45l7tKJ7xhfKvxOzVWb3UMczpbrznabrfYcIr1haNQBI/YbYEiTAEJuS1v7QNtfjPgLuPzpTuj9TqL3zkVfm9tSaXuTYXBGR5cp8v45io49YiPBWAoaVOqCm66HheP3PHM+8J2br93z8kaPNnmTkRG8q9s1UVD/uefxYxFKLhv2hiUJsRhJgiE3Db5MNKEV7ZrOVd85k8K5/+t7J++qON1Csu7CW22CvtOYW4nK10iJ+JRNXqbuRUt295sRi+ZrOuP3rr84sZa4e7XoiYqmvbe9LPKEVHQ4zpE6I9SQBhthQ1nLhpdbqxlOZ6tvLNeeDzx7L3pivOT2Oa5abYAEx2SoqrmArM2Ysf1ssqk2v/7uHFz4QtdQHOmN2cag7/lIyZn2hb2fsMaXoJVur16fYCrFRJMAQl9xKUGFpdcNsvvb29FLtR148kbstV2l2MPszOiRLIcTqiAgW+cGGAbBUczpz1eZbFfDWyXS52peMHrxjf/8XIpZ+xNbqBUsrNBxvow9bXIEkwBCXhKUVtCYo0FUzueoDp9KVDxbr7m2ZUj2lQGBamaIpd11CtOrslufZcjORKTXuPDBTuHMgFfuDvlTkKSL6Qk/S/iYRvWprhaYEG+ISkQBDrJuVYVC2VtvmctV3vDSe+8lCtfEDc4V6t/SjEKL9VoJ0WyuU6060XHfuG18s3zfUGSt3JiLfi2j1jz0d0W/ZtpqRJRSx3iTAEG1l+UsfiEV0rO6ZH3jkxZmfOj5T/MGJTGUHkb+OLK23hVh/K0F8RBHS5UYqU2q8e3y++O7tfcnZfds6HnGM+e8xWz9pDFctKRAV60ACDLFmKzM/ohGNYtXZP5Up/+TxudIHTmYqb6o2XGhFElQIsYHeCCAIp3KVkals5SNRW31kPld75aqRzs8P9sY/E7P1UZmRItpJAgyxJsuBQ6pUab79maOZj8xkKz9YqDgpjxmWpaRQU4hNZmVZkhk4Nl+66cRC+aanjqZ/f7Az9u17rxv6VCpuPWRbqrzBhykuAxJgiMA0EeIRC4po7FSm+pPfObjwU5Pp8o1N18BSBK0JWoo1hdj0VjKLS1Unmak03zu+WH7vroHUgR0DyX/ShP8ei6hJLSkNEZIEGKI1yzM9bK2o1nDvffTA/M+/PJn/QKHmdBvDiFhKlkGE2KKUIkSXbwqOzhVvPL5QurE7bv9rrenLIz2JT1iaHiciIzNRRBASYIiLitgKYMSrTff9h08VfvFUrvb2pbpDMa38tV0pEBPisvF6VqPudH7rwPxPJ2PWvxzpin/n2h1dn2DmL0RsXdvgQxRbhAQY4rxsS0FrNTA+V/qx549nf2kqW7mp2fSgtUwnFeJyp4mgbQ3XZTqRLr9tOl9729GZ4qGbd/d+vLcj+hlbq8Wa9NQQFyABhjiHpRQI2H0qU/npo9PFX5jOVcY89ovDLFkGEeKKsjJQ0BjG0fnS9eML5b/Y3pf4vV2Dqf/WnbD/1tU4sdHHKDYnCTDE67QiwGDP3FL9VybnSz+XKdX7DPyAQ8sqiBBXNCJ/+cQAmMpWdk5nKx/r74j9ykhv4hPXjtInbEsdMUYmu4o3SIAhYBHBALsXC/WPHp8v/0Ku1OhjWm7vvdEHJ4TYVBQAtbzVNV1u9C6WGv96Nlf5pdv393/63muH/p+opV/d2CMUm4UEGFcwrRU8z+xaWPIDi0yp0U8EWJKuEEK0YKWBV7rc7Pris6c++syxzL/cO9jx9/3d0f9LgyY39ujERpMA4wqj4K+nNrUaXCjUf/e12aWfz5YbA0QEWwILIUQIliJYEQuZUrMjXcz82kBn7Md2D6b+dv+2jv/b0mpWvlmuTBJgXCEU/F0hpKljKl3+pWfHs78xn6+NMcnAMSFEe/g3KYRsuTGQKdX/l5lM5adv3tPzlzeM9f61baklaaNxZZEA4wqgFYEZ+sRc6Se+9PTUvx2fL10ngYUQYr2sTHWdXaqPzr0w+5+OTBc/8t47dvwxQP+oFJyNPj5xaUiAcRlTywPIXI/ve+pI+j9MZMr3uy5Lx00hxCWxktEYXyxf818fPvLJnX2JX7x1d+8fxCLqm0oa9F32JMC4DNHyDpCG4409dnDxY08fXfzZUt21LaUQseSPWghxaUUsBWZgYrFy70Kh/nC23PzUO28Z+SNLq+MKgNnoAxTrQgKMy4xtKVhK2XO5yi9/8emT/+ZUvjYatZQshwghNpTfsItQdz31yIG5nzt0Mv/eO6/q/097Rzr+isCNWkO6gl5uJMC4TBABiZiF6Uzlvu8fTv/h8xO5ewCWlt5CiE1Fkz9qIFtuDHz1hdk/n83VfuzNVw18bLgn9mheEqyXFQkwLgO2pcB19D97JP3vvvL89K9Xmp72Awv5axVCbE56uZHfcyeydx2aXnrkgZu3/c1gV/w/2pZaYMi31+VA8uZbGBEQi2jMZMvv++bLs4999smTv+V5rCVrIYTYKmK2hucZ9flnT/3qowfmvj2VLn8oEdWQ0fBbnwQYW5RtKbieGTp8Kv9Xn3li8svHF0rXxSMaUpkthNhqlPKXTcYXy9c++PTJzx2ZKX7K8cyoFKVvbbJEssUQEWIRhcV8/YFvvTL3nycylWtsS8nWUyHElufvNmE8/PLsv9rbn7oram/7nwd7El+RZMbWJFelLUQpgmdM6tDJpT/5m28c+cpkrnpNzNbQ8tcnhLhM0HIR6FSuctWnvnPiS6+dKvyZ63G3ZGe3HslgbBG2pRDR6sZPf2fir1+dLd4T0YSobD0VQlymbK3gMdPnnjr5u/uHOu79gWsHP2pb6sWNPi7ROrlCbXKaCPGoxqGp/M9/7YXp7746u3RPzFZSayGEuOxpIsRsjWOL5TsfeWn2sSOnCh9Nxm0pAN0iJIOxiSlFcI1JTGWrf/bE4cWPMjNiskNECHGFiVkKC8V6xxefO/XXzLjzxr29v6UUlTb6uMSFSQZjk4r4HTmv/ftvHn/k8UMLH9VE0o1TCHHFsrWCJoXPPT31c599fOJblqIbpbh9c5MMxiYUj2ocOVX4oYdfnPn4RLYyIn0thBDC7/0Tj2gcmlm6o1h1Hhkb6vjleMT60kYfl1idBBibCBEhqjVenSr8+leePfWnlYYXu1KDC2bAGA71XNIkqbnLFJM/nbMNrwTicJ8vsfEStsZcoTb0F1959Z/ecePw/xax1J9IXcbmIwHGJqEUQSlYc4Xanz0znvlN5it7rLrWhK6EHfh5RECl7qJpWIKMywIBSgFkATAgzwGMC7ALXkOAQKQAHWnfYYpLLmIp1Bwv8vUXZ//Pm8e6x7Si31GKmht9XOINEmBsApYCDHP33z1y7BNPHct8UBOg1ZV7eaw2PLz7lm34tfddF/i5xjP4/U8+hxML5Ss6QNvqmAikLMBzQZU0THEWXE2DGwWgUQaaZbBx/IgyKLcJPfpm0J77Ac9t85GLS8lSBGMYz03mfvVT3zo2+sBt239eK8pt9HEJnwQYG0wpgse045OPHP+H7x9LvyURteTOWwF7hzsRjwRfHkoXHBSrTqjrjtgklAYZD5g/AC99AFyaBTs1gA1ACoACrWGbNnsOEOsGkwZBAoytTimCBcLDL8++P1tsfO3+G4Z/TBNNbfRxCQkwNpQiAjOu/tJTJz/90lT+Tamo/DqYgYhWGBtKhnr+bL6CbLkBS/qEbE3KBtdz4PFvwMseAxggrUHtWs5gBuwEVGoQbLz2vKbYcApAMmLh+cncmyt15+s37Oz+caVwcKOP60p3xd8sbxQNggZufvLw4kMHpgtvSkYkuPAx4rbGzoGOUM+ey9RQd1ga8WxFygZqWfCBz8LLHAFpG2RFAGpnobMHbSfB8V4wmza+rtgMErbG8YXSdc+PZ/8HMd2s5WtgQ0mAsQEIBAPc/OKJ/JdmctVdMevK3CmyGtcwtnXHkYyHOyfj80UoJbsDthomBfbqMEe/Bq+aBlkxtGe3yFk/xxhwcgBQEdlFcpmKWBozudrYC+PZLxngzZYm2JaCthS0Irn5uITktvkSU/6H+6aXTuS+NJOrjllSiHiGhmuwayiFeIiMDjNwbK50RRfIblWkLPDUk3DzJ6Ds2Pr9HOOBEgOAtgBPNhxcrixLYaHcGHvo+emH9gx3fKCvM/qYaxjxqIWEbSFqK6nTugQkwLiEiAgM3PzyidyXpvLVsagEF+dQALb3JUI9N1dsIF9qQNKiWwuRBmo5uHPPQ1nBtya3jsGWDZUaWsefITaLqFaYW6p3/5cvH/rHO/b1v0drvLxvuBN7tnViuDcBWxEkibW+5Ap3iShFgMJ1L57IfXkqXx2TSajnYgYitsauoVSo588VqijUHBkEt8WwsuDNvwxuFNtcb3H2DzIgKw6O9wIsBZ5XgoilkKs0Rw5M5b8c0fom29KyRHIJyVXuErAUgQ2PPvHq4qen89WdElycj99cbOdguABjIVdDqe5AyxfIlsGkAKcMzh5d3oK6lhdjgD0wu6s+jOeCrCRUrBswUuB5pbC1wkyutvOFE7nPA9gtNyCXjlzp1plWBGbu/NJTU/90aGbpJinoPD9jGEOdMXSnwm1JHJ8ryt3JFkNKg4ozMLU0SIdZHmGw1wS7DbBSYDsBinSt+lCRFFT3TkBZACQ3fiWJWArj6fK+h16Y+SzAfRJkXBpSg7FOiABLKxgD6x++M/7Jp09kf0D6XFxY3TPYM9wRqsATAI7Pl2FJdmhLYVIw+QnA8wAr4O+dPbAx0L37QX1XgxO9UJGkv911FcQMtiJrajEutq6ErfHSZO6Ozzw+8anfef/1H7It3XBcT+ow1pFc8dYBEaHheFhcquMbz8/86cMvz/1IQoKLizKGsL03Huq5xWoTi4UabLkx2TKYFKhZhSlOB18eYQYrC9bed0AN3wxWNogZxAbmPNkJXv6/sj31yhWPWPj2ofkf6ktG/vxtt4z82lB3HFFbS9C5TuR2bx0QAE2E7x1a+OUHn5n67YSt5ERfhAEjZhN2hi3wzFVRqjuyRLKFECmgWYSpZf25IwGw14Q9cgcweicM4G85NQ6YPRCbCzzkQnIlI/IzGQ8+O/2rTxyc/21N69FtRayQ69460JpwYqF0/4NPT/1nQBq7tIIZiNoa2/tDtgjP1FCsOYCsrW4hBFQzgNsINrSMPahYJ7DtTSDjSNAgAiEi2Irw8IuzfzQ+V3qnln3t60YCjDbTinB8tjj0N19/7ePFmhO35cPbEmOAvkQEQz3hlkgmFoowkA/0lkIELs4j6CI4ewboGAWinYDMExEhaE1Yajjx//rVw//fq1P5UZldtD7k+7iN/Jsw0l97bvovj8+X9sds2THSKscY7FpDgefUYlX6X2w1bMC1dIgnelCp4bVvaxVXtJilMZ6tjH39uZm/8QBbEs3tJ5WHbUIE2JbCg0+e/JVHX5n70bAXyvMxhtFwL/3e/ZXiJyKCVgS18mjzz3E8gx394Tp4VusuXptbguMZ1AJmyw0YxACT/x4t8t/fetzRNF0Dz1zadL7B8u4J8uuCFPnvbaODMV6pv6jmgKA7f0gByUHI6rlYq6Rf9PnenQPJ337/XTv/tOF4MCyfq3aRAKNNyF8aufHz3z/5x0TBlpQvxjWMsd4E3nzVwHkr5NtNAfAYyJYb8DxGteGiVHeRLzWQKTVQ8/xgRytCZI0tz5mBqNYYGww3QbXpevihW7fD8Uyg864A5Gsuqg0XxIxyzUWp7qBQbSJXaqDprQRXQNRSa6qlMYZx//XDGO6KXcLfIaHWdJGrOmBmlKoOyjUH6VIDhWrz9ZUJ21JtDaiYFEhdOHtHygYqi0BzyW8V3vKLe0C0Eyo5BJACt9o7g835l1OU1d4/2FYxA2DwJS0+peX3e4l+3CVHq5zX859bBb+dwJefPfXvrxrt/Pbuoc7nZEdJ+0iA0QakCOyx/uQ3j/9lrtxMxiPtXRppuAZ3Xj2Aj7xrf1tfN6im46FUdZGvNDC5UMahk3kcmS5iIlOGYwyilg51oTJgJCMaI73hhlx1p6L4mXfuC/Xcs9UaLip1F0vVJk4tVnF0uoDD00s4ni6j0nARtRTsgHfcBn6r+J97134Mdq/fIK+LYQZqDQdLVQeLS3UcnSrg4KklHJ1bQrrUgCZC1NJrutYyKahGEcifvPC/UxpcmgF7bqAGWwx/donJj0PlT4JaCNaYDRDvArp2wf9tnI7AhUlQNe/varkE2I6ArTigbZCOgSIpYGXAG/NyILQeFzkCjAOkXwMZdx1efyMxYEVh7BiILLAVBVkxcCQJUhH//3+ec2spQr7STP3Dt0/81f/64ze9VZOqexJktIUEGGtERLA14YtPTf3Wi5O5t7Y7uAAAYwx2DYW7u2+niK3R16XR1xXFvpFOvPNNI6jWXRydXcKjL8/h+0fSyFWaiEd0sHbdBuhK2tgxEG6LajvFoxbiUQv9XTHs3daJ+28ehusaTC6W8fiBeTx+aAEz+Spitm55mcHzDHb0pZCKbWxNDhGQiNlIxGxs603g5t29+DD8Lb7PH8vi0ZfncGimAIAQs8NdbElZMPlJOEe+ePHMBKnA3TuJNOCU4R79Glq7CBPg1WHtfCuoZ89ZLcIJTICZ+A5MYWK5w+elQ8sXQbKTQKIX1LEd6N4JivcDOgI2LojbuCyqNKiWQ/PIF/2MzmWKtAXoGJQVB+yE34CtcyfQOQqK9/rB7Vm7j2K2xmtzxTseen7m9z78lt1/aMhq//cAACAASURBVDy+ZJnGy5kEGC24UMrM0gqzudq+Lz4z9e/sdVjXZmZ0xGzsGAhXn7DeEjELt+zpwy17+jCdruDB75/EN16aRdMzLS+dOMZgZ38S8U3ajMyyFPaNdGLfSCc+cPcuPPjkBL707Ck03dbeY9NjjPQnEI+t56TQ8Lb1JvDeNyfw7ttG8fSRRXzmsQkcnisGDxQBAARUFkCkQVZ0XY4XIJDVejt5BoO6x84pCiUicKMIbhRAdmx9B62d78icCkyjBJTmgIWDgB2HSo1CD94A6r/Kz2x4LtqS0SAFLs3BP3/r9bvZDBjw6vC8GlDLAEtT8OZeBEVSUJ2joOGbQT17/YDytEyOUoSvPT/9b95y/fAXhnvjhz1XAoy12pzf6JtMqb56OpEAxCyDf/7uxB/NLTV6UtH2f0E5HmN7XxyDnRuXWm/V9oEkfuOHr8M91w3i418/imOLJbTSHt01jJ1D4fpfXGq9nRH8wgNX4+Y9vfgvXz6MbLlx0SCDmDHWn9z0y962pXDv9cO4ZW8fPv/EJD77vUkYcMtLQkwKcGvwKunNs8ODPSg7AcS6zrlrZ9JANes36dqQDXUEkAbp0743jAdTGIcpjEPNjcIauxfcdxXIGPCaJ8ASTGVheZLs5fzVv3xeAeD0r2SvDi9zFMgeg+rdA2vsfnDn6PLv318qyZWbqU8/fuKPf+bt+97faLrSRnyNNsm3wOa2UKiu+siXG3j2eOadj7+68KHkOiyNAIBnGAOpKDqS4QaAbYRb9/Xj//hXt+EtVw2i3LjwWu/KV/6O/o1fHgni9qsG8G8/fCOSUQ33AjtDDPws12jIBmIbIRWz8ZF37sfHPnwTklELzRZ3LxER4FRB9SxIbY6vFjYGiHQAsS6/FuN0pIBqBsapb0yR52qIQDoC0hGY0iyar34O5vg3/NqJNSzhMBHYNMG1DC7jCs8LIw2yIiBtw2SPwzn4aXDmMKDf+G6N2RpPHUm/78Xj6ffWmi4qDWfVh2jN5vgW2OSqNXfVR77UiDz8wux/rDtGref309jg1rk4rejviuL3P3wD7rt2CNULBBn+EpCFkZBbVDfSdWM9+Ll37EfTO/8FmNif5Lh3ZONraIK657ohfOxHb0JnzIZzgff4BgVVXwI71Q1YbjgPZqhEH2AlzqpnIJBxgMripu20S9oGQcGbfgreaw8Cbi10kEGkQM0KqJY/M2NyhSIrCvbqcI98BZwfB5ZrgYgAxzP0yItzfzDSm0hcu70b+0a6znmI1kiA0YJb9/Wf87j7uiEsFuofOjBduDu6xm2aF8IM7NnWuW6vv54SMRu/9yPX45Zdvag1V0/vGgN0xm3sHNh6QRQA/OCto7hpezfqzurvz2M/A9XfsTXXvG/Z14ff/cB10JpgLtbDgwhcmgNvqu6aDOoYOeemnQmAcWHKC8G2yV5q5NdLeJmjMK99GXDrIXe7KKCxBK+xtHmCvw1GZAFuHWb8m6BG6fXzalkKR+eLt748nvvJiK2hgHMeojVyrlpwbKZ4zuPIqaXUE68ufoyZ1y27auD3X9g9vPXuflck4zZ+44evQ28yAs879wLlMWO4O4HOxNZZAjqdbSk8cNsoVnlrAICmZ7BzMIV4bOuueb/5mkH8+N27UD1PEHU6f41/My1cE5AaXOU/E7hRAjeLW2J+DVlRmMwR8MS3/VqXoMscREB58axdNIJ0BKY8D144CF7ODikAIOArz5z63UrNSdEW+HxsVhJgtGA2Vz3jkS7W8dThxfcemClcH7PW726APYPBrhh6t+jd74qdA0n8xFt2o+aee4EynsGeLbgEdLqbdveiLxlZ9Q7fGMZITxzruoZ2Cfzovbtxw/Zu1M9Tj8HL9Rdcy2+qAk+KpoBo1zlBD5EFVNOA19g8x3sxdhTu3AswmcMhlkoIprzZgr9NghS87Gsgt+Z/juG3ET80s3Td919L/0Q8oqEVnfEQrdkif1kbK2rrMx4xW0UPThV+h9b5b9UxjKHOGLpTW/Pu/nTvum0Ue4c6zikY9JgxNri1CjzP1tcZxY7eJJqr3B1GtMLOLf7+ACAW1fjwvWNQ4FWvUf7o9TJMLe1nBNg7/yP0lku+8Oue9WDPBUW7lgs8zw5u/QuucZvYOkWP/nHy5HcBp7Kcybg4JgK5dXA1vXmKWTcR0hZMNQ1TXzpj+YkIePiFmd+czVajc/kaTn+I1mzdvO0l1NPxxgXeshRm0pX7X5sv3rneY349Bkb6w939MgN/+/ARTCxUEGmlaZJhWJZCbyqCvo4YhvsS2DGQxNhQqi1fv8mohffeth1/8bXDr2/rZGakojZGQ9ZfHJst4psvzPjdjy/ybw38YsueZBRRS6O/O4rh3kRbghtLK/R2RM6ZM8LMiFgKe7aFW+KaWCjj7x85BsDvFnsxbBjJuI3elI2hrgRGBxLYNZRCd6o9GbC7rhnEVcOdODpfWmVrrgIaRRBZfk+JCx6nc0b/gVYxWSA7gpYDe+1AdYwAOgpa3oroI8BrgqvpEPUXDPZarzEhRcsZkvZ8V5C2YSrz0IuvgrbfAbRQfEukwM0CuJ4PsbuH19aUK2y9BzPO7bp6OtXGYMkv+KXyIpAaAuD/fqOWxuHZpRu//+rCe3YOpR5sdTeVeIMEGC1YuQgxA9GIxlefmf7lesNDYh36XpyOCNg3HK7Ac6nSxGOvLmAqVw3U2prZzyooAL3JCMb6k3jr9cN42y3b0BFfW6OoO6/ux8B3oyjVXViK/BHtKRvb+8LtIHnheAafenwCHVGNi88nIhAzDPwLv1KEnkQEe4Y68OF7xnD7VQOhjmFFTyqCsy8izEBXwsZwyPbgx2eKePjAPJItdgBVyz+TmeEwI2Fr9HdEcf2Obrznju24cVdvqONYYWmFe64bwsGZpXMDDOMCqW2w3/SzuODFVFlwj34FJnciWItwz4EefRPUzrtBXqvBCYN1FPDO3FbIRCCvAapkAg5aY0DZULHWzyMbx99V4zb857MfJKzp4kga3uJB6G23tPgEBWqUwM1KwM6p7Ad1a9h1ErobqbYvsnTFgFv3tyG/fl516ICGjQGaZZx+q0IEOI7Ba7PF/+m+m0YebLqeJIACkgCjBVPpMgB/GmWp6ux/6UT2Xeu5c2SFRYQ9I+ECjFy5gVzFQWfUDv1HUW16OHCqgOcmC3joxRn8ynuuXtNFarg3gb2DHXhmIgtLaXjM6OuIoqcj3AV4NldDMqqRCNkBtNr08PxEFi9M5vGxD92I+28aDvU6ABC3rXOyKE3PYNdAComQgdnEXBHJiELCDvmlyUCm1MA3X5nD44cW8MCtI/jFB67BWtrZ37SrB6moBY/5rC6fDLYib8zUWBX5mYRGKcRPNqDuMVC028+AtIiZz7nAERFQL4CdEgitnwt2m7C33Qi15x3wTAvdNYmgPBfGa4KaFZjyHFA8BV46BeNUl7uRBv/jJKXA1TS4sgDqGL14NogIXJy9+PGehd0mrL33gQau8/twBKJAxvWDydK83767pR/KYKVg738PKDV8/uZiDMA0/XNbzQLFU/DyEyGCqNN+rlOBojOn29iWwsGT+bc/czR9Q9RSB43UsAQiAUYLGstbLCO2xvHZ4gcXSvVUss3j2M/mGkZ/R/jtjdPpChrNtWVZLEWwlEbMBo7Pl/Dv//El/MlHbsf+0fDbZm8Y68bTJ7IA/BqTXUMdoQIgxzWYTlcQCTrq+zSWIlgRC1XHwz9/dwJvvro/dLvy5ioFrE3DGO6NhS7wHF8or2msOhFga384m8eMzz09jbrD+L0fuT706+4e6cBgRxQzhRrOXiIkXq6ROB9lAdUsuFkKlqpnBtkJULwHbNzzT0VdxarvkjS4tAjjNlu/8C2/GncMw0Q7ALfe2lMs8gOa5CBU7x6AjR8YzD4Hb+Fl0HLXyUBIg90aqHAK6Nje0lO88lyw+IIZZMWgunYC8V7/vAd5ulJArQCuLwXMgBgonQC6x8B28jzLMwz/N0t+UN+9Gxi5HXZ5Ht6R/wGvHCCgOf01vXODKEsR0uVmdD5X+dBbbxo56LSwk0q8QYo8W5AtN5EvNZFequvvH0n/5Fouaq1yPYPh7ji6QhZ4Hp1Zams6Lx7RKNVd/L8PHYGzhrXIfSOdr++U8zwO3USsVG1iOltFpA0V3QlbYyJTXlPxVr7SPGM4kgFgE2HPYLhgrFRpYiFfa1vFuiZCV8zCQy/N4LuHFkK/TtTS2DGQgnOxnhirIQVTz4ObwRpxsXGhot2AnTq3G2dIVE0vB0Mtnl9mfzhZcgDwmiA2LT2YPT/DYBy/JbVxQclhqKveB2vve+AvRoY8l+WZi7YPZ1J+QWi9EGi3DBsPFO2AiXbCLB93kAcZBlUWAK/FQOy0n4tkP6Bs/4K/6uufdk5XzqvXBDpGoPa+y89gBM40EMiOrzp3ylaEgycLP96bjEb7OmPo2wJjGzYLCTBa4Dgemp5Bvty4PVNuXB98AFRwHjOGe+KwQgYzJxcrbT4iIBnRODhdwGvTS6Ffo6cjilRUwxhGNBJ+h8XJhTKqTff1bWVr5Xp8TpFmq5iBUs09oyMkMyMe0dgZMoCaK9RQajghho2dH5F/R/a1Z6cv3jTrAoa7Y+Gez8Yf6hXmefFeIJJc83RRf0dFE14tE3B7qvFHgMd61h7kGAfwHKjR22Bvvwu8yp3zxRFMLX/R80Hk11+gsQRSwTIJFOsGhTznrDRMaWG5IDbAZ5gNVGJweRtusM+Y8Rqg1BAo1hW82RsRoFfPFmtNOJEuX31kOn+3VoAsk7ROAowWJKI2ulMRZIqNd2crTWstaetWaSLsC9lgq1RzkC7WodZhl4vrMV49mQ/9/MjyVt+mYfQnI9jWG67A81Smirpn2lt0FfJ7o9JwkKk0zsg2EAOpqBV6Bsl0uopCzVnTEslqIlrhxGIZi0vB7ixPl4qHy6oxG3BpPnjfCSKo1FCon7nKi4HdGkxlMdAFl40HnRoCW7EzxnyHxzCeCx65FRTrBXPAXTWKALcJOLULb1clAtdWskZBLvQAJQcR7hJBIOP622KDrcsApEDJ4TX0JiGQjgX8uX5dCyJJrLZzRRNhqe6q8bnSu7KlBhZkm2rLJMBoQX9XFB3xCMbnSg9Yl6iMWBFhT8j5FdliAwvFOqx1CIQ8ZpzKVkM/PxXV6IhZ8FxGTyKCga5w6caJdGlNd+GnY2bEbA27le28qyhWHGSWzjzfTcMY6U2gIxGuwPPkYgl88a0xgTEBddfDfD7877AraQduCLmSqjfNpRCdMwncMdKWJlFEGqjnQW4t0EWMjAEnBpdnVrTnc0fsgaJd0F3bW9puesZzQYBpgr3aRWepmHKIrBHYLyANs0WeFNip+AFGkPoLNiA7Dkr0XLiW5+IvFOLfa1C087yfsbil8PTRzAOZQo0qteaq/0acSwKMFtSbLpymu2+xULvxUgyJ9JjRFbcx3B3u7n4uW0Gx1t70+gqlCJXq2qcJeszYMZAKVWPgegZz2RqsNv0yjGEMdkTRFTIYWMhVzznfrmewfSARuoZiYqGMkJtHLkiB4LoGS+Xwv8NoiAMjpUC1PNCsBOs9wR4QTUFHu9a8PLJ8IODyIthzESR1z0pDJwawLl+ZyaFwbTLYgMxF3gczUAlYc8MeKJIAx7tD9cBYmaprGkt+x9RWfywYykqCYz1raGluwG49YL8PA1gRINZ13uwUEaFQaV7bdHFtw5ElklZJgNGCYsXFc8ezd+WrzVS7LmoX4nl+e+mOZLgL3vHZ4rru117LjaRZ7rPhGcbe4XD1F8Wqg1Nr3EFyuoZhDPXE0ZUMl/o/Nldc9b/vGQyXgao1XEylK+vakngt2Z9yzQkxgVQBlTTgVBHowm486FgPOJKEuWDjpZZfEVxZBAVZo2fP336b7AeCLmVc9LUZFOtG+K/i859Lv8FW2W/fHmC5lI0Bol3Q0dU6oLZi+XftBgxiPQNODoCs4Esc/k8lwKmD3WBLGOwZULQHZMXOKNQ+naUIhWoz/sKJzN1FyWC0TAKMFuwb7YRtqdsr55kI2m5Nz2BbbwKxkLew44tl/49tHTAz4i02flpNpeGiUncR0Qq7Q3a4nM1VsVRrtu3Ty8wY7UuE3k46MV8+5/WSEQs7QtZfzOdrqDTddclAAQxbK3SHDF4BoFxzQUH75LMHriy23N76jecxEO+HseNrrn1gUlBODVxdBAepvwBD2Skg1rsuw8LaVah87utqUL0AXu6w2voTGSreE/qcsyK/mDdg9oPZQKW2+VtcQ2BS4Fp2ebtpkG3QBpQchLHiF8yS1R0PMVvdsb0/XGb5SiQBRgu+8OQkvXIyf3v8EjTXAvxliL0hCzzrDRfpNm5vPBsz0BlyKQEAGo6HUt1Bf0cEQ93xUK8xtViBx+378Goi7NsWbjtpw/Uwm6uekTFiBpJRjR0hd5CcXCyjECpLcHEGfm+MjpDZGgCo1IPewRFgDEw5TIGngkpta0thpQKB3Sq4lgMFyX4ZA0r2hxgwtr5YaUBFcN67fQK4mgO7DQRdg1GpkZBHRVDLbdgDP1NZfpYo5M0RK738fuvBakeIoJIDF/1s2pbCsZnS7YWyI9fNFsmJasF9Nwx3Z4qNq9frTuNstiKMhVw+yBQbyJSbbd99sMJShJHe8NNPC+Umyg2DvlQ0fIHnQhHNgEVxF6KIsCPkPJRCuYlsuXnGdmLXMPo6Y6FngEyny/DavUNmGTMQsRX6OsPPJ0mXmoGyK0wKaCwBjSIQ8O6UlAKlBtpS4MlE4FrOn6Aa4KuPjAdKDgE6+NbJi784gGY18OsyGKRskBVdtXfD8j8CVxYQfLQ7lmdyBMdE4GYVppYPWODp131QPHyBJxkXXFkM+CwGaRuc7L9oxkWBkK009ty8p29tcwWuIBJgtKBYdfZ7zF2X4mQxA3FbY3t/uABjJltBptxYlx0kAKAVYWwofIAxm/W/TIf64oiEWAIyzJjL1toWQJnljqlDPeGyKfO5GhaLtTPOt2MM9gx1hMoiMfs9TNar1scYxkh3HF2JcBkM1/M7qFoB1vT91tZZsFtd6b3YGvaAaDdMrD0Fnqw0uDi73COh1eNnvwAwObjmn786ApolBA5cjB9g+NtmVz83zC64NBMsvmAPFEkBsa6QBZ4K1CgCjUKgYl42Boh0ALGeQJ1aX38+Echz/IAqSJaMjX8O4/0XrTchApqu6Xzi0PxVgQ/wCiUBRguePpLe5XrGXo+U9dlcYzDSE0dXPFw6dj0abK3wmJGMWRjtCx9gnFgowwDYH3IJaKncxKlM+wo8m57BSE8i9A6SyYXSOTfXxhD2DoULEB3Xw8mAF/Agmp7Bnm2p0AFattTEUuDlGwJqWRjXCZS6ZuNBxXtBVqItBZ5kPHA1EywbwgawEqBEf7DC0NaPCqaeC5Gh8YtDz1fTwqSglgecBckasTFQsR5QpDNcQzEif5dO4H3MDEoNhphuu0LBOFVwoxBoBwkbAxUfWJ6hc+HfARHB9Vh//0h6d8iDvOJIgNGCqUxlR825NJP0HJexvT+JWMiZGBMLpXUqDvTnf+wd7FieHBqc5zFOLZZBRLgqZM1DpthAptJsW4bGGMZIfxw6ZMByfK60SgdPhZGQE2IXlhooVIItQQRBRLh6tDv086cWSyjWnQCbEghsXHB5HhSiwJMSfWAr0pYCTzg1oJYN2KacQXYSiHa0rU35G8dEgFcH1ZeC16Ywg+J95z2npDRMvQA0lwJuC2Yg0ed3LQ11zhVMZT5w9oPYg0oOhy7wJFJANe23DA+UwfD89u/64u+XCFiqOxjuiY+FOsgrkAQYLbh5d8+OeqP91eOrYQLGBsLd/bqewal13N7oMePaHV2h25cvFGqYzVcxmIqgP+SSxMnFMtw2NdgC/ILaXSHPNzNjJlM5I/D0GOiIWdgRsgX65HwJ5aa7PgWehtETs9Y0rG5ivoxagONjAmAccDlg6hoAtAYlh9qyPEKkAKcMr54PNgiLDahjeHkXRnvrL4g00CjB1HIB+zb4g+Uo0Xf+c8oAyouAG6zfh19/MYww79UPmBpANRewa+jKMtRA6FOsSAHlBbDbRLD3q0GJ1ksqjGF0xKzR4Ed4ZZIAowWVujt4KRpsMQNRS2FnyBqHhaU68pX1KfBkBuKWxl3XhF+LHp8rYW6pgZGuGAZCDgw6MVeE18atgn5NSbhgIFtsIFduwj79fBtGdyKC/pBFlDOZCurrlC2rewZ7t3ViZ8iACgAOTOZhBwgwiRSoVgA7FVCgzyWDyAY6hkPVAqxyIH4BYMDeDMxm+c56HbqeEYFqOX8ZI2jzMTsOJHovsLTC4PJs8IyA0lCp4VAXeiIFNIrw6plgbdjhAZFOf1puqAJPgmec5Z0rQQObKJAabPkzppRCeqm+XgU5lx0JMFpQqjidwb4cw2JEtcLOkA2a5jIVpEuNdQkwGq6Ha0Y6sTdk7woAePrIIjwG+rtiSMSCLwExA9PZatvu7j1mdMbs0P0q5vJVLBTrZ2x5dAxjz3BH+CF16TLUOhZ4vuPmbaGDl/l8DUfnisHqX5Zbc7NTDzbN0/P8BlR28vy7JAJR/h19kGCFGcqOgpN9aPvuEQAAwSxNBa6/YMN+QWT8fDNMyB+oVs0iUFMzdkHRbiAasv4CKwWe5WABk2FQJAWOpMINViMCeU1wOR1o+zHDA9kJv5alxZ9rEVCpu+Ej9CuMBBgtKNedrktRf2EMo68zGrrGYTZbg2vW55fKDPyL23eEvnAWyg28cjKPiCbsDxmkLFUamM5WEW3TBdjzGNt7E0iFLPCcSVfR9MwZ59s1BrtDF3gaTGcqiKxDgWfTNdjVn8RdV4ffYff8sQyygTNkDJTnL97S+pynef4SQFsabC3XgQTszcDwQFYCKtYbfDpnC8dEbh2mMBl83gcbqNQgYCdXPzdKAfUlmGYp2NKLZ0DR7tAXehDBlBcQOBhjA5UaDl3gSUSgRsmfcxPkNTwDlegHdOs1PkoRcqXGcKgDvQJJgNGCUs3tvhQj2uuef3FKRMIVeI4vlKB1+++06o6Ha0e7cO/14TODzx/LYi5fg1LAvpFwNQCFqoOFYh26TRfgpmcwOpBE1Ar3xXZ8rnhOgWfU0qEzIrlSA3OF+jploBg/fMeO0A22PI/x2IF5BIkv/TV5B6YSrHPmCkoMgNXah4spKFCzDFPNgoL0ZjAGFOuFiXa0Zw7KaUhZ4MoCuJIOVhPiHxh0957zZ4RIg2vZ4EsvACjZD1rDOefybLgdMalt4SeokoapLvpZm0AZG+PPgdEXaFYm1kQCjBYoujSfPmZgrC8ZKoXNDEzOl2GFHnO8OmMYWin89P17QvWtAADPMB55aRZMhFTUwnDIHRYn58ttbbClCRgNOS4egD8v5KwCz664jW0h39/kQgkNx2t7m/dyw8Xtu3vwwO3bQ7/GwZN5vDpdQDTIBRoAvCZMJROw/gJ+U6vUcFu2hjIR0CiCG4WAtQ4MpIaC735pCcGkXwN7wYoSmT1QtBPcvfP89QrMy8tBAc8dEVRqW6iaF14ecOYXeAY5Xwyy4n62KmSmion89+sFmBPDDLIs6GS4hmKiNRJgbBIGfoHn9pC7DxaX6siW6239jTIDVcfDT927C3esJbV+NI0XJ3OwFWGwK4a+jnAFkJPzRQQdgXE+BkBEa+wL2Y8jX2ogXayfsWOHmZGKWxgO2wI9XUG1zQWeTdegPxXFr/zQNYhGwgWIDODrz02j7nHADswaVMuD3WADzsAM0hFQoq99E1SrmRBzRBiUHAx/Z30+avm8ZA4HzjDA80CdO4B473mDL2LjDxtDwOyFtsGpAYS5myfSQLMEr7Hkt/xuEbMLRDqWm6mFK/DUbhOoZRDsy8+AdAyc7Fun/iYCkACjJYbXaXLYaYgZMUtjZ8j5FXOZMrJVB7pNX4bGMKoND++7dTt+4v69oV/HcQ0+/+RJMAMuM4Y6Y+gM00WSgROLFbQrlUkMxKI69HbSuVwV6XLjjI6bjmGMDXWEvpBPZ6uhnnc+dcdD3Fb4vQ9ch90hAykAePlEFt97bREJO+gcEQ0uzwNuPWDvCQ8U64Wyk+edbhnwQIBSwNQ9M2AnoBJ97dnFcsbhaJiFl2HqSyGWRwA9eP0Fgh4Cew1/x0ygraLuclFtKlzNC5E/tbVZDfZzPX+wGkVSoQpLV/qbeOXFYK3JwSA7BUQ62zSlV6xGAowWdMStgteWSvbz8xjoStgY6gp39zubr6Pe8IJMZV4VM1BremACfvZte/Ab779uTV0lH31pFs9P5pCwFYiBPSEvdOVaE/P5augi07M5nsFIdzz04LbZXA3VhntmDwwP2BcyYHFcvwV3OzqUuoZRbrjY1Z/C//4zt+LOq8PXzjiuwWe+fQJNzwTfvcMGppYLfoFebn5krFgbhpz5vRm4kg6WRIEHFekAx3va22BLWaDyPLzZ55dnmwQ4Js+BTg1Dde8Gm/MsBygNruUCbwtmzy+qpUgy9AWXSnMhnsX+ttiQ93BEBK9ZBJxKoKUs9jyojm1+pkzKL9bN5hoPuEmlYvbSOscXcD2DXcMdiEdDjmhfKAYL4E/D7F9wXc8gamm8eV8/PvyWXbhpd2+4F1w2n6/hv31nHBGtXh9JvSdkB89cxcFCsX0zVhxjsL0/GTrbcHKVjqmaGLtC7iApVByczFRCF7Aaw2i4/qVhuDOGf/GmEbzv7rE1Tb4FgK8+fQrPncwjGfA8MS1P1awsBl8GAC0XeCrQWpuqKQWuF+A1CoF6M8AYULwbsBPLO2DWjkiBjQMz/k1wswyyAi4VsgEN3+yPUffOM9GWFKiag3GqAV+fgHg/QFa498sMU1kI/jwAJjWM0H/WpKDK83A9B6Rb/6wTM5Ac8IuP///27jxKrqu+E/j33vde7dVdXV29b1JrsyXZsixZeMM2xsZgAsZgIEBm2HIYsp1kMks4mUlmzsxkJmcmb+IpeQAAIABJREFUIYQ4BJKBJISEJWNzwEBYjFfAxsbYsjZL1tpS73utr9579/7mj1ctJFuy6r0uqVvdv885dY6Pj6rqVVVXvd+797eo+rdItCZk09GxMIe6GnGAUYd00spTA7tHnktVafS2xEP1eCACDp2ch1L+sviF/u3C9clCvB+PGBjsSGFzXzNu2dqJLQMtkItMBNBE+L/fO4TR+SpStaApYoSfWnpqqoiS7SERMgB7JSKgdxEJnkfHi2dVe2hNaE5YaA/ZofT4WB7zZccvubvAW69qf4oStU6ZANpTUaxtT2Hnhhxu3tKJXHP4aakLDp2axxcfO4K4GWZVRYC8Cqg8GbBLJUGYESDVDtGQhmoLvRkKQIATEIggG5gAuHB1rY88DDV7JHBwQcqFTLZDtG/xZ6qc9x9qiPIkgm4lCkNCpDsBhBk0JiHcEqgyF7BNN0FaCchYJnSCp4SAKi0ktNb7+RJgWpCJHCjg++QRkIyZxcAHukpxgFGHZMycaGDzyFchgt9gqy3c9kGp4iKbjOKa/sxrtgknAPGoCdOUyCQj6GyOobctgd62FDqbY6Hnn5zLPz9xDI/uG0Oq9phKEdqbY8imw5VJHh8rNiz5kQiIWQYGQ/bjyJcdjMxUznqvFRGaE5HQU1krjsamnmZEjfPXkBD8OvxE1EQ8YqA1HUFHSwL97Ul0ZRPoCJlcei6zhSo+9c39KDkeYiGqh4QwgPKU3zo66HRLK3F6uuWiP3IB6PwwQrW+Tnc3poJEWiDtgo48DDXyMz+ACnwwBLPnBlAkVas8ORcBaA8qPxxw1YhAMgKRuPDI8nM+q5AQ9jyoOh+sg6f2IBM5iHgGOsRnTUL6QWxpKmB1kAZZcX/mig72vKQI7ZkYr2DUiQOMOuw+NnsyFr146SoahHjECN0iPBm38Icf2H7Bf0eghuUwvJZHd4/ii48eQeKME5OrNTozidBjwg+N5ht1eNAgxEwZukX46EwZc5WzB5K5mtCTTSAVC7clcfOWdty4uQ3iNX7uCAQpxaJXly7E9TT+8qEDODiaPx0gBiYkqDQB8txAJ1TSGma8HcKMBb66PM+BAKWJYPHF6ZHlmdAJniSEP79ECKAwCn38Uajpw7X3ItjnR54Do3UddOdWiNcoxfRLRSsgezbYRFHlQTZ1nO6aGvivSwhQeRrkVSDMACMAiIB4xh+XroK1cAf81Qv/9U4Hn6AabQFF0sFzfCRQcdRwwENdtTjAqEN/LnlyMm+j6uqLMiOCCEhFzdATOIVAnXv3F79Z2HMvT+FTD+2HEOKsLQRFwEBbIlQTKbvqYWLObtgQN60JbZkYMiE7po7N2CiUPSRjZ1w1acJgZ/gOwlKKOvpfXPzPz/M0Pvn1vXj0wHj44AICIFXrnBm0q6MCJXP+BNUQJ52zHkpISK8CqgQbvkVaw0ikIWMZaNKvHfTVHldC1P5b+Cc7rwoqngLG90JN7gM5peA5F4BflhqJwxi4DSQMgM7/nghhAJVpaGVDBMnfJw0ZbwXMOIQO8Z4vDFYLUTMgkuGbYpKQIHsW5JYAEXCAXbIdkAYQoESVCMjELZycLJ8McbirEgcYdXjdprbju0/MurajrIsx5dJTGmvb06GvfpeLp/aP41MPHYCr9KsGYhkC6As5Y2WqWMVkvtqwDp6eIvS1JxGzwv35n5h89RasIsK6rubFHtqScj2NP/v6Xnxv9xjSIWbFLFhog+1XbgRbqoeQtemWi19pE0KCqnmQHaw3gz8mvg3CjAPaOR1EnIvUHkgrkHb9ahV7DjR/CpQfhi6OgLwqhGGGCy5AIChYA7eCmnr8UeSv9a+lhChNgdyAKwlC1BIeJUSoBRsNrzgaKv4V6e4wT1i7swQVRkGaAuYRE2Sys/a3GSTAIJiGUDdc0XYs6KGuVhxg1CEdt142BOY1kLsYGwyeJvS1xi/K6sil8sPnR/Dpb587uAD8qaVhB6VNTFcwW64iGbKF+it5WqM/ZMdUADg6XjirYkdrQjJmoT0TbkLscpAvO7j/WwfwyIvjSMcWl0gral0dyZ4L1pqbAJgxyFRbyKmarzoQv2TTKQXaphGG5VdE7PvqBQetKc8B6SrIswGn6DeOUhoQ/uOECyx85FVhdu8AuncAF1zN8fMvdGniNVdczvEsfmvwVEeohlNCGICdB6rz/gyUep+VFBBrAmLNEDpMtxMBQPurZIEG2ClIMw4kg/c3IQIipszfvKXzULBjXb04wKjD0wcn5joz8X0zJefWi7VMHXaC6lJTmvDlR4/gy08eA6Q4Z3ChNSGbjIYeYX50ooBGve8LCZ5rQvbjqFQ9DE0Uz9qu0ZrQ2RxDZ8gEz6V2fLyI+7+5Hy+cmDt72ycsISHK04ETPP3hYmlQrKUxCZ5Abek+ICFAlWl49dz39LaI8F+3MBvzq+raMLMbINa+EYJwwXwUEvDLS4vjgRMeYSYg4q0g0sETLWtlwOTkgw0r0wpGtBkikg7ZYEvAcCtQ5emATdwIiCVB8VY/1ybAc2oQWpPRo7uPTgebmreKcYBRh7e9boB++Pzw88+fmL31XCfQxVBEfv5FLnzJ5FI5NVnC33zvEH50cALJiHHeEltHafS0JtAcctDWy8P5hnWEIyJELQN9ITumjsyUkbe9sxI8HSJ0NMdCv76l9P3nhvH3jxzBRNFuTHAB/6pWFUZAygt2Ba81ZLKtNt2yAQdC8DuJhiEMiJBD8BaLvCpkcx/EprcCZuz8TbXO4E8ULcGrzgdrsKU1jHhuEUm1wm/DrlwgUIIngEQbyIxecOvnnM8qJLRTBCoBB9hBQ0aba1N6gwU2rqexoSf9s0zK4tafdeIAow4vn5qH6+nngjYbqosG0kkT/W3hEwQvtUrVw788ewoPPHUC44XqBZMBPU3obU2EqmBRijA2ZzewRJXQkoiE3s4Ym65gvuIiaRqnf46JCGtCdvBcKodH8vjqk8fwxP5xGFKcVfGzOP4EVVGeCnxP0mdMtwxx0jnrsYSEdIqBEzyXGnk2ZFM/jM33AtHm2oTQOggTujxZa8seJMFTQSRztUqOEO85aaA4isA5MwKQqQ6Ebv1f2/7SXjVQgy2QhmiqlR8HDDBilgHb1c+emmpsS/+VjAOMOjQlTexc3/r0T16aKE6VqikzUOOg16aI0N2SQOYyuPrNlx08fWAS33rmJA6MzMMyjbo6PJpSoD/kCPOJuQqm8jasBr3nrib05ZKIh0zwPDlVglIadMYJmQiLmvVxKR0eyeORF0bw8O5RzFQcJCyzoedfEgLwKn6L8KCzIUwTMhV+qN6ZhDCA6jy0k4e4BKXZDeHaMFrWwNh0DyiaqT+4AAAIiOIUSFUDJngakMmO8AXB2vO3oYL+EUkDSHUsYrSQAIpjIRp0Cf95A/Y38TQhm4hUrh3MPXWhvBz2Cxxg1CEWMQGIw+2Z+J6JQvWGRk5w8ZRGf3viUlQghlJ1FA4Oz+Pnh6bwo4OTGJoq+Ve8AUoYrUUkeI7PVTBVrCLaoOVqVwFrO1KhT6rHxgswzjhhnZ6CGzKAuhTG5yrYd3wOPz4wjheOzWCu4iJhGQ1Lmj2TEALkFPxeDAFzAYQRO91gqwEHAirPAq4NLCLR8pIgBVIKRufVkOveBLISwYML7cKrTCDYDwkBZgSUbAvZYMsAVaZBbgGBen2Tgog0AdEmIOygMSJQcRyBIhRSQMTvHBo074OIkElGDkRMHFi2P9bLEAcYdZiaryIakVjXlf7uC0OzNzRyrUGRwGB7uPkcjVYsu5gpOZiar2BkuoyXTs3j5ZE8RudslBwPUVMiGjECxVeKCOm4FXpq6dBkCY4mxBrwndYALANY3x0u2NGacGS8AOvM/h5Ko7M5viwSPJUmzBYczBZtjM3aODlZwL4T8zg+WcRkoQrAD4bC97eog5AQhXGAvEC9CQgEaaWgY01+sLHY4yANXVz+/ZDIq0JacRhrbofo3eUndAacBUIC/pZSIXiCp7BSoHgm1HtOQkLYc9BuCSLAaHhSCjLRCoqkQj8vnII/vTVggqeMpWoD7IIleFY8jddtzH03l4lTpcrj3evFAUYdylUXFUcg1xT9Xmsy8gcl2zPDNIx6JSJCMiLR2Rru5DQxZ+PbzwxBawo8w0QIf27JfMlFxVGYKVRRcRVKtov5igvbVTClhCEFDEMs6qRkGhJfe/woDFMGuuAQAnj+yEzwMeHne7xaBclPDkzi5ZF8oIs2IYBS1cNs0Tlr4JrShFw6ipZUuKvkJ/eOY/+JGVhhVmgEkC+5KDkeZgtV2I5CoeqhWHExW/YgBMGUApYMHhiGRUJClCb86ZxmgL8ZpYF0JyAjgZPvzkWQhi6OLdv8C7/dt4DRuhHGwC2gph6/l0aI5Xch/Hkr2skHbNWtIFPtEEY0dNdUXRyH8Fwg4JajSOQAw4LwqoGfUwjplwRXA5ZBQ0Mk22oNxeoP4hQRmmOmXteV/kFrOgo3wVsk9eIAow6WZUASEEtFf5ZLRfflK+62C3ddvDCtgUwygoGQM0j2HZ/F3z12FKZx4QFZ5yZOD8ySQvh/DFLAlBLpWGNOR4YQmC+7+OenhxCm2j1myIa1N194j364dwwqxHAZCeGfqM94s4kQeouLiPDtZ0/iyYOTiEfCvUa/g6SfYidrg9IMIRbdyyIMv8FWFboyFfjELkj7w7wCTrc893H4JyA4RTSiYVdjEEgpf3tAGDCa10D27AS1bvQ7dCon/C+KMIDytH+iD/BdEVr7Tc2MKIQKfqIn0qDSOEgYwY5dCMhkV+g27H60PwVSDoQRYD2ZCCLZgaBfVqUIGzvSBzf1tjzlaX3RW/WvJBxg1KG11lI6Yhnqhk1tX35pLL+tEeWqigjZVBTZpnCbLsPTJRgSF3fJuwGE8Ce2LhcxU6JRJx4PCL3FVSi5mMzbaIlbDetSupQkJMgtQJeng41GJwLMaKjplufiN3+aBaqFYMfREOQP0wIBmmorEuSXvSaykE39kG1XAs19frWMdgPmW7yaEAKqNA6tXUij3gRPf6KoSLYhXKalgNQOvNJk4IRJYVigVC74HJAznlsXR0IctgRS7YEvBlxN2DqQ+epMqVp1LzCtmp1teZ+Zlolo7eRoCIH13U0PdqRj/3m+7KYWe1JwNWFNRyr0iPajk8WzEg7ZpWcIoD/kDJKZkoOJeXtFBBdAbXukMgtdnqpNIa1zGVoryGgKFA8+3fKcBIDSJOBVAStYOTJ5VfhnroDdMBdOdmbU7+NhxPyOkfEMZKoLIt0FnchBRNN+DEIexGJWLRaeWQj/dc4PQ2ivdvwXJkgDZgRItPnJj0FJA8iPgezp2tZOnY+hPYhU5+kGW8Ffv/An0+aHAeXUH5BqDRlNQsRaAnUO9TShLRWpdmaTD5wYK0BzBUkgHGDUYaFHBREQ7TJevmaw9Qfff2Hk3kSg/b9X01pjMORET9tVODleQrSBJbMsGKU0upti6GwO1yRtaKIER2nELvlV9sVBpCDNGKz1b0bQE7Q0YqBouiH5FyCCLo75AU+AYxDCgBy4BdJKBqoyENICRZMACDBiEKYFYSb86aSGBdS2saDV6ZbfjQopBdW2lzquhmhdH+iRhbQgYhm//0hARBqwYjDWvBEWRN21III0EM/UmqmF+6yFciG7dkC2bUb9r5cgzDhEtCnQZ+t6GlsHWh7ZtbFtr+Op5ZrSs2xxgFGHExO/GG5lmhLXrG353BMHxu9VRGd1dAyCiBCxDPSFnKA6k7cxVaouny3mVcjVhFxTDC0ht7iOjuXD5PQtW4I0VLINIt0ZbPla+N8HBKyeOO+DaQ9UCtabgZSCSGZh9l4PFUlABDnpCvxi/kdtS0ST9rcAznhNF+fcRH7OSedV/kpove+7QG03x0WYLRJBGhTLQPRe77cpD/S8i/msCZAmROfV/ucb8Hn9Cp367kQERCyJrX2Zvzk5VYTr8fZIUBxg1GG2cHaHu1TMfOyKzqZn9p6a22WY4X42PE1oTUTQE7J889h4Aa6rQ40/Z41BBHS1JkKPkT86VmjwES09QdqvCFkqUgLlaVC14I9NrxcpIJ6FNmOhKhte6ZJ/KxsSnAUjiPBa4+MvqkvwepXSGGhP7U4lIt+ZnLUv+vOtRBxg1KH6isQeTbK6tT/zZ3uG574c9jGJgOa4hbbmcOWNJydKqHhq2Sd4rnSDIQPEQsXFxLwNc4XkXywbwoCozIK8kj94rP47QiaDd3hkK5cmwluu7bm/vz3JyZ0h8dmpDt3ZV29jdGcT39o7NLfvxVOzW2Ihehh4RFjTkYYRMofixGQJfG5aWiSAdd3hKkhmi1WMzVfO6qnBGoGgypMQnhesN4OQfh+OsJ0l2Ypiewqbu5v3376t6yuxiAlvJe1lXkIcYNRhQ8+rTyLRiFG8eXP7H+0ZnvsnouD9fJQC1oRM8HRchdGZcsP6Q7DgtCbkkhF0ZcM1SRudLqNYVXXNcmEBkAZK48ETPK0YRDwLoRtRKMsuZxoACHjbrr5PJmJWsVK99NtPKwUHGHX4+eFzT4Zsz8QeuKo389SLQ3M3xAJ2mzRl+ABjtujg1EyZr36XkKcIHZk4MslwW1yHRxo3gp4tECBVrbXMrv/dJeVBJjtBkSQIDWhTzi5rnqexsbPp59vWZb/suIrXtBaBA4w6JOLnfpuipuHcdW33Hx4azX+PqP4Gb54mtKai6ApZQTI0UYTt6dAVLGzxXCJ0tSQQCdnG/MhYgX+4Gk1KiOIclFeBCDR8S0Mksv4UUsVXq6sZEWAZku7c3vVfRmbKZaV5PWsxOMCoQ0fm3IGAANCViT98y+aOB77z/Mi7U9H6lru1JjTHLeSawl39Hh8rouppXl5fQhLAQFu4ALFS9TAxZ581NI01gDAgKjMgtwRhWAHuJyES7fA/VT6hrGa2q3Db1s6Htq9v+1bV8VZUGflS4ACjDunY+d8myzTw7tev/f3nj07fMVdyWurprOkRoSeXQDzkuOzjU0W/bwBbMkICG3qaQ913quBgPG/zFlejEUGVJmozLgI0YJImRLorXEdLtmJ4mpBNRYrvu2XwE7mmKFwvQJDKzom3gesghDjvTWlCdzZ++B27+v+HW+9ymqbQ5Y2upzE+W0GEEzyXDBEhGbXQk0uGuv/kXAWzZYd7mDSU32ALxbEQI8sToHjLImZjsJVAa8LdO3r/uDMbP6AVQQic98bqw2epRSIiuIrw1l19f759TfaJinPhqyCN8OWNc0UHJ6ZKsLhGdcm4itCTiaM5Ee4K5/DIPJagFdOKRgKAqkKXp4EAgRtpDcRbIY0oNGfFrFq2q3BFV9Ozb97R86fliodS1UOlqs57Y/XhAKMBSBOEIdSH7lj/m9lUpKReo5Oh1oSWZATduXD796OzZZSqnj/kiC0JVxN6WhOIh2xydnSsyF+8BhO1keXkVSAQZAVDQSRz/pwKXsFYlTz/N7n4gTcM/rohpK2JIIDXvLH6cA5Gg5AmrO9u2vOuGwY+8Xc/PPwX5+uNoTUhm4ggGbFQ9XSgHzUhBF46OQ+lCRbndy4ZCaArE4fr6UC5MCQEPFdheLoUur04OzeSBkRpCnAr/kTTehkmjEQH6p+vyVYSDcBTGm+/ru+/XdmX+VnVVb+YK8MWjd/JOpQq9fXbFwKQQhr3f2v/V777/PB9iXNc4RIBUUuivzVZG9Ne/w+blAKjs/7+PZeoLh0ioCsTQ3MiEmh8s4CApzSGpktwa3u8rBEEIA3Q4e/DG37aLzetiz+WXW77V5CpTn/aKVtVCo6HN23t+tZvv2PLO0Hk1vt1TsY5AbQevILRQEQABKm7d/b+5uHR/LajE8UNsVcsNQgBVF2N/cPzoZ7DlIKvfpeYEMCp2QqGpsuh7m+aMkiaALsAEoDQbm2Cav1Le0QaRjQDI9KEhWVxtnrYnsK61uSJt+zs+bgBuB4vYjUcbwU3mPK3SsZ//Zeu/GgmYZXdc+RjCAFETBnqxpUHy4MpRfjPcKkPfoURQkA4ZejKVLAJqkpBJNsAK8b5F6uMUoTmqFX5jbde+aub+1uGPW6odVHwb91F4CnC+q70k++8fuB3AXDPCsYuJmFAlycBr1L7H1TXTZCCSLRBGxFwg63Vg4jgasJd27t/f11X+mGl+LO/WDjAuEiUR7hhc/vn7t3V96myywVwjF080q8g0RokLZAw6rhJwIoDqQ5evVhFiICyq3Dvdb2fuXlr56cUcWh5MfF6ex3qTfJ8JcuU0Brmpx/a97XvvjBybypkWSNj7LUICK8CUm4tcToAK+EHG2xVKFY93L6189v/9p4t74pYRtX1VKh24JzkWR8+411ErqdhSOF94LZ1H5rNVzueOTZzI88PYazRCNpKQERE8KtRrcHXsKtD2VW4dk32mV++ZfCDGggdXLD6ceh+kSlNEELk77m+/z1beppftD0uhWOs0QRpv8w06I2Di1XBdhU2tqcPvfW63ncTaFpzUuclwQHGJeBpgpBi+ObN7e/rbUkMVV+j0ydjjLHGcZVGfzYxdO267LsFxBAHF5cOBxiXiNYEaOzfPph9e39L4gQHGYwxdnE5nkY2GRnZPNDydtdTL7quhuJ9kUuGczAuIfKb+ey+ZjD7dhzFN4dnygOmyTEeY4w1muNp9GTiMx+/+4r3tzZFdytNSERNxCwThhCcf3EJcIBxiWkiGEK8eM1g9h4A3+AggzHGGsvzNDqaoifetqvvvp0bcz/z5wb5F3mauDfRpcJntiVAIEhg9/bBlnt6sonjnPjJGGON4XgKPdn4ie2DrfcA+JmnCK6n4SkNpYmDi0uIA4wlokBQwO4br2x/81W9medLjrfUh8QYY5e1squwviO9f8e61l8iQbs5llhaHGAsIU0EIXDwnusH7rl+fduTxarHHT8ZYywgDaDkeNixJvvTt+7sewuAvZp/TJccBxhLTGuCIejkh+5c//a7t/c8qBSBy6gYY6w+WhM8rXHXtu5vfOAN6+4WwBBXiiwPHGAsA54GpBBzH75zw3uv35D7NAnA4/CbMcZek+c3MsTONdnPfPCNG95jCMwovkBbNjjAWCa0JmgNrysT/+133zDwW3HLsB2PgwzGGDsXx9OIW4bzlu3dv9fREv8Npcnh1d/lhQOMZYSIUFUKm/sz9//7d2y9ry+bGCm7XGHCGGNnKrsKXZn4+G+/bfN7NvY0/2/H01wdsgxxgLEMVaoKm/oy375re88d1/RlfuLUargZY2w1IwIqjsKWnuZnb7+q884tA5lvVLgCb9niAGOZcjwNT+sD//qO9XfesqXjs4oILrcXZ4ytUq7SUKRx3+v6//a9t6x9o6dpD28jL28cYCxjWhNMKcv9rYlfe+9NAx/tbI7N27xlwhhbZWxPo6MpVnjHzr5fu/v6/o8YQhQ432L54wBjmVNEqFQVtvS3fOHua3tfv7m7+ce2q7mUlTG24iki2K7ChvbUM3de033rpr7MZ0sVl/MtLhMcYFwmXE/DUXrP+25b++b33DDwf6QUHk9kZYytVK7SkBB03/UDn7zv5rV3OZ5+3uUtkcsKBxiXEa0JhpTFLQPN//Hjb9r0tjXZxEu2q3j8MGNsxSAilF2F/mzy0AdvG7znir7MvzMNMcertpcfDjAuM0QE29Fob4l9941Xd932jut6/0rCTwpljLHL2UK56V3bur94y5aO27uy8YeqjuIqussUj2u/TLmehmnI8Sv7Wn69ORn5l6demvrjg6P5zVFTQkqx1IfHGGN105pgK41NHekD165r/YO2TOwB21ZwPI4sLme8gnEZIwJsR6GnNfXQHdu6b33vjQN/bhhCcXMuxtjlwnYVDEPqd13X95nbr+p6Q39b6oFyVXEi5wrAKxgrgOtpCIGp6za1/U5Xa+LrTx2Y/KPnjs3cBBAsg2NIxtjyo5SGhsDOwdanX7ex7T91tsQeGZ4q+79nS31wrCE4wFghiICy7aE3l3z8/bel39DbGv83P3156hMnZys9UVPCEPyVZYwtPUWEqqfR3RSb3LUx979uurLjMxpUzZdczrVYYfjydoVx/Q6gblc2ef/v3rv1prdc0/M3yYjhuorbjTPGlg4R4CpCzDT0nVd1/e1v37Plxs7mxJ8ppatcfroycYCxAhEBntKIWsaJW7e2f+yeXf13ru9IP0aCuNqEMXbJOZ4GCWBte/JHb9nefdctW9o/Eo0Yhz2lwb9IKxcHGCuY1oSqo2Aa4vGbrmy/43feuvlXNnSm93ue5rkmjLGLzlUEz9NY15566Tfu2vShGza23W6a8mHb4W7EqwHnYKwCShMkQQ12pf/xvbes/ebeY7Mfe/bI9G+NzVYGSAAml7UyxhrI0wQiQndzfHjbYMv9Wweyf9XTmpifylc4sFhFOMBYJTT8/AxSVOhvS/1pa3PsHw6enP/dl0bmPzJdrLYJITjQYIwtiqv8wKKtKTa5tj31hQ1d6U+n49aIVtr//eHYYlXhAGOV0fB7/JPSEx2Z2Cda0pHPTuXtjx8eK350qlDNCV7RYIwF5GlC1VPozsQL69rTX8xlon9iQBxXRPCUBscVqxMHGKuYUhpEdLyjOfaJtubY5ybn/UBjplBt5a0TxtiF+FshQHs6Mr9zQ+7LN1/Z8RcTc/b+PUOziFqc4rfacYDB4PnrlsfaM7Hfa2+KfW4sX/2142OFD08V7FYNwJQS3EaDMQb4q6BKaUgAbenYTHc28flbt3Z+fl13+qCurWQwBnCAwc6g/OSro13Nsf/Q3Rz7TNHxfuXQqfxHT82UBhQBlsGBBmOrld/HQsMQAv2tyaE17al/yCSsL9hKHVVE4F4W7JU4wGCv4mkNKcSxvlzyv6/rbPrsfNl5z3OHpz82NF262nEUDENAcKTB2KpA5P8mREwDG9vS+7atzf51Nh39Sr7kTORtF4oXLNh5cIDBzsv1NAwhJtd1pf/y6oGWLzxzaPKeAyfnfvXkTOX2edsVMYMntzK2Ui3n3835AAAMmElEQVSsSiRjJvU3px67sq/58zdt7nhwvuRWJuYr3EuHXRAHGOyCHFcjGUUlETG/srm/5avXX9F+86np8kd+fmT6HXMVN6M1IWJyQhdjK4HjaUgpkIlb+W1rW77Z3ZL4/HzZeSIeMbUQAg5Pa2Z14gCD1YcATQRXaYpHzSdvv6rzSaX0f41FzPcdGSu8//hk8SrH0zCl4FUNxi4zWhNcIkQNiY1dTXv62pJfc131pVu2dBwfma5gulAFEfEIdRYIBxgsMEWEiuNBE53oyyX+eOfG1vvn8s7tj+8f/+DwdOlNcyU3pYhgmpJ70TO2jDn+NigySavU3hR79ObNHX/f3Rr/7omJUvHl0QJsR0NxUMFC4gCDLUpteFoxnYx8c9fG3Dd7sn0bdx+dve/gcP6+I1PF7XbVgyEFLINDDcaWg4XJylFLYkNn+sWN3U0P7NiY+8qR4fyhpoTl/xuuCGENwAEGWzQiv8S16ig0JSKHBtpT/3OwK/3J54/P3mgKvP/wcP5Nx6ZKfUIISACGwVsojF1KniYIAogIfa3JkfVd6R+4Wn/pqv6Wn2hN5ea4BdtVULXGWYw1AgcYrKE8TXCVhqtgxwz5yBu2dT2yuTfTNZW33/jzIzPvmytXbxydszMLeRrcLZSxi2NhqJinCR1NsWJTIvLjneuy/9SSjv6wJ5cYfmT3GGxXQdb+DWONxgEGu2gUERxXwVV6tCub+NI1wJcksHF4pvzmk5Old+Ztb8dUwU5JCHBrcsYWb2GKqaM02lKxamsq8nR/e+rBlqT1sBBif2c2gZLtwnU1NC9VsIuMAwx2SXhKQymCAh3qyMQPWab8dHPc2jo6Z98+OV+5d6bo7JgpOWkighB+JQpnbTD22jQAaIIiggTQmo6WW5PRvddtyD0YMY0fHBnP/7wjE0PJdiGl5N4V7JLiAINdcp7S0JrgKb23uyW+NxE1Pn3NYPSq4+PF24sV950T85WrZitui+1pmIaEIcCdQxmrISIo8r9HUVOiKW7lOzLxF5Ix88Gr+lse7+9IvmAYEpMzNlyl4XFQwZYIBxhsSS0EG0rpPV3Z2B7Htf789Vs6Bg8Oz99BhDv3nZy71XZVW972/B4bAPfZYKuO1gQN//vSFLcQs4ypTT3NP4qY8ju9rYkfjc/bB+IRf4VCa4KnFW+BsCXHAQZbNpQmeBrQmo52tyb/OpMw//r2bV2tj704eluxqm6bmqvcMVN2BiuOitiuQqQ2fI1XN9hK4ze1AhylEbMMJGOm05KMHM2mYg+nosYTt13d+fjIdHnCdjU8TVC1G2PLCQcYbFlSSsP1NExDTBPwwMae9AMDuUR0bUf66gd/OnRrayp6y5Gx/A22q3Nlx4PShKhpAABPfGWXnYXFhqqnYEiBRMREzJJTazvSz8wUncfedX3/Y8cmCi+ahqwOT5VhGAKOp6GUBnhFjy1THGCwZW3hh9f1NIhQNU3j2UzcenbbmpY/2bUxlytW3Bv2nJh7PYhuPDiav8bTlPQ8DUdpRE0DJMDJomzZ0QAEAVWlEJESpilhSlG6eqDlBddTz1yzNvt4Kmo+XXLV+AtHZxExDX9ceq0BFu9+sMsBBxjsskJE0ESwXYXmZGSq4ngPbe3PPBQ1pdXWHOvsyiauf+rAxE1NcWvHS6P57barkkSEiqfB01/ZUtKaYCuNuCkhhUDEkpWtfc17pwvV5266ov3HsyXn8YG25FjRdl3DELAsA9WywzNA2GWLAwx22dK1fWp/dYNcy5Qn46Zxcm1n8p+vGsiaEcvo3jqQ2fXDF0df35KKbh2aLF49VajmpBSn2yVbtTwOxhqJyG/JbQjAMCS0JrSkIrNr2lK754rOnjuu6Xri+SMzz+5Y1zq+e2jWjpkGLFPCdhUcT8MyDQ4q2GWPAwy2YhD8fgBKAbajPNMUQ00Ja6gzG/9/v3RdHx55caTnxivaBx/ZPXbL8HT52pglrxiaLm8s2J5pSqDqaUghYBmCE0dZ3YgIrvJX1qKmhNZAMmZ6G7LpI6Wqd6ivLfnsbVs6f/STg5Mvv3Fb1/B3fnaSmhIRRCw/oPC0f18CBxRsZeEAg61YCzNStCbYVQ9CYLg7lxyOmvLJ69a3Yk1nU9M/PnGk5207ezcfHincbHtqa6XqDY7P22vztiuEEDCEv9ohpeBOo8wPBjTBMuTpjplNcYvWtiWOxaPGEcuQB9Z1pX/800OTL959Xe/Y0ZHC3FzZRWdrAlLCn0Jcq/jgBQq20nGAwVaNhe0URf68FMdVeSLKd7YkDoxOVx745VvX4tRUKfe1Hx3vvXFz26Ag7Hr28PS2lkSkv2B7veN5u8lRGhFDnp7fICV3HV1pFrpjeppOB5V27XNvT0eL6Zg1PFdxjm3py+zZtbHtuWcOTh7ctqbl1Jqu9NTXfzyEzkwcREDVVfC0BhHBq23JMbaacIDBVj1P+UGH7Sq4np7yNE11ZRIvOEo9mE1F8eE71ice3T3WJ6XoH+xMXfH0S5PbTs6UtzTHrY5CxW2bKTmpYtVDxJCwDAFFAGrBBzj4WJbObLHtr1QBrvJXJFJREy2paLkpYY0XKu54d0viwK5NuReHJkt7bUcN33Z158kvPXq02JKwsKG3GS8em4XtKtiu39yK23Ez5uMAg7FzWJidQkRwPV12PH1wsCN18Mr+zA/2npjD9sFWvG1Xb8v3nxvuHp2t9Nx4Rfu6g8Pzm/YNzW12tO6NmUZLyfayRceLFCsupBSwpIQwBEgRAP/E5t+W+tWuPEQ4o/pCnH7fXe13ukzFLSRjppeMmrO2p6djphza2NN86Ire5pd+enDy5ZZ0dOztr+s7+e1nTs0WbBdX9GXgeYSDw/Nw/KTi08P8OBmTsXPjAIOxOtW2Vfy2zZrgenrWVTTbnIzsu3ZDDrajcODUPN6xo18M9qS7f7xnvOf5YzM9775hoK9QdtceGyusOzZVWhNLGi2GEOmqq1JVTxuOp1FxPEgpYJyR6+FpOh2ASHAgAviBgwZBkD+t98z3amE+h5QCzTELUVOqqGUUFVHBdtTs2q7ksb6O5FBLIvry4/vGTl7Zmxm7aUv7yImx4vAP94x5A7kkdqxvxUun5uHVGr0tfNZVfyrwEr96xi4vHGAwtkha+9sr/j47QROR1jSsiIaFENi5MYfJWRvlqofjUyV8+Pb1TYYhu/cdn2nbf2q+fbpQzb3rhv7+qXy1e3y20jU6W+m2PZXNxay44+m40jrqKpKeJpSrnj85UwqYteBDiF8EJQszKyQAqgUkEr+ITJYySDnzQl/XKiYE4fTxyjMDq1oA4ZF/gjeEQCJqwjIETEPAlMKOmEa5YLuVmGnMdLXER3JN0Ym+tuTw+Kx9at/Q3OSOddnRLWuyk0rpkc9+92C+syWOK3sz6M0l8cT+cajaY6vaSoertL/NoQngYI6xReMAg7GLzHYVqp4/M6J2js3Xbi8REWIRA9dvbsex4TwMAxifs8WNV7TH33njQOuBE7O5U1PllmPjxdz+0fncW6/taco1RXPj89VcyXabZgvVXNlRyYl5u1sRyaa4FZNSSE9RlIgMAuTCjAoiP3ER8E/q5ar3qvwQEv4qSlBKE8Qrtgo0gETUPP0cC+W/GgRLGhCAFkIo0xBVrUkXq55tCKF7solhyxROW1NsPJGw5juaolNT+erUYwfG85u6m6Z6WxOzPa2J2W3rWice/MmJyReOzNi9uTitaU9j+4ZWHBoq4IVjM2e/rtoxup4fRDDGLj4OMBhbYkRA1VG12RKAJiIhqGwYoiylOGnU2p17ivC6jTms6W7CoZN5TM1XcHyyKGYLjjGety0QxMfevKkz1xw1T4wWWvMVL+G4yjg6VuzQAEq2Gzs8XmgjIsQsA/fsWNPikW6iWtwjhCBP6chModpB2l8EqePwhZDQ2XR03DSkQ+SvmwgBYQqZ/97ukdmqqyCEwJq21GQ6Ztme1nKwMz2eiJpOU9ysDHSlp6fmq94nv7FvjAQo1xxzUjGD1nWkdVs2gY29TTg+ksfDe8cg8IvVDsMQEMLvIaGUXyFkOwqOxwEEY4wxxhhjjDHGGGOMMcYYY4wxxhhjjDHGGGOMMcYYY4wxxhhjjDHGGGOMMcYYY4wxxhhjjDHGGGOMMcYYY4wxxhhjjDHGGGOMMcYYY4wxxhhjjDHGGGOMMcYYY4wxxhhjjDHGGGOMMcYYY4wxxhhjjDHGGGOMMcYYY4wxxhhjjDHGGGOMMcYYY4wxxhhjjDHGGGOMMcYYY4wxxhhjjDHGGGOMMcYYY4wxxhhjjDHGGGOMMcYYY4wxxhhjjLGV5/8De8Qq3dkYTccAAAAASUVORK5CYII=;" vertex="1" parent="1">
                    <mxGeometry x="510" y="160" width="145.3" height="76" as="geometry"/>
                </mxCell>
                <mxCell id="8" value="/var/www/html/public" style="verticalLabelPosition=bottom;html=1;verticalAlign=top;align=center;strokeColor=none;shape=mxgraph.azure.cloud_service_package_file;fillColor=#FFFFFF;" vertex="1" parent="1">
                    <mxGeometry x="700" y="166" width="90" height="64" as="geometry"/>
                </mxCell>
                <mxCell id="11" value="" style="shape=image;imageAspect=0;aspect=fixed;verticalLabelPosition=bottom;verticalAlign=top;image=data:image/png,iVBORw0KGgoAAAANSUhEUgAAAgAAAAFgCAMAAAD6ujEPAAAAn1BMVEUAAAD7UDu9KhPlRDD7UDr7UDvySDT7UDv7UDv7TzvtRzD3TDfYOSn7UDv4TDb1TDb7UDv7UDv7Tzr6Tjr6Tzr6Tzr6Tzr6Tzr7UDr6Tzr7UDv7UDr6Tjn7Tzr5TTj5Tzn6Tjn7UDr4Tzr7UDv6Tzr5Tjn7Tjn7Tzr7Tzn7UDr7Tzr7Tzr7Tzr7Tzr7Tzr7UDr6Tzv6TTj7Tzr7Tzr7UDvbS5HyAAAANHRSTlMA+wMJ6PcS8+7jDR0G2iIXwKmwWJCEX1LLi7qjPn8nTCzfQ9DGRzS1OdRydmVpbZqWMHqeL1AXOAAAFudJREFUeNrs3Ylu2kAQxvHxgbnCaWgIAYPBMSScCd/7P1sPqbUqpiK07M6azu8FIhV7mTqTv8mqoJPkk8ViPW+Q+k8Ezfwl3k+Pve6yXsEvreOa1J3yO/PJ4/bj6Xk8Kj7zc+MmqbsRNPPZl7fhod99DfFJYU6qzKJkPft+o6+KG/06tTmpcnlozhc/v9E9/LOWDoMlUNzoaRU39kzKQX6UrH99o3swKSblhCifxdu34eB5lbVqHqypdUiJmxxakNInJSzJIOmRlKi8BlFpQEpQkELYkJSgHaRV2qTkjCFuRUpOCBsq9dHqeTDdb3pgzEiJqcAUL1yOnwcf29m63aBfnnGupXPg5zl+AVTTrH8Y7uPJPPKJ06ni3JSUlNYNb/W8HdBFG5yr6GrANZwYAr9/q5+Gb/Fi3vHpGg8tfR7okiGuUG11+8fp7nGSRPTXZmC8kJLx8rkDfvNlljcDc4dO64GUiKAKVto7TvfFAX9Lcw/nNqRk9MFqkzkDnKvqHCjkEayAzIlqONcjJeIhBGdOBu3AWJAS8QTY/k72X3HuVedAGU0PjNQngxZgvJES0QNnSyb1ca6q+4Ey1uDUAzKoXdElcXdksH8iD8GYkJIQgxMGZFBQx7mlT0qAn4KzJ5O+8D9SSdgLTAGU6d+JOKNREzgCcjBOpCQMJY6AExgaDhHR9MDZkUH8dthI50ARJ3DqD2TShr/olIA57B8B/HZYLSIlYAVO+kAmzcA4khKwgMBvBGgMhrajRCzBafnEMrkdlukcKCEG6wsZNeB/prLPTyWOgCjEuVDnQAl7kYzTDowBKUsuPw9+9ckkf4lz3jsp+4YiEZ8FGF1S9nUq4CzJrJ7Oga44SBwB/HZYqBFZAQlYIzJrqHOgK/qA/YQLvx3maUlcwBqsjMyKdQ50RQbWgszKtCPtiEdA4m7MwajrHGif3wIkFvZPYDyRsm4L1piM4rfDvISUbUEISOxqbvjLTln3IZNzfWhpSt4NURWQWNOZaUreEQOhN3uMNSXvhqYH1juZlXiaknfDM1g9MmygKXk3vIM3J7OiUFPybhgLveRxp3OgGxYAJJ7L+EtoSt4JI7BOZNhEXynkhhgsr02G9fTVkk7wU7COZFi7oil5J+wBiLzYYwhNybsgCAGRRb2gDsYHKcumYFU6ZFgMTcm7oFMBZHY0MmhK3gVHsKoRGZZDU/IuaHtSb3o+QVPyLuiBVWuQYZ2qpuRd8A5AZiLf6BzohLHUEfDQgqbkHfAC3oZMm0FT8i5Ywm5FvjCGpuQdEIO3J9MST1PyDvBT2O3HFgbQlLwD9uBtybQo1JS8A4Ia7PZjCztoSt4BQ1iPRxbbYZqSl9epwG48sjCBpuRZD8ls/9Qbj0/7Npl3BC8m43rQlPzvosl2sGp5+GX1Tqa1PdiMR17eDjvQ/6gz2Q26Ic54T8ansR54j2TcEJqSp2iyO3ZD/FHWJLNy8JZkXFD/r+fA7wd+N8QlaUJmdcGbkXExOFu6d431djCu45PCORn1Al5G5mX4z1LyjfzL06qO64QJGbUEpJa0cvw3rxQqPvrrpWbngBi8Lpl3wv2n5H989Cn+xTIgg/wUVstxl7fDMroPjfX26rteIt2wB29M5m1wlyn5zmRXjHm3sCGDghrsZ6OK7bC7SskH89nmlNVwa94LGTQEr0/mzXAvKfn59tCtw5Ram8zpVMCzMY2NcQ8p+fkgxUXuDoJH67NHYe6VPyXfOOCWvNfDbvvsWfww2h54CZk3QNlT8sEIt1LNDvt1QN/locVBsAdAalc/Csuekn/DLaT9YZz4VEhq9gbBHNabMYUdSp6S79/gtp9EdGbh2RsEu+AdyDx/iXKn5Hv4a63+9LHt0x9s7A2CL+B5TTJvgnKn5Lf4C7XuYLtuXLq07A2CS0Duf+Q9lDol3wivHPJ7H7MmfUawtDYIxrDcjLm8HVYvTUJ0i08Kx09f3gP6vLa1QdBPAblhbIhyp+THuKQ6Or0tOnS1mbUngntYb8YUgnq5E6LNGv4s/TboJT79pamtQTCoAXL3YYxyp+RjcKrZcVcMen/H79saBKcA5Fb1M5Q7JX8+x1Y+Ep9uoNGyMAgWvxKSqnnnKHdKPqobe4o6r1oaBI+w34wpnFDulPyLuVeyP1oaBNue/XWUQqda7jmQBuaeYzxZGgR7sN+MKWxQ7pR88Irf1SO6Eb9rZxB8h0gzptgOK3dK/t0zdvF26nYO5THsN2MKM5Q8Jb8xF79ce1YGwQUEmjGFFcqdkj87qSs53crWziA4Ai/1yYLEK3lC9OyBYKtBt3KyMgjGAAQ39QcoeUo+NrdSFYxs/LP4Kew3YwpRWPaU/FfuzkQ7bRiIovLGanYCZl8KpZCFQN//f1tdenrUAqahjDwzuR+Qk0AwT6Onq5G7T069lEcQfAXAWNJ8gXKV/MVAsDg1VKzzCIJBSCCMoG6H4dmoYey5+64+5hEEJwAY+zljKM+B5snhafd2DkGwUMR1EpMLLe05ME7cfXQqNaevi03ijCO5eqRdJT89/wtKVUPFvOj+y7HuEQgjyNthW0XqqIsgvfINFX24D4Ij8DhjbDtMu0p+47BUNXAfBA8AOIv6HWhXyTdCd58dv+k+CA4BcLq8V9Cukp/hjLBhqGiUnQfBJQDOjuZXqFfJv+OMoU/38kTOg2ACgFPj+h3arxQKag5nWS/nQZA8nHXA44yx7TD1KvmvHv7GI3yA7V0HQb+GDOYmF3ZQr5I/4owF3W8fJK6D4CuDr+6sHaZdJe+vHL521dDdz7ZbQpyH9mdQr5KvFx1+hS09x0HwCIB1MbaBepV8D2dEc0PGs+OJYKHI5Iyx7TD9KvkWztgGhoy24yDYBcCq8u5CvUq+UL4SYpxtDG4rhpKqh+tEVZMLhVC/Sn7pslc1Lbpdo48AsFpcX6BfJT/AGcW6IaPvtj8/B5czxrbD1Kvk44u/IYkd/nvNDCUbAKwCvzH0q+TnkcNXzx+eB8Gp+9ffOmPc04J+lfzOpfOiUHYaBBOwCCMs1egTqOSHOCO0KZp+Y7DtGzr64BFGWCbQr5K/1Ec1fYfDpomxuNsSOpp8CMrQr5LvO32Cvrts77+ARxhh6UC9Sv5Ku8EbGzLi1XlCmxuLqy0h7ExONKFdJW9ndmfqEFcbgzXCH36EhUfieoB2lbyVOzga2o09J+0zuyXEW87ZQ7lK/idPTkvurw4/HgNksIhNPjRKylXythxyrg5xFzI6pFtCzPO4HXSr5O3GzRV1iKOGWHQg/OdiE0bYdphulXzGgmpkHAbBRYNyS4h5KTaDcpV8xrVCPZdBsBlT/uLMpzU3uEakKwc2QtCrQyyvznoTYwDM38JTT7lK/sTM7VWge2frtBWYnDGWwWfIgebdabspbroaN85gYXL5V0LlKvkTQe36v7CrreGwbkjwtwCYuzkvUK6St6fFqNUhlj0clQN64BNG2HaYcpX8iQncqUP8XgS4KQfEZQDM27JjKFfJ24Ggi8Vstd9dOFwqP8PCZW5qQfmVQva0GO1TNP66a5Xhdl5bKfE5Y2w7TLtK/kQPlOqQYDwZFnGLaEy2DOM+rDmBcpX8L9ogUodU1k/NCJc46Qk3IgJhhJt2WKRIIfprIEigwa3MnlYePkat4WKFYZmbvOhAu0LUjlUeUIcUZoPEwx2sYophLAD2178J7Sr5E3v8tzqk0O9+wd08U311cVdzDt6nyIGXDUG0HLz5lgVJqw1ZjExu7KFdJZ/REMQr/ZtviYiev3zCCNsOU6+Sz2gIRnPyN98ypMsu3OKmHXsOISFO8DF1SOUU+B4knBoStmAURth2mHaV/HWfPLCnffMtmyrlDIv7rOYa6lXyJ95uN+wqa5o3H6URnZ0yLhMII1w5C3ZGGUNkqUMq69OQh4Badx1TfwGzH9OZeupV8vbI8IU6JFhSvfnRZjc1xFRK7MKIlAH7YtTZN+qw6YGE7WAZGwc8AWBvaFfCz5EDTRtOCEc9Z6G8EbELI1J6UK+St7tCtETD54NvHPIOgH1T1k+gXiV/og9StoN1YBxT99iFESnf8AlyYLCcDEFGedTL569vgV0YkTJin0g+RmE2WHmgorjZzU1efIWER0C1CLUq+Wqn+wVkeKvJODZ50gS7MCLlCJUq+Wnvew101N77BZM3a2RRjk1uBAsoU8n7h7dWqGSxd5svAPhf/T4UXSkUf3velIgXe4aNDtiFET9pQodKvrKeNCPQ4SVPy9hw4i/A7oxJOXjyVfKN/iDxoP1L/4I38AsjUt4hWiVf7e23AEhX+kJ6T0HIL4xIKZT4H0MZzF9GZVBSbL9JkiNPwC+MSHmDwCuF/K+7dghKvObkm7DVbSHiF0akxFv2etK1c3qkJIOZRAVGF/zCiJQl5KjkC/aoFhWL946AxHeVuscvjPhJGyJU8g073KWkKezB/yct8AsjUuoRu0q+TjLcVae/OUCAMCJlAMYrhfz5W6sMGsrtVknVmcch+IURKZXwzo6qxOGut3o6GGMaCc4J5RYclhAgjEjpMeTAYEk43N12Z5XfOXKhKQYk4BdG2HZYblGkQDncXew7jb+PjCqyIXeQycHkyLf8PNbVzvsWVIStl/plpFEUA/yaBGFEygh5XCk0fRktCAe7u/lHR1uhkPn/Ja/IZGruwFU77EnmcDdqHm8Mdg+enhgQhBKEESlHuFPJB+PjsEi6lR+Ym0wUXYowgQBhhG2Hka9HKzMrYSOM+7fxm7hgbWRSKEoQRqT06femG/0uZZNj8d3G/X9QL+mJAV1k4eX7Kw+RoZKXMNy1cf9jdPRsClQ9CcKIlLlHlAP9+asd7nKd2BjpiQEjSBBGZLfDovp9w912CaCO+/dTWaiZBswhQRhxox22yXu4a+P+OnjAIadmU2ADCcKIGz3V2R3eVbq4/2hzd6ImBiwhQRhx406bWpDPcNfGfYrmrt9U0w1IAIg4orPEdY55DHdt3HenD/JkxoC+mDpL+w6DoX+ww12yuE8q5uhDSQzwa5DgjLnRDmtfDnc3RYC4th0biysn8lBkDHhFigiB8xOus764YYM07juysgQ19mfqxwhCEcIIe53IVZW8He7Kivs3OEQ4xxOpQTsikzeTK53MJ1G9t6+BlnJG3He6si1LjAGFoghhxI0bjqMyaAlbr1Pjno2SGNCFCGdM9oFxSI77Ny2C7Lnq0S2hRWxyZQKneM18fUxLXLtcSh4jiBBGpFQ8OIMg7lMceykLPC04hwxnTEoZZ+j2csSJjquSN0hhP6R3PpT4DF6OelHFvQhjCHDGxONJAmJKBHGf/OCTJ1CGmYDXGROM7XY+Xdx/PghYdI1wwaJipNEHhzPGjnc9AJrj/u0rJhXckObXcJczRuRBPVgpi6SP2MFjn698gBfc44yRd1APojR8/7ynKZLkQszaEso+1iDsoJ6IuH/nIqsm6Rl14ogPOGMkKpd/UWqncV8qjRDyL8gqFG85YwRaOSzRUETcv8GSf8b60JbQUKJyWVzcv3MkHEkSh/5jSwjfHg77tstByBdZcf8G8QoXbKX5I0fIZCMt7AM1uQ7GjJGw+PuR5sjmq6CwLzju36DDvs/y0JZQW0jYB0qyrNsf5zuuXTUtijGymd+3rXN8MOwLMVdY3LSEE2H5NcED2ija4rYQfxUlhwhytOj334M6zTnsy3BZk/J2da9VEre2hEb5hn0JBYUf7d2JeppAFAVgERCIS9zjvmvULKbxvP+zdf1KWxmLcgfuwP1foTbMzLkLuTYu+LxOs29QsmbpHvbZVCoTqgS4sGH1e74WCZ2V87Yd6GBtAhZdy5QmFpgPj5nGO3+H8xd9UAsnsj2xGF9EagrmM+QqXsxTQE0xf5F0IluT0UIZGuUm967xLpSsqp55POoRDTsOCw1oVX3m7WIN6/oFzF6pC/joe7bGDJYbEptnP4njuhaUDsOz4pqvK9Wtuoi05Bak3aAL3l3jX0CALNXtKQcHGcteM28XGyFN9VOncsdGIY/X+8lNZl5U3s7HFmlxYqS6ryzm2dPqg3e72BoEqFLd8gHROHZZxzXm3TXeBwGyGbxbRBtwujsRNAst+RwDagH0sTa9lU1yJnktmWtnsc65j9Bk3Z0/kI2NcQypB410ZB1yPXggFW7Yu8uZxThzYs+s28W6+IXFDF7VUjGLbytQnGYhzu1iDYvyuH9ckERovC/PN1uxvtu2qHq2wuO+hv3SmJcM1uPcLrbn1bP1imh1ZkW1iZuFPDZftVHiiWyU37Pygcc0a1oNHxfWXFKuhcVqRMMW0TxWtRQUzUIfJSZ6BPtWCI2UhYomOzEudahtKO56+v8iMZy4Fp99wAWfS+tTNSC469E5KQcYmWzh4sKGy8l25sQex7fTH8w8ejyGGRN74/zCOavjf9z05nNMkcNIoFRqc64Tr7QJcj0qdpDHSKBUCVjXifcDRLIILvpUZQoum8eTu0ws1nXi9vuSINQlUV7jOzPGr9+gx7xOvDwJW77hbRKs2aKJTzh/M+9SqzOvE//GXmw7nc58Xy1l6jmPkUCp9ATmdeJs/HwNYl5Se4cgb1G3NidE8/kcm+8w83L4o1ageQ3iP3EvPnt+tgCYsVYke1PkKhIoT04+fjJirUj27CBHkcCXYZDTeWga9ZnsN0xsNq3neBiSgs7XoMCkP5jVlzUusK4T52OFH7jPWrri8b2JSAbME+fgGdFcLoUUV1VeRxYuGf+rTtHCMjYSeOg/W7iJa/QDhyYfZkYCD522i5u9l8Tla5B5kYD91HJxVQ7nYGjzCbMigdp87AGQHwAVOzAoEihvTz5iyN88PI36MCQSKE8+nIIuR9CqPDAiEth3AyQz5FMaxssE7COB3TBAQk1WP2de2rwjgUWvjqSa5m5GScHM4hsJhDHP/awWo6lxLHWZPp42PtdIrP7C8DrDTMVnGAk0XgZIzDsxqwhm6ghmkUD1uEFyzb4EgPHUlpwigTDiTaI+NSLRZOIJXCKByhvFCg3/Q859t9mwiAQqYcSbgNV+4ptkcbVH5oODwoA/kcG7nPrv0co2QrPDgD+JoGd2d3OGGi4odgnoD/jVvPFKnvvvN8StuwSyD/gRskZy56MbIaveJUD/r++DwPrF4LVHXLxBwamU/sKkvOM3Z2ju8lNOygfEWC/MprzjF2+8lQ+/7g1n1oL8X7/rgObDn31gmSMjpLJeeD8MQGF9lA8/rYWlv5zyS28JCoF8+DU4QWFpsynu+c47y41fi0cPClOK4p4DKFjtjtz4dfmEgttgUNwjT/3a2UsotLMr7gktp/LUr1kHKttkxT2S8RtiQ1QaEhb3kHAl40/JHiovuot71JqvMuszNWMoeFWdxT1qh08p7ktT1YXCWFtxj5rTlZautPWgMtFU3KMOeuby3pM+O4DCuhynuMcDJOgxWh8qR+LiHrXBUd57sjO45xxY25590FhKaWe29jcP2SivTg5o+NLOl70WVLaq8g5578kT9VWw/kA+uyXUlGMfFz2ojGlnt4QOUtjLiB1A5f2f8g6p78mlDpRefw1pP4CIL/U9DG2g1H5avY8ASH1Pnu2QhuabxHxcnaEmMV8BPHrQyRnKChfmjogk/VxF8e8eZjn2Fc0WP8mxr6jagBz7iqzhglAgxz7jTEHFP8lrn4HsJSi4LQl5DTWX2r6Ce0YyAxniYLaqh/vVpZfTfMf7WzqklzMPymt56y22L5a89RbbVDp5i622kUN/sVV9OfQX29yK89Ivfdz5dcR1zsdEDv251pOcp+CmiOac55LzFELHw4XDUP7vF0djhD/57Tep7imY3UeAH4L2cSf/9QvpcbeaLPIQ738FUXaJHChGqRAAAAAASUVORK5CYII=;" vertex="1" parent="1">
                    <mxGeometry x="700" y="196.13" width="40" height="27.5" as="geometry"/>
                </mxCell>
                <mxCell id="13" style="edgeStyle=orthogonalEdgeStyle;shape=link;rounded=0;orthogonalLoop=1;jettySize=auto;html=1;entryX=0.5;entryY=0;entryDx=0;entryDy=0;" edge="1" parent="1" source="12" target="7">
                    <mxGeometry relative="1" as="geometry"/>
                </mxCell>
                <mxCell id="12" value="&lt;span style=&quot;font-weight: normal&quot;&gt;/usr/local/etc/php-fpm.d/app.conf&lt;/span&gt;" style="verticalLabelPosition=top;html=1;verticalAlign=bottom;align=center;strokeColor=none;fillColor=#00BEF2;shape=mxgraph.azure.file_2;pointerEvents=1;fontStyle=1;labelPosition=center;" vertex="1" parent="1">
                    <mxGeometry x="558.9" y="90" width="47.5" height="40" as="geometry"/>
                </mxCell>
            </root>
        </mxGraphModel>
    </diagram>
</mxfile>